<svg width="144" height="24" viewBox="0 0 144 24" fill="none" xmlns="http://www.w3.org/2000/svg">
<g clip-path="url(#clip0_4_6)">
<path d="M13.4541 21.528C12.6381 21.528 11.9501 21.32 11.3901 20.904C10.8381 20.488 10.3341 19.68 9.87806 18.48C9.48606 17.472 9.09406 16.44 8.70206 15.384C8.31806 14.32 7.93406 13.256 7.55006 12.192C8.52606 12.024 9.19006 11.84 9.54206 11.64C9.89406 11.432 10.0701 11.192 10.0701 10.92C10.0701 10.536 9.82206 10.308 9.32606 10.236C8.83006 10.156 8.07006 10.328 7.04606 10.752C6.94206 10.496 6.84206 10.232 6.74606 9.96C6.65006 9.688 6.57006 9.432 6.50606 9.192C7.57806 9 8.29006 8.808 8.64206 8.616C9.00206 8.416 9.18206 8.168 9.18206 7.872C9.18206 7.584 9.05806 7.388 8.81006 7.284C8.57006 7.172 8.21406 7.156 7.74206 7.236C7.27806 7.316 6.70206 7.496 6.01406 7.776C6.00606 7.76 5.99806 7.744 5.99006 7.728C5.98206 7.704 5.97006 7.68 5.95406 7.656C5.94606 7.632 5.93806 7.608 5.93006 7.584C5.92206 7.56 5.91406 7.536 5.90606 7.512C5.51406 6.36 5.56206 5.444 6.05006 4.764C6.53806 4.084 7.35806 3.744 8.51006 3.744C9.13406 3.744 9.64606 3.928 10.0461 4.296C10.4541 4.664 10.7181 5.232 10.8381 6C11.1901 8.376 11.4741 10.544 11.6901 12.504C11.9061 14.456 12.1501 16.376 12.4221 18.264C12.4941 18.768 12.6261 19.12 12.8181 19.32C13.0101 19.512 13.2621 19.608 13.5741 19.608C13.9341 19.608 14.2021 19.452 14.3781 19.14C14.5621 18.828 14.7021 18.408 14.7981 17.88C15.1821 15.872 15.5421 13.848 15.8781 11.808C16.2141 9.76 16.5661 7.736 16.9341 5.736C17.0221 5.28 17.1661 4.928 17.3661 4.68C17.5661 4.424 17.8381 4.296 18.1821 4.296C18.6861 4.296 19.0021 4.476 19.1301 4.836C19.2661 5.196 19.2781 5.648 19.1661 6.192C18.8941 7.568 18.6101 8.964 18.3141 10.38C18.0261 11.788 17.7261 13.2 17.4141 14.616C17.3981 14.68 17.3821 14.748 17.3661 14.82C17.3501 14.884 17.3341 14.952 17.3181 15.024C17.3021 15.088 17.2861 15.152 17.2701 15.216C17.2381 15.36 17.2021 15.504 17.1621 15.648C17.1301 15.792 17.0941 15.944 17.0541 16.104C17.0221 16.256 16.9861 16.412 16.9461 16.572C16.9141 16.724 16.8781 16.88 16.8381 17.04C16.8221 17.104 16.8061 17.168 16.7901 17.232C16.7741 17.288 16.7581 17.348 16.7421 17.412C16.7261 17.468 16.7101 17.528 16.6941 17.592C16.6701 17.712 16.6421 17.832 16.6101 17.952C16.5781 18.072 16.5501 18.192 16.5261 18.312C16.5021 18.408 16.4781 18.504 16.4541 18.6C16.4301 18.696 16.4061 18.792 16.3821 18.888C16.2461 19.44 16.0581 19.912 15.8181 20.304C15.5861 20.696 15.2781 20.996 14.8941 21.204C14.5101 21.42 14.0301 21.528 13.4541 21.528ZM13.7901 8.952C13.4221 8.952 13.1021 8.808 12.8301 8.52C12.5581 8.232 12.4221 7.872 12.4221 7.44C12.4221 6.968 12.5661 6.584 12.8541 6.288C13.1501 5.984 13.4781 5.832 13.8381 5.832C14.3901 5.832 14.8101 5.98 15.0981 6.276C15.3941 6.572 15.5421 6.96 15.5421 7.44C15.5421 7.944 15.4061 8.324 15.1341 8.58C14.8621 8.828 14.4141 8.952 13.7901 8.952ZM18.3501 11.88C18.9021 11.856 19.3061 11.888 19.5621 11.976C19.8261 12.064 19.9581 12.272 19.9581 12.6C19.9581 12.84 19.9021 13.02 19.7901 13.14C19.6781 13.252 19.4941 13.336 19.2381 13.392C18.9821 13.448 18.6381 13.504 18.2061 13.56C17.7181 13.616 17.2261 13.664 16.7301 13.704C16.2421 13.744 15.7501 13.776 15.2541 13.8C14.5581 13.832 14.0501 13.796 13.7301 13.692C13.4181 13.58 13.2621 13.352 13.2621 13.008C13.2621 12.68 13.4141 12.456 13.7181 12.336C14.0221 12.216 14.5021 12.128 15.1581 12.072C15.6861 12.024 16.2181 11.988 16.7541 11.964C17.2901 11.932 17.8221 11.904 18.3501 11.88ZM9.01406 4.656C9.19806 4.624 9.36206 4.616 9.50606 4.632C9.65806 4.64 9.77806 4.688 9.86606 4.776C9.95406 4.864 9.99806 5 9.99806 5.184C9.99806 5.456 9.96206 5.652 9.89006 5.772C9.81806 5.884 9.66206 5.976 9.42206 6.048C9.18206 6.12 8.95406 6.184 8.73806 6.24C8.52206 6.296 8.31006 6.344 8.10206 6.384C7.90206 6.416 7.71006 6.36 7.52606 6.216C7.35006 6.064 7.26206 5.864 7.26206 5.616C7.26206 5.4 7.29806 5.252 7.37006 5.172C7.45006 5.092 7.61406 5.016 7.86206 4.944C8.05406 4.88 8.24606 4.824 8.43806 4.776C8.63006 4.728 8.82206 4.688 9.01406 4.656ZM8.34206 4.032C8.48606 4.032 8.59406 4.092 8.66606 4.212C8.73806 4.332 8.77406 4.464 8.77406 4.608C8.77406 4.776 8.74206 4.92 8.67806 5.04C8.62206 5.152 8.51006 5.216 8.34206 5.232C8.29406 5.232 8.24206 5.232 8.18606 5.232C8.13006 5.232 8.07806 5.232 8.03006 5.232C7.86206 5.232 7.74606 5.192 7.68206 5.112C7.62606 5.024 7.59806 4.856 7.59806 4.608C7.59806 4.416 7.62606 4.276 7.68206 4.188C7.74606 4.092 7.86206 4.04 8.03006 4.032C8.07806 4.032 8.13006 4.032 8.18606 4.032C8.24206 4.032 8.29406 4.032 8.34206 4.032ZM27.8831 13.896C27.0431 13.896 26.2071 13.876 25.3751 13.836C24.5511 13.788 23.7311 13.728 22.9151 13.656C22.5071 13.616 22.1751 13.536 21.9191 13.416C21.6711 13.288 21.5471 13.056 21.5471 12.72C21.5471 12.296 21.6991 12.04 22.0031 11.952C22.3071 11.864 22.6911 11.832 23.1551 11.856C23.9231 11.888 24.7591 11.944 25.6631 12.024C26.5751 12.104 27.3471 12.176 27.9791 12.24C28.4511 12.288 28.7991 12.372 29.0231 12.492C29.2551 12.604 29.3711 12.816 29.3711 13.128C29.3711 13.448 29.2471 13.656 28.9991 13.752C28.7511 13.848 28.3791 13.896 27.8831 13.896ZM27.3071 9.96C26.7071 10.08 26.1111 10.188 25.5191 10.284C24.9271 10.38 24.3311 10.464 23.7311 10.536C23.3391 10.584 23.0071 10.56 22.7351 10.464C22.4711 10.368 22.3391 10.136 22.3391 9.768C22.3391 9.504 22.4431 9.304 22.6511 9.168C22.8591 9.024 23.1311 8.912 23.4671 8.832C24.0351 8.688 24.6031 8.56 25.1711 8.448C25.7471 8.336 26.3151 8.232 26.8751 8.136C27.4751 8.04 27.9311 8.036 28.2431 8.124C28.5631 8.212 28.7231 8.472 28.7231 8.904C28.7231 9.224 28.5991 9.46 28.3511 9.612C28.1111 9.756 27.7631 9.872 27.3071 9.96ZM23.2511 9.168C23.4351 9.168 23.5711 9.22 23.6591 9.324C23.7551 9.42 23.8031 9.536 23.8031 9.672C23.8031 9.92 23.7471 10.1 23.6351 10.212C23.5311 10.316 23.3951 10.368 23.2271 10.368C23.0111 10.368 22.8511 10.312 22.7471 10.2C22.6511 10.088 22.6031 9.944 22.6031 9.768C22.6031 9.576 22.6551 9.428 22.7591 9.324C22.8711 9.22 23.0351 9.168 23.2511 9.168ZM20.7071 18.624C20.7071 17.904 20.9031 17.368 21.2951 17.016C21.6951 16.656 22.1871 16.472 22.7711 16.464C22.9871 16.464 23.1751 16.464 23.3351 16.464C23.4951 16.456 23.6511 16.448 23.8031 16.44C24.0111 16.424 24.1511 16.348 24.2231 16.212C24.3031 16.068 24.3471 15.848 24.3551 15.552C24.3631 15.432 24.3671 15.3 24.3671 15.156C24.3751 15.012 24.3791 14.86 24.3791 14.7C24.3871 14.596 24.3911 14.492 24.3911 14.388C24.3911 14.276 24.3911 14.168 24.3911 14.064C24.3991 13.96 24.4031 13.856 24.4031 13.752C24.4031 13.648 24.4031 13.544 24.4031 13.44C24.4031 13.336 24.4031 13.108 24.4031 12.756C24.4031 12.404 24.4031 11.992 24.4031 11.52C24.4031 11.464 24.4031 11.412 24.4031 11.364C24.4031 11.308 24.4031 11.252 24.4031 11.196C24.4031 11.14 24.4031 11.084 24.4031 11.028C24.4031 10.948 24.4031 10.872 24.4031 10.8C24.4031 10.72 24.4031 10.64 24.4031 10.56C24.4031 9.872 24.3991 9.204 24.3911 8.556C24.3911 7.9 24.3871 7.424 24.3791 7.128C24.3711 6.872 24.3151 6.696 24.2111 6.6C24.1151 6.504 23.9471 6.456 23.7071 6.456C23.5071 6.456 23.2711 6.468 22.9991 6.492C22.7271 6.516 22.4511 6.528 22.1711 6.528C21.6831 6.528 21.2951 6.428 21.0071 6.228C20.7271 6.02 20.5871 5.696 20.5871 5.256C20.6031 4.808 20.7431 4.496 21.0071 4.32C21.2791 4.136 21.6591 4.032 22.1471 4.008C23.2431 3.96 24.3351 3.936 25.4231 3.936C26.5191 3.928 27.5631 3.944 28.5551 3.984C29.1311 4.008 29.5431 4.08 29.7911 4.2C30.0391 4.32 30.1631 4.544 30.1631 4.872C30.1631 5.184 30.0471 5.408 29.8151 5.544C29.5911 5.68 29.2751 5.784 28.8671 5.856C28.4591 5.936 28.0831 5.996 27.7391 6.036C27.3951 6.068 27.0591 6.12 26.7311 6.192C26.5151 6.24 26.3551 6.312 26.2511 6.408C26.1551 6.496 26.1071 6.656 26.1071 6.888C26.1471 8.312 26.1991 9.744 26.2631 11.184C26.3271 12.616 26.4111 14.048 26.5151 15.48C26.5391 15.84 26.6231 16.108 26.7671 16.284C26.9191 16.452 27.1631 16.544 27.4991 16.56C27.6671 16.568 27.8391 16.576 28.0151 16.584C28.1911 16.584 28.3631 16.592 28.5311 16.608C29.4111 16.656 30.0791 16.896 30.5351 17.328C30.9911 17.76 31.2111 18.336 31.1951 19.056C31.1951 19.664 31.0711 20.16 30.8231 20.544C30.5831 20.92 30.2391 21.188 29.7911 21.348C29.3431 21.508 28.8191 21.56 28.2191 21.504C28.1871 21.504 28.1551 21.5 28.1231 21.492C28.0991 21.484 28.0671 21.48 28.0271 21.48C28.2031 20.568 28.3071 19.876 28.3391 19.404C28.3791 18.932 28.3351 18.612 28.2071 18.444C28.0871 18.276 27.8751 18.192 27.5711 18.192C27.3871 18.192 27.2431 18.272 27.1391 18.432C27.0351 18.584 26.9511 18.888 26.8871 19.344C26.8231 19.792 26.7631 20.456 26.7071 21.336C26.4911 21.312 26.2751 21.284 26.0591 21.252C25.8431 21.228 25.6191 21.2 25.3871 21.168C25.3871 20.472 25.3511 19.952 25.2791 19.608C25.2071 19.256 25.1071 19.024 24.9791 18.912C24.8511 18.8 24.6991 18.744 24.5231 18.744C24.3471 18.744 24.1991 18.8 24.0791 18.912C23.9591 19.024 23.8791 19.24 23.8391 19.56C23.8071 19.872 23.8271 20.336 23.8991 20.952C23.7071 20.928 23.5151 20.9 23.3231 20.868C23.1311 20.828 22.9391 20.792 22.7471 20.76C22.1391 20.648 21.6471 20.428 21.2711 20.1C20.8951 19.772 20.7071 19.28 20.7071 18.624ZM37.1863 20.976C36.4103 20.976 35.7183 20.856 35.1103 20.616C34.5023 20.376 33.9863 20.064 33.5623 19.68C33.1383 19.288 32.8143 18.872 32.5903 18.432C32.3743 17.984 32.2663 17.56 32.2663 17.16C32.2663 16.88 32.3343 16.676 32.4703 16.548C32.6063 16.412 32.7703 16.344 32.9623 16.344C33.1783 16.344 33.3463 16.4 33.4663 16.512C33.5863 16.616 33.6983 16.8 33.8023 17.064C33.9063 17.312 34.0623 17.612 34.2703 17.964C34.4863 18.308 34.7863 18.612 35.1703 18.876C35.5543 19.14 36.0503 19.272 36.6583 19.272C37.1783 19.272 37.5943 19.116 37.9063 18.804C38.2263 18.484 38.3863 18.048 38.3863 17.496C38.3863 17.016 38.2863 16.604 38.0863 16.26C37.8863 15.916 37.6183 15.612 37.2823 15.348C36.9543 15.076 36.5903 14.812 36.1903 14.556C35.7983 14.3 35.4023 14.024 35.0023 13.728C34.6103 13.424 34.2463 13.068 33.9103 12.66C33.5823 12.252 33.3183 11.76 33.1183 11.184C32.9183 10.608 32.8183 9.912 32.8183 9.096C32.8183 8.136 33.0183 7.268 33.4183 6.492C33.8263 5.716 34.4263 5.1 35.2183 4.644C36.0183 4.188 37.0023 3.96 38.1703 3.96C38.7863 3.96 39.3343 4.02 39.8143 4.14C40.2943 4.26 40.7023 4.42 41.0383 4.62C41.3823 4.82 41.6423 5.04 41.8183 5.28C41.9943 5.52 42.0823 5.76 42.0823 6C42.0823 6.264 42.0223 6.476 41.9023 6.636C41.7823 6.788 41.5943 6.864 41.3383 6.864C41.1143 6.864 40.9063 6.804 40.7143 6.684C40.5223 6.564 40.3103 6.424 40.0783 6.264C39.8463 6.104 39.5583 5.964 39.2143 5.844C38.8783 5.724 38.4423 5.664 37.9063 5.664C36.9623 5.664 36.2423 5.904 35.7463 6.384C35.2503 6.856 35.0023 7.448 35.0023 8.16C35.0023 8.752 35.1463 9.228 35.4343 9.588C35.7223 9.948 36.1063 10.24 36.5863 10.464C37.0663 10.68 37.5903 10.876 38.1583 11.052C38.7263 11.22 39.2943 11.412 39.8623 11.628C40.4303 11.844 40.9543 12.124 41.4343 12.468C41.9143 12.812 42.2983 13.268 42.5863 13.836C42.8743 14.396 43.0183 15.12 43.0183 16.008C43.0183 16.888 42.8583 17.644 42.5383 18.276C42.2263 18.9 41.7983 19.412 41.2543 19.812C40.7103 20.212 40.0863 20.508 39.3823 20.7C38.6863 20.884 37.9543 20.976 37.1863 20.976ZM40.4263 18.456C40.9703 18.456 41.2423 18.192 41.2423 17.664C41.2423 17.456 41.1783 17.292 41.0503 17.172C40.9223 17.052 40.7383 16.992 40.4983 16.992C40.2503 16.992 40.0663 17.048 39.9463 17.16C39.8343 17.272 39.7783 17.456 39.7783 17.712C39.7783 17.96 39.8423 18.148 39.9703 18.276C40.1063 18.396 40.2583 18.456 40.4263 18.456ZM40.4983 15.936C40.7303 15.936 40.9223 15.86 41.0743 15.708C41.2343 15.556 41.3143 15.36 41.3143 15.12C41.3143 14.784 41.2343 14.536 41.0743 14.376C40.9223 14.216 40.7383 14.136 40.5223 14.136C40.1783 14.136 39.9223 14.208 39.7543 14.352C39.5943 14.488 39.5143 14.736 39.5143 15.096C39.5143 15.344 39.5983 15.548 39.7663 15.708C39.9343 15.86 40.1783 15.936 40.4983 15.936ZM38.3143 14.112C38.5783 14.112 38.7663 14.044 38.8783 13.908C38.9983 13.764 39.0583 13.568 39.0583 13.32C39.0583 13.152 38.9943 13.008 38.8663 12.888C38.7383 12.76 38.5703 12.696 38.3623 12.696C38.1463 12.696 37.9703 12.752 37.8343 12.864C37.7063 12.976 37.6423 13.136 37.6423 13.344C37.6423 13.584 37.6983 13.772 37.8103 13.908C37.9303 14.044 38.0983 14.112 38.3143 14.112ZM39.0343 9.6C38.6183 9.6 38.3023 9.496 38.0863 9.288C37.8703 9.08 37.7623 8.832 37.7623 8.544C37.7623 8.16 37.8583 7.856 38.0503 7.632C38.2503 7.408 38.5063 7.296 38.8183 7.296C39.2503 7.296 39.5663 7.396 39.7663 7.596C39.9663 7.796 40.0663 8.024 40.0663 8.28C40.0663 8.736 39.9743 9.072 39.7903 9.288C39.6143 9.496 39.3623 9.6 39.0343 9.6ZM39.4663 19.8L40.4743 19.104C41.0263 19.832 41.4383 20.408 41.7103 20.832C41.9903 21.248 42.1343 21.568 42.1423 21.792C42.1503 22.024 42.0343 22.216 41.7943 22.368C41.5623 22.512 41.3463 22.524 41.1463 22.404C40.9463 22.292 40.7143 22.024 40.4503 21.6C40.1943 21.176 39.8663 20.576 39.4663 19.8ZM37.5223 20.52L38.7703 20.304C38.9383 21.224 39.0463 21.92 39.0943 22.392C39.1423 22.864 39.1223 23.188 39.0343 23.364C38.9463 23.54 38.7863 23.648 38.5543 23.688C38.2743 23.736 38.0703 23.676 37.9423 23.508C37.8143 23.34 37.7223 23.016 37.6663 22.536C37.6183 22.064 37.5703 21.392 37.5223 20.52ZM35.2663 20.136L36.4663 20.592C36.2583 21.32 36.0783 21.884 35.9263 22.284C35.7743 22.684 35.6103 22.944 35.4343 23.064C35.2663 23.184 35.0503 23.192 34.7863 23.088C34.5543 23 34.4223 22.844 34.3903 22.62C34.3663 22.404 34.4303 22.096 34.5823 21.696C34.7343 21.296 34.9623 20.776 35.2663 20.136ZM34.4983 19.104C34.5143 19.088 34.5263 19.072 34.5343 19.056C34.5503 19.032 34.5623 19.016 34.5703 19.008C34.6423 18.912 34.7503 18.872 34.8943 18.888C35.0463 18.896 35.1863 18.944 35.3143 19.032C35.4503 19.104 35.5503 19.2 35.6143 19.32C35.6863 19.432 35.6903 19.544 35.6263 19.656C35.6183 19.68 35.6023 19.708 35.5783 19.74C35.5543 19.772 35.5303 19.8 35.5063 19.824C35.4183 19.944 35.3143 20.02 35.1943 20.052C35.0823 20.084 34.9703 20.08 34.8583 20.04C34.7463 20 34.6503 19.936 34.5703 19.848C34.5063 19.784 34.4543 19.712 34.4143 19.632C34.3823 19.544 34.3703 19.456 34.3783 19.368C34.3863 19.28 34.4263 19.192 34.4983 19.104ZM33.6103 18.216L34.4023 19.44C33.8503 19.968 33.4063 20.368 33.0703 20.64C32.7423 20.912 32.4783 21.06 32.2783 21.084C32.0783 21.116 31.8983 21.032 31.7383 20.832C31.5863 20.648 31.5463 20.448 31.6183 20.232C31.6983 20.016 31.8983 19.752 32.2183 19.44C32.5463 19.12 33.0103 18.712 33.6103 18.216ZM45.0103 19.44C45.0743 17.72 45.1423 16.008 45.2143 14.304C45.2943 12.6 45.3863 10.928 45.4903 9.288C45.4983 9.168 45.5023 9.048 45.5023 8.928C45.5103 8.808 45.5183 8.688 45.5263 8.568C45.5343 8.496 45.5383 8.424 45.5383 8.352C45.5463 8.272 45.5503 8.192 45.5503 8.112C45.5583 8.032 45.5623 7.952 45.5623 7.872C45.5703 7.712 45.5783 7.552 45.5863 7.392C45.6023 7.224 45.6143 7.064 45.6223 6.912C45.6383 6.768 45.6503 6.628 45.6583 6.492C45.6663 6.356 45.6743 6.216 45.6823 6.072C45.6903 5.976 45.6943 5.892 45.6943 5.82C45.7023 5.74 45.7103 5.664 45.7183 5.592C45.7263 5.512 45.7343 5.432 45.7423 5.352C45.7503 5.264 45.7583 5.184 45.7663 5.112C45.7743 5.032 45.7823 4.952 45.7903 4.872C45.8463 4.488 45.9503 4.184 46.1023 3.96C46.2623 3.736 46.5223 3.624 46.8823 3.624C47.2823 3.624 47.5623 3.768 47.7223 4.056C47.8903 4.336 47.9623 4.688 47.9383 5.112C47.8823 6.152 47.8023 7.156 47.6983 8.124C47.6023 9.084 47.5303 10.064 47.4823 11.064C47.4743 11.256 47.5223 11.42 47.6263 11.556C47.7303 11.684 47.9063 11.736 48.1543 11.712C48.9623 11.64 49.8023 11.54 50.6743 11.412C51.5463 11.284 52.3783 11.144 53.1703 10.992C53.4503 10.928 53.6423 10.844 53.7463 10.74C53.8503 10.636 53.9063 10.488 53.9143 10.296C53.9623 9.744 53.9943 9.184 54.0103 8.616C54.0263 8.04 54.0503 7.448 54.0823 6.84C54.1223 6.384 54.2463 6.012 54.4543 5.724C54.6703 5.428 54.9943 5.28 55.4263 5.28C55.8743 5.28 56.2023 5.444 56.4103 5.772C56.6263 6.092 56.7223 6.528 56.6983 7.08C56.6263 9.368 56.5383 11.692 56.4343 14.052C56.3303 16.412 56.2103 18.648 56.0743 20.76C56.0503 21.216 55.9423 21.58 55.7503 21.852C55.5583 22.132 55.2263 22.272 54.7543 22.272C54.2503 22.272 53.9063 22.104 53.7223 21.768C53.5463 21.432 53.5063 21.008 53.6023 20.496C53.7143 19.928 53.8463 19.368 53.9983 18.816C54.1503 18.256 54.2743 17.696 54.3703 17.136C54.4183 16.88 54.4103 16.696 54.3463 16.584C54.2823 16.472 54.1463 16.4 53.9383 16.368C53.8183 16.344 53.6983 16.324 53.5783 16.308C53.4583 16.292 53.3383 16.28 53.2183 16.272C53.2983 15.752 53.3543 15.264 53.3863 14.808C53.4263 14.352 53.4023 13.98 53.3143 13.692C53.2263 13.404 53.0343 13.256 52.7383 13.248C52.5463 13.24 52.3743 13.3 52.2223 13.428C52.0783 13.556 51.9503 13.824 51.8383 14.232C51.7343 14.632 51.6503 15.24 51.5863 16.056C51.3383 16.016 51.0823 15.984 50.8183 15.96C50.5543 15.928 50.2903 15.896 50.0263 15.864C49.9783 15.152 49.9143 14.6 49.8343 14.208C49.7623 13.808 49.6583 13.528 49.5223 13.368C49.3943 13.208 49.2263 13.128 49.0183 13.128C48.6583 13.128 48.4303 13.328 48.3343 13.728C48.2463 14.128 48.2983 14.792 48.4903 15.72C48.3703 15.704 48.2503 15.696 48.1303 15.696C48.0103 15.688 47.8903 15.68 47.7703 15.672C47.5703 15.656 47.4263 15.696 47.3383 15.792C47.2583 15.888 47.2183 16.04 47.2183 16.248C47.2343 16.776 47.2663 17.304 47.3143 17.832C47.3623 18.36 47.3863 18.896 47.3863 19.44C47.3863 19.76 47.2903 20.052 47.0983 20.316C46.9063 20.58 46.5863 20.712 46.1383 20.712C45.6983 20.712 45.3983 20.584 45.2383 20.328C45.0783 20.072 45.0023 19.776 45.0103 19.44ZM50.5783 9.576C50.1863 9.576 49.8783 9.44 49.6543 9.168C49.4383 8.896 49.3303 8.528 49.3303 8.064C49.3303 7.704 49.4543 7.42 49.7023 7.212C49.9583 6.996 50.3143 6.888 50.7703 6.888C51.1943 6.888 51.5063 7.012 51.7063 7.26C51.9143 7.508 52.0183 7.856 52.0183 8.304C52.0183 8.672 51.9023 8.976 51.6703 9.216C51.4383 9.456 51.0743 9.576 50.5783 9.576ZM55.3783 7.776C55.5703 7.776 55.7143 7.856 55.8103 8.016C55.9063 8.168 55.9543 8.4 55.9543 8.712C55.9543 9 55.8983 9.224 55.7863 9.384C55.6823 9.544 55.5223 9.624 55.3063 9.624C55.2263 9.624 55.1463 9.624 55.0663 9.624C54.9863 9.624 54.8983 9.624 54.8023 9.624C54.6103 9.624 54.4743 9.54 54.3943 9.372C54.3143 9.196 54.2743 8.984 54.2743 8.736C54.2743 8.408 54.3303 8.168 54.4423 8.016C54.5543 7.856 54.7303 7.776 54.9703 7.776C55.0423 7.776 55.1103 7.776 55.1743 7.776C55.2383 7.776 55.3063 7.776 55.3783 7.776ZM46.4023 20.424C45.9703 20.424 45.6663 20.332 45.4903 20.148C45.3143 19.964 45.2263 19.752 45.2263 19.512C45.2263 19.16 45.3103 18.884 45.4783 18.684C45.6463 18.484 45.8903 18.384 46.2103 18.384C46.5383 18.384 46.7943 18.488 46.9783 18.696C47.1703 18.896 47.2663 19.184 47.2663 19.56C47.2663 19.824 47.1863 20.036 47.0263 20.196C46.8663 20.348 46.6583 20.424 46.4023 20.424ZM46.8103 5.256C46.9703 5.256 47.0863 5.328 47.1583 5.472C47.2303 5.608 47.2663 5.76 47.2663 5.928C47.2663 6.104 47.2263 6.268 47.1463 6.42C47.0743 6.572 46.9543 6.656 46.7863 6.672C46.7303 6.672 46.6703 6.676 46.6063 6.684C46.5503 6.692 46.4903 6.696 46.4263 6.696C46.2743 6.704 46.1583 6.64 46.0783 6.504C46.0063 6.36 45.9703 6.2 45.9703 6.024C45.9703 5.84 46.0143 5.668 46.1023 5.508C46.1903 5.34 46.3223 5.256 46.4983 5.256C46.5463 5.256 46.5983 5.256 46.6543 5.256C46.7103 5.256 46.7623 5.256 46.8103 5.256ZM59.6959 19.176C59.6879 19.024 59.6799 18.856 59.6719 18.672C59.6719 18.48 59.6719 18.284 59.6719 18.084C59.6799 17.884 59.6879 17.696 59.6959 17.52C60.9919 17.624 61.8639 17.604 62.3119 17.46C62.7599 17.308 62.9839 17.064 62.9839 16.728C62.9839 16.296 62.7639 16.032 62.3239 15.936C61.8839 15.832 61.0319 15.824 59.7679 15.912C59.7839 15.632 59.7959 15.356 59.8039 15.084C59.8199 14.804 59.8399 14.528 59.8639 14.256C60.4239 14.312 60.8839 14.332 61.2439 14.316C61.6039 14.292 61.8719 14.216 62.0479 14.088C62.2239 13.952 62.3119 13.744 62.3119 13.464C62.3119 13.112 62.1359 12.876 61.7839 12.756C61.4319 12.628 60.8159 12.552 59.9359 12.528C59.9759 11.64 60.0319 10.692 60.1039 9.684C60.1839 8.676 60.2719 7.736 60.3679 6.864C60.4879 5.784 60.7959 5.008 61.2919 4.536C61.7879 4.056 62.4319 3.816 63.2239 3.816C63.9439 3.816 64.5039 4.004 64.9039 4.38C65.3119 4.756 65.6639 5.36 65.9599 6.192C66.2239 6.92 66.4999 7.724 66.7879 8.604C67.0759 9.476 67.3679 10.384 67.6639 11.328C67.9679 12.272 68.2679 13.208 68.5639 14.136C68.8679 15.056 69.1679 15.928 69.4639 16.752C69.5679 17.048 69.7199 17.228 69.9199 17.292C70.1199 17.356 70.2999 17.32 70.4599 17.184C70.6199 17.04 70.6959 16.808 70.6879 16.488C70.6719 15.344 70.6479 14.084 70.6159 12.708C70.5839 11.324 70.5559 9.916 70.5319 8.484C70.5159 7.044 70.5119 5.664 70.5199 4.344C70.5199 3.84 70.6159 3.464 70.8079 3.216C71.0079 2.96 71.3119 2.832 71.7199 2.832C72.1039 2.832 72.3879 2.968 72.5719 3.24C72.7559 3.512 72.8479 3.92 72.8479 4.464C72.8399 5.784 72.8119 7.156 72.7639 8.58C72.7239 10.004 72.6639 11.452 72.5839 12.924C72.5119 14.388 72.4239 15.848 72.3199 17.304C72.2639 18.144 72.0319 18.732 71.6239 19.068C71.2239 19.396 70.7279 19.56 70.1359 19.56C69.5519 19.56 69.0759 19.4 68.7079 19.08C68.3479 18.752 68.0479 18.288 67.8079 17.688C67.3599 16.584 66.9239 15.452 66.4999 14.292C66.0839 13.132 65.6679 11.984 65.2519 10.848C64.8439 9.712 64.4319 8.624 64.0159 7.584C63.9599 7.44 63.8919 7.336 63.8119 7.272C63.7399 7.208 63.6479 7.176 63.5359 7.176C63.3679 7.176 63.2319 7.248 63.1279 7.392C63.0319 7.528 63.0079 7.728 63.0559 7.992C63.2319 9.088 63.4319 10.204 63.6559 11.34C63.8799 12.476 64.1039 13.62 64.3279 14.772C64.5599 15.924 64.7679 17.072 64.9519 18.216C65.1199 19.296 64.9679 20.132 64.4959 20.724C64.0319 21.308 63.2959 21.6 62.2879 21.6C61.3919 21.6 60.7399 21.38 60.3319 20.94C59.9319 20.492 59.7199 19.904 59.6959 19.176ZM70.6879 5.76C70.9919 5.768 71.2959 5.784 71.5999 5.808C71.9119 5.824 72.2159 5.84 72.5119 5.856C73.1679 5.888 73.6439 5.936 73.9399 6C74.2439 6.064 74.4359 6.152 74.5159 6.264C74.6039 6.376 74.6479 6.52 74.6479 6.696C74.6479 6.872 74.5999 7.02 74.5039 7.14C74.4159 7.252 74.2159 7.34 73.9039 7.404C73.5919 7.46 73.1119 7.488 72.4639 7.488C72.1519 7.488 71.8439 7.488 71.5399 7.488C71.2359 7.488 70.9279 7.488 70.6159 7.488C69.9919 7.488 69.5159 7.452 69.1879 7.38C68.8599 7.3 68.6359 7.188 68.5159 7.044C68.3959 6.9 68.3359 6.728 68.3359 6.528C68.3359 6.336 68.3959 6.18 68.5159 6.06C68.6439 5.932 68.8759 5.844 69.2119 5.796C69.5559 5.74 70.0479 5.728 70.6879 5.76ZM70.5919 9.024C70.9039 9.024 71.2199 9.02 71.5399 9.012C71.8599 9.004 72.1759 9 72.4879 9C73.2319 8.984 73.7039 9.04 73.9039 9.168C74.1119 9.288 74.2159 9.488 74.2159 9.768C74.2159 10.104 74.1159 10.344 73.9159 10.488C73.7159 10.632 73.2559 10.704 72.5359 10.704C72.2479 10.704 71.9559 10.704 71.6599 10.704C71.3639 10.704 71.0719 10.704 70.7839 10.704C69.9119 10.704 69.3239 10.648 69.0199 10.536C68.7239 10.424 68.5759 10.2 68.5759 9.864C68.5759 9.6 68.7039 9.396 68.9599 9.252C69.2239 9.108 69.7679 9.032 70.5919 9.024ZM71.4559 11.28C71.4799 11.28 71.5039 11.28 71.5279 11.28C71.5519 11.28 71.5759 11.28 71.5999 11.28C71.7279 11.28 71.8319 11.32 71.9119 11.4C71.9919 11.48 72.0519 11.584 72.0919 11.712C72.1319 11.832 72.1519 11.96 72.1519 12.096C72.1519 12.232 72.1279 12.364 72.0799 12.492C72.0319 12.62 71.9639 12.728 71.8759 12.816C71.7879 12.896 71.6799 12.936 71.5519 12.936C71.5199 12.936 71.4879 12.936 71.4559 12.936C71.4319 12.936 71.3999 12.936 71.3599 12.936C71.1839 12.936 71.0519 12.856 70.9639 12.696C70.8759 12.536 70.8319 12.36 70.8319 12.168C70.8319 11.952 70.8839 11.752 70.9879 11.568C71.0999 11.376 71.2559 11.28 71.4559 11.28ZM61.9039 18.072C61.9999 18.072 62.0999 18.072 62.2039 18.072C62.3079 18.072 62.4079 18.072 62.5039 18.072C62.7199 18.072 62.8799 18.156 62.9839 18.324C63.0959 18.492 63.1519 18.68 63.1519 18.888C63.1519 19.128 63.0879 19.34 62.9599 19.524C62.8319 19.708 62.6399 19.808 62.3839 19.824C62.2799 19.824 62.1759 19.824 62.0719 19.824C61.9759 19.824 61.8719 19.824 61.7599 19.824C61.5199 19.824 61.3399 19.732 61.2199 19.548C61.0999 19.356 61.0399 19.152 61.0399 18.936C61.0399 18.68 61.1039 18.472 61.2319 18.312C61.3679 18.152 61.5919 18.072 61.9039 18.072ZM62.7439 19.584C62.4959 19.584 62.3039 19.516 62.1679 19.38C62.0399 19.244 61.9759 19.04 61.9759 18.768C61.9759 18.56 62.0479 18.392 62.1919 18.264C62.3439 18.136 62.5439 18.072 62.7919 18.072C62.9999 18.072 63.1679 18.136 63.2959 18.264C63.4239 18.384 63.4879 18.56 63.4879 18.792C63.4879 19.056 63.4159 19.256 63.2719 19.392C63.1359 19.52 62.9599 19.584 62.7439 19.584ZM81.9609 20.616C80.9849 20.616 80.1249 20.492 79.3809 20.244C78.6369 19.996 78.0089 19.628 77.4969 19.14C76.9929 18.644 76.6129 18.024 76.3569 17.28C76.1009 16.536 75.9729 15.668 75.9729 14.676C75.9729 14.276 76.0009 13.748 76.0569 13.092C76.1129 12.428 76.1849 11.696 76.2729 10.896C76.3689 10.096 76.4729 9.276 76.5849 8.436C76.6969 7.596 76.8049 6.796 76.9089 6.036C77.0209 5.268 77.1209 4.6 77.2089 4.032C77.2809 3.576 77.3809 3.24 77.5089 3.024C77.6449 2.8 77.8489 2.688 78.1209 2.688C78.3929 2.688 78.5889 2.804 78.7089 3.036C78.8289 3.26 78.8889 3.608 78.8889 4.08C78.8889 4.448 78.8729 4.976 78.8409 5.664C78.8169 6.344 78.7809 7.1 78.7329 7.932C78.6929 8.756 78.6529 9.584 78.6129 10.416C78.5729 11.248 78.5369 12.004 78.5049 12.684C78.4729 13.364 78.4569 13.888 78.4569 14.256C78.4489 15.24 78.5769 16.056 78.8409 16.704C79.1049 17.352 79.4929 17.836 80.0049 18.156C80.5169 18.468 81.1369 18.624 81.8649 18.624C82.4969 18.624 83.0169 18.484 83.4249 18.204C83.8329 17.924 84.1329 17.544 84.3249 17.064C84.5249 16.576 84.6249 16.028 84.6249 15.42C84.6249 14.812 84.5169 14.104 84.3009 13.296C84.0929 12.48 83.8489 11.648 83.5689 10.8C83.2889 9.944 83.0409 9.144 82.8249 8.4C82.6169 7.648 82.5129 7.032 82.5129 6.552C82.5129 5.696 82.7769 4.992 83.3049 4.44C83.8409 3.88 84.6209 3.6 85.6449 3.6C86.8129 3.6 87.6049 3.924 88.0209 4.572C88.4449 5.22 88.6569 6.12 88.6569 7.272C88.6569 7.72 88.6489 8.164 88.6329 8.604C88.6249 9.044 88.6089 9.488 88.5849 9.936C88.5609 10.376 88.5289 10.82 88.4889 11.268C88.4569 11.716 88.4209 12.168 88.3809 12.624C88.3409 13.08 88.2969 13.544 88.2489 14.016C88.1209 15.264 87.8329 16.388 87.3849 17.388C86.9369 18.38 86.2729 19.168 85.3929 19.752C84.5209 20.328 83.3769 20.616 81.9609 20.616ZM81.6969 16.512C81.3609 16.512 81.0809 16.416 80.8569 16.224C80.6409 16.032 80.5329 15.748 80.5329 15.372C80.5329 14.98 80.6729 14.68 80.9529 14.472C81.2329 14.264 81.5449 14.16 81.8889 14.16C82.2089 14.16 82.4889 14.268 82.7289 14.484C82.9689 14.7 83.0889 14.992 83.0889 15.36C83.0889 15.712 82.9489 15.992 82.6689 16.2C82.3969 16.408 82.0729 16.512 81.6969 16.512ZM79.5849 4.416C80.2329 4.4 80.6809 4.444 80.9289 4.548C81.1849 4.652 81.3129 4.872 81.3129 5.208C81.3129 5.52 81.2049 5.736 80.9889 5.856C80.7729 5.976 80.3049 6.072 79.5849 6.144C79.1769 6.176 78.6889 6.208 78.1209 6.24C77.5529 6.272 77.0649 6.296 76.6569 6.312C75.9849 6.32 75.5049 6.268 75.2169 6.156C74.9289 6.036 74.7849 5.808 74.7849 5.472C74.7849 5.16 74.9249 4.944 75.2049 4.824C75.4929 4.704 75.9529 4.616 76.5849 4.56C77.0089 4.52 77.5089 4.488 78.0849 4.464C78.6689 4.44 79.1689 4.424 79.5849 4.416ZM78.6249 8.88C79.4649 8.904 80.1049 8.948 80.5449 9.012C80.9929 9.068 81.3009 9.16 81.4689 9.288C81.6369 9.416 81.7209 9.592 81.7209 9.816C81.7209 10.088 81.6409 10.292 81.4809 10.428C81.3209 10.556 81.0089 10.64 80.5449 10.68C80.0889 10.72 79.4089 10.736 78.5049 10.728C78.3289 10.728 78.1409 10.724 77.9409 10.716C77.7409 10.7 77.5689 10.68 77.4249 10.656C77.1049 10.608 76.8769 10.524 76.7409 10.404C76.6049 10.284 76.5369 10.088 76.5369 9.816C76.5369 9.48 76.6129 9.24 76.7649 9.096C76.9169 8.952 77.1529 8.88 77.4729 8.88C77.6649 8.88 77.8609 8.88 78.0609 8.88C78.2689 8.88 78.4569 8.88 78.6249 8.88ZM85.9929 4.08C86.1769 4.064 86.3169 4.132 86.4129 4.284C86.5169 4.436 86.5689 4.608 86.5689 4.8C86.5689 4.976 86.5209 5.14 86.4249 5.292C86.3289 5.444 86.1769 5.52 85.9689 5.52C85.9449 5.52 85.9169 5.52 85.8849 5.52C85.8529 5.52 85.8249 5.52 85.8009 5.52C85.5609 5.52 85.3769 5.436 85.2489 5.268C85.1209 5.1 85.0569 4.92 85.0569 4.728C85.0569 4.568 85.1049 4.424 85.2009 4.296C85.3049 4.16 85.4649 4.088 85.6809 4.08C85.7289 4.08 85.7809 4.08 85.8369 4.08C85.8929 4.08 85.9449 4.08 85.9929 4.08ZM86.0409 11.016C86.4169 11.016 86.6889 10.932 86.8569 10.764C87.0329 10.596 87.1209 10.376 87.1209 10.104C87.1209 9.728 87.0249 9.444 86.8329 9.252C86.6489 9.052 86.4249 8.952 86.1609 8.952C85.7769 8.952 85.4969 9.044 85.3209 9.228C85.1449 9.412 85.0569 9.624 85.0569 9.864C85.0569 10.272 85.1409 10.568 85.3089 10.752C85.4769 10.928 85.7209 11.016 86.0409 11.016ZM85.5609 8.016C85.9689 8.016 86.2809 7.916 86.4969 7.716C86.7209 7.516 86.8329 7.248 86.8329 6.912C86.8329 6.528 86.7249 6.224 86.5089 6C86.3009 5.776 86.0089 5.664 85.6329 5.664C85.2729 5.664 84.9889 5.76 84.7809 5.952C84.5809 6.136 84.4809 6.408 84.4809 6.768C84.4809 7.128 84.5929 7.428 84.8169 7.668C85.0409 7.9 85.2889 8.016 85.5609 8.016ZM86.4969 13.92C86.7529 13.92 86.9529 13.84 87.0969 13.68C87.2409 13.512 87.3129 13.328 87.3129 13.128C87.3129 12.792 87.2409 12.556 87.0969 12.42C86.9529 12.284 86.7529 12.216 86.4969 12.216C86.2329 12.216 86.0169 12.284 85.8489 12.42C85.6889 12.556 85.6089 12.776 85.6089 13.08C85.6089 13.344 85.6809 13.552 85.8249 13.704C85.9769 13.848 86.2009 13.92 86.4969 13.92ZM94.7833 21.408C93.9033 21.408 93.1193 21.284 92.4313 21.036C91.7433 20.788 91.2033 20.412 90.8113 19.908C90.4193 19.404 90.2233 18.768 90.2233 18C90.2233 17.56 90.2993 17.136 90.4513 16.728C90.6113 16.32 90.8513 15.988 91.1713 15.732C91.4993 15.468 91.9113 15.336 92.4073 15.336C92.6793 15.336 92.9353 15.36 93.1753 15.408C93.4233 15.456 93.6953 15.504 93.9913 15.552C94.2873 15.6 94.6473 15.624 95.0713 15.624C96.1673 15.624 96.9193 15.396 97.3273 14.94C97.7433 14.484 97.9193 13.8 97.8553 12.888C97.7993 11.88 97.7153 10.86 97.6033 9.828C97.4913 8.788 97.3753 7.824 97.2553 6.936C97.1993 6.44 97.0833 6.116 96.9073 5.964C96.7393 5.812 96.4313 5.736 95.9833 5.736C95.4553 5.736 94.9353 5.756 94.4233 5.796C93.9113 5.836 93.4313 5.856 92.9833 5.856C92.3513 5.856 91.8913 5.772 91.6033 5.604C91.3233 5.428 91.1833 5.144 91.1833 4.752C91.1833 4.376 91.3273 4.1 91.6153 3.924C91.9113 3.74 92.3513 3.656 92.9353 3.672C93.5593 3.68 94.2833 3.716 95.1073 3.78C95.9393 3.836 96.7193 3.912 97.4473 4.008C97.9673 4.064 98.3473 4.268 98.5873 4.62C98.8273 4.964 99.0073 5.568 99.1273 6.432C99.2153 7.048 99.3113 7.788 99.4153 8.652C99.5193 9.508 99.6153 10.384 99.7033 11.28C99.7993 12.168 99.8793 12.98 99.9433 13.716C100.007 14.444 100.039 14.992 100.039 15.36C100.039 16.64 99.8353 17.732 99.4273 18.636C99.0193 19.54 98.4233 20.228 97.6393 20.7C96.8553 21.172 95.9033 21.408 94.7833 21.408ZM100.303 7.704C99.1513 7.952 97.9233 8.2 96.6193 8.448C95.3153 8.696 94.0073 8.936 92.6953 9.168C92.0953 9.272 91.6113 9.28 91.2433 9.192C90.8833 9.096 90.7033 8.816 90.7033 8.352C90.7033 8.072 90.8353 7.848 91.0993 7.68C91.3633 7.504 91.7513 7.376 92.2633 7.296C93.5593 7.088 94.8713 6.892 96.1993 6.708C97.5273 6.516 98.8073 6.344 100.039 6.192C100.607 6.12 101.007 6.132 101.239 6.228C101.479 6.316 101.599 6.512 101.599 6.816C101.599 7.04 101.507 7.216 101.323 7.344C101.147 7.472 100.807 7.592 100.303 7.704ZM99.1273 9.12C99.9113 9.056 100.491 9.044 100.867 9.084C101.243 9.116 101.487 9.192 101.599 9.312C101.711 9.432 101.767 9.592 101.767 9.792C101.767 10.032 101.699 10.216 101.563 10.344C101.427 10.464 101.171 10.548 100.795 10.596C100.427 10.636 99.8873 10.656 99.1753 10.656L99.1273 9.12ZM94.8073 13.488C94.2793 13.488 93.8833 13.364 93.6193 13.116C93.3553 12.868 93.2233 12.488 93.2233 11.976C93.2233 11.616 93.3433 11.316 93.5833 11.076C93.8313 10.828 94.1833 10.704 94.6393 10.704C95.0713 10.704 95.4073 10.844 95.6473 11.124C95.8873 11.404 96.0073 11.768 96.0073 12.216C96.0073 12.608 95.8993 12.92 95.6833 13.152C95.4753 13.376 95.1833 13.488 94.8073 13.488ZM92.3353 18.864C92.6233 18.864 92.8313 18.796 92.9593 18.66C93.0873 18.524 93.1513 18.32 93.1513 18.048C93.1513 17.84 93.0793 17.676 92.9353 17.556C92.7993 17.436 92.5993 17.376 92.3353 17.376C92.1433 17.376 91.9833 17.44 91.8553 17.568C91.7273 17.696 91.6633 17.864 91.6633 18.072C91.6633 18.336 91.7313 18.536 91.8673 18.672C92.0033 18.8 92.1593 18.864 92.3353 18.864ZM94.8073 19.512C95.1673 19.512 95.4233 19.428 95.5753 19.26C95.7353 19.092 95.8153 18.824 95.8153 18.456C95.8153 18.224 95.7273 18.036 95.5513 17.892C95.3833 17.74 95.1673 17.664 94.9033 17.664C94.2793 17.664 93.9673 17.992 93.9673 18.648C93.9673 18.912 94.0513 19.124 94.2193 19.284C94.3873 19.436 94.5833 19.512 94.8073 19.512ZM97.4713 18.744C97.7273 18.744 97.9113 18.668 98.0233 18.516C98.1353 18.356 98.1913 18.12 98.1913 17.808C98.1913 17.592 98.1193 17.428 97.9753 17.316C97.8313 17.196 97.6633 17.136 97.4713 17.136C97.1833 17.136 96.9633 17.208 96.8113 17.352C96.6593 17.488 96.5833 17.672 96.5833 17.904C96.5833 18.168 96.6633 18.376 96.8233 18.528C96.9913 18.672 97.2073 18.744 97.4713 18.744ZM108.594 10.392C108.562 10.392 108.522 10.392 108.474 10.392C108.434 10.392 108.394 10.392 108.354 10.392C108.202 10.392 108.082 10.344 107.994 10.248C107.914 10.144 107.874 10.032 107.874 9.912C107.874 9.776 107.918 9.656 108.006 9.552C108.102 9.44 108.234 9.384 108.402 9.384C108.45 9.384 108.494 9.384 108.534 9.384C108.574 9.384 108.618 9.384 108.666 9.384C108.802 9.384 108.898 9.436 108.954 9.54C109.018 9.636 109.05 9.744 109.05 9.864C109.05 9.992 109.014 10.112 108.942 10.224C108.87 10.336 108.754 10.392 108.594 10.392ZM108.522 6.84C108.498 6.84 108.466 6.84 108.426 6.84C108.394 6.84 108.346 6.84 108.282 6.84C108.162 6.84 108.066 6.8 107.994 6.72C107.93 6.632 107.898 6.528 107.898 6.408C107.898 6.296 107.922 6.2 107.97 6.12C108.026 6.04 108.114 6 108.234 6C108.282 6 108.33 6 108.378 6C108.426 6 108.474 6 108.522 6C108.634 6 108.722 6.044 108.786 6.132C108.85 6.22 108.882 6.32 108.882 6.432C108.882 6.528 108.854 6.62 108.798 6.708C108.75 6.796 108.658 6.84 108.522 6.84ZM103.698 14.808C104.154 14.808 104.494 14.928 104.718 15.168C104.95 15.4 105.066 15.72 105.066 16.128C105.066 16.52 104.962 16.848 104.754 17.112C104.546 17.368 104.274 17.496 103.938 17.496C103.402 17.496 103.006 17.384 102.75 17.16C102.502 16.928 102.378 16.632 102.378 16.272C102.378 15.816 102.486 15.46 102.702 15.204C102.926 14.94 103.258 14.808 103.698 14.808ZM102.402 20.256C102.402 19.992 102.522 19.772 102.762 19.596C103.002 19.42 103.314 19.28 103.698 19.176C103.986 19.088 104.354 19.004 104.802 18.924C105.258 18.836 105.738 18.72 106.242 18.576C106.458 18.512 106.602 18.392 106.674 18.216C106.746 18.04 106.762 17.832 106.722 17.592C106.602 16.728 106.478 15.868 106.35 15.012C106.23 14.156 106.098 13.296 105.954 12.432C106.69 12.36 107.19 12.244 107.454 12.084C107.718 11.924 107.85 11.712 107.85 11.448C107.85 11.144 107.698 10.956 107.394 10.884C107.09 10.812 106.53 10.832 105.714 10.944C105.682 10.728 105.642 10.504 105.594 10.272C105.554 10.04 105.514 9.816 105.474 9.6C106.138 9.568 106.634 9.516 106.962 9.444C107.298 9.364 107.522 9.264 107.634 9.144C107.746 9.024 107.802 8.88 107.802 8.712C107.802 8.408 107.634 8.208 107.298 8.112C106.97 8.016 106.266 8.016 105.186 8.112C105.162 7.968 105.134 7.824 105.102 7.68C105.07 7.536 105.042 7.392 105.018 7.248C104.97 6.992 104.894 6.788 104.79 6.636C104.694 6.484 104.562 6.392 104.394 6.36C104.218 6.32 104.05 6.292 103.89 6.276C103.738 6.252 103.578 6.224 103.41 6.192C103.122 6.12 102.878 6.024 102.678 5.904C102.478 5.776 102.378 5.576 102.378 5.304C102.378 4.952 102.506 4.724 102.762 4.62C103.026 4.516 103.354 4.464 103.746 4.464C105.01 4.472 106.254 4.504 107.478 4.56C108.71 4.616 109.95 4.688 111.198 4.776C111.678 4.808 112.038 4.912 112.278 5.088C112.518 5.264 112.638 5.552 112.638 5.952C112.638 6.432 112.522 6.74 112.29 6.876C112.066 7.012 111.826 7.08 111.57 7.08C111.354 7.08 111.154 7.072 110.97 7.056C110.794 7.032 110.586 7.016 110.346 7.008C110.106 7 109.934 7.048 109.83 7.152C109.734 7.256 109.666 7.448 109.626 7.728C109.41 9.392 109.218 11.052 109.05 12.708C108.89 14.356 108.754 15.968 108.642 17.544C108.618 17.808 108.67 18.008 108.798 18.144C108.926 18.272 109.09 18.368 109.29 18.432C109.554 18.512 109.862 18.588 110.214 18.66C110.574 18.732 110.914 18.816 111.234 18.912C111.618 19.016 111.918 19.148 112.134 19.308C112.35 19.468 112.458 19.664 112.458 19.896C112.458 20.08 112.402 20.228 112.29 20.34C112.186 20.452 112.022 20.54 111.798 20.604C111.582 20.66 111.306 20.704 110.97 20.736C110.81 20.744 110.57 20.76 110.25 20.784C109.938 20.8 109.578 20.82 109.17 20.844C109.082 20.844 108.986 20.848 108.882 20.856C108.786 20.864 108.686 20.872 108.582 20.88C108.486 20.88 108.386 20.884 108.282 20.892C108.186 20.892 108.086 20.896 107.982 20.904C107.886 20.904 107.79 20.908 107.694 20.916C107.598 20.916 107.498 20.92 107.394 20.928C107.194 20.936 106.994 20.944 106.794 20.952C106.594 20.96 106.398 20.968 106.206 20.976C106.134 20.976 106.058 20.98 105.978 20.988C105.906 20.988 105.83 20.992 105.75 21C105.678 21 105.606 21.004 105.534 21.012C105.446 21.012 105.358 21.012 105.27 21.012C105.19 21.02 105.11 21.024 105.03 21.024C104.95 21.024 104.87 21.028 104.79 21.036C104.566 21.044 104.362 21.048 104.178 21.048C104.002 21.056 103.85 21.064 103.722 21.072C103.266 21.08 102.93 21.02 102.714 20.892C102.506 20.764 102.402 20.552 102.402 20.256ZM118.801 20.808C118.393 20.808 118.009 20.756 117.649 20.652C117.289 20.54 117.001 20.376 116.785 20.16C116.657 20.032 116.549 19.892 116.461 19.74C116.381 19.58 116.317 19.412 116.269 19.236C116.229 19.052 116.197 18.864 116.173 18.672C116.157 18.48 116.153 18.288 116.161 18.096C117.361 18.392 118.245 18.516 118.813 18.468C119.381 18.412 119.665 18.168 119.665 17.736C119.665 17.384 119.425 17.144 118.945 17.016C118.465 16.888 117.577 16.784 116.281 16.704C116.297 16.512 116.313 16.288 116.329 16.032C116.353 15.776 116.377 15.552 116.401 15.36C117.153 15.384 117.749 15.38 118.189 15.348C118.629 15.308 118.941 15.22 119.125 15.084C119.317 14.94 119.409 14.728 119.401 14.448C119.393 14.216 119.289 14.048 119.089 13.944C118.889 13.832 118.581 13.768 118.165 13.752C117.757 13.736 117.233 13.752 116.593 13.8C116.753 12.672 116.901 11.624 117.037 10.656C117.173 9.68 117.313 8.736 117.457 7.824C117.529 7.408 117.469 7.136 117.277 7.008C117.085 6.88 116.817 6.832 116.473 6.864C116.129 6.896 115.753 6.952 115.345 7.032C114.945 7.112 114.561 7.156 114.193 7.164C113.833 7.172 113.533 7.088 113.293 6.912C113.061 6.728 112.945 6.392 112.945 5.904C112.945 5.64 113.009 5.424 113.137 5.256C113.273 5.088 113.469 4.96 113.725 4.872C113.989 4.776 114.305 4.704 114.673 4.656C114.761 4.64 114.857 4.628 114.961 4.62C115.065 4.604 115.173 4.592 115.285 4.584C115.445 4.568 115.585 4.552 115.705 4.536C115.833 4.512 115.949 4.496 116.053 4.488C116.349 4.448 116.629 4.412 116.893 4.38C117.165 4.348 117.461 4.312 117.781 4.272C117.837 4.264 117.893 4.256 117.949 4.248C118.013 4.24 118.077 4.232 118.141 4.224C118.213 4.216 118.281 4.208 118.345 4.2C118.417 4.192 118.485 4.184 118.549 4.176C118.621 4.168 118.685 4.16 118.741 4.152C118.805 4.144 118.857 4.14 118.897 4.14C119.777 4.036 120.549 3.956 121.213 3.9C121.885 3.836 122.441 3.816 122.881 3.84C123.329 3.864 123.665 3.944 123.889 4.08C124.113 4.216 124.225 4.432 124.225 4.728C124.225 5.024 124.097 5.256 123.841 5.424C123.593 5.584 123.269 5.708 122.869 5.796C122.477 5.884 122.065 5.96 121.633 6.024C121.201 6.088 120.801 6.172 120.433 6.276C120.065 6.372 119.781 6.512 119.581 6.696C119.381 6.88 119.321 7.136 119.401 7.464C119.761 8.936 120.109 10.252 120.445 11.412C120.781 12.572 121.073 13.604 121.321 14.508C121.569 15.404 121.741 16.196 121.837 16.884C121.941 17.564 121.933 18.164 121.813 18.684C121.701 19.196 121.449 19.648 121.057 20.04C120.793 20.304 120.457 20.5 120.049 20.628C119.649 20.748 119.233 20.808 118.801 20.808ZM118.345 6.024C118.153 6.024 118.001 5.976 117.889 5.88C117.777 5.784 117.721 5.648 117.721 5.472C117.721 5.288 117.773 5.144 117.877 5.04C117.989 4.928 118.129 4.872 118.297 4.872C118.481 4.872 118.621 4.924 118.717 5.028C118.821 5.124 118.873 5.24 118.873 5.376C118.873 5.576 118.821 5.736 118.717 5.856C118.613 5.968 118.489 6.024 118.345 6.024ZM119.545 20.352L119.689 18.528C119.953 18.56 120.169 18.604 120.337 18.66C120.513 18.716 120.641 18.8 120.721 18.912C120.809 19.016 120.853 19.168 120.853 19.368C120.853 19.68 120.805 19.908 120.709 20.052C120.613 20.196 120.469 20.288 120.277 20.328C120.085 20.36 119.841 20.368 119.545 20.352ZM119.713 10.584L119.281 12.168C119.049 12.104 118.861 12.04 118.717 11.976C118.573 11.912 118.469 11.832 118.405 11.736C118.341 11.64 118.309 11.524 118.309 11.388C118.309 11.06 118.365 10.832 118.477 10.704C118.589 10.576 118.749 10.512 118.957 10.512C119.165 10.504 119.417 10.528 119.713 10.584ZM125.976 19.344C125.976 19.304 125.976 19.268 125.976 19.236C125.976 19.196 125.976 19.16 125.976 19.128C127 19.176 127.676 19.124 128.004 18.972C128.332 18.812 128.496 18.6 128.496 18.336C128.496 18.168 128.432 18.028 128.304 17.916C128.176 17.804 127.924 17.728 127.548 17.688C127.18 17.64 126.632 17.64 125.904 17.688C125.896 17.448 125.884 17.204 125.868 16.956C125.86 16.708 125.856 16.464 125.856 16.224C126.616 16.208 127.152 16.152 127.464 16.056C127.776 15.96 127.936 15.776 127.944 15.504C127.952 15.304 127.896 15.14 127.776 15.012C127.664 14.884 127.448 14.788 127.128 14.724C126.816 14.652 126.368 14.608 125.784 14.592C125.736 13.152 125.704 11.708 125.688 10.26C125.672 8.812 125.656 7.368 125.64 5.928C125.64 5.216 125.78 4.712 126.06 4.416C126.34 4.112 126.712 3.96 127.176 3.96C127.704 3.96 128.072 4.128 128.28 4.464C128.496 4.8 128.584 5.288 128.544 5.928C128.488 6.936 128.404 7.936 128.292 8.928C128.188 9.92 128.104 10.928 128.04 11.952C128.016 12.272 128.048 12.496 128.136 12.624C128.224 12.752 128.368 12.816 128.568 12.816C129.48 12.84 130.384 12.844 131.28 12.828C132.176 12.804 133.056 12.768 133.92 12.72C134.176 12.704 134.36 12.632 134.472 12.504C134.592 12.368 134.64 12.176 134.616 11.928C134.536 10.92 134.428 9.892 134.292 8.844C134.164 7.796 134.056 6.744 133.968 5.688C133.936 5.264 133.992 4.916 134.136 4.644C134.28 4.364 134.568 4.224 135 4.224C135.4 4.224 135.676 4.352 135.828 4.608C135.98 4.864 136.072 5.192 136.104 5.592C136.312 7.896 136.496 10.196 136.656 12.492C136.816 14.788 136.96 17.088 137.088 19.392C137.112 19.856 137.032 20.216 136.848 20.472C136.664 20.728 136.344 20.856 135.888 20.856C135.408 20.856 135.092 20.724 134.94 20.46C134.788 20.196 134.704 19.76 134.688 19.152C134.68 18.464 134.692 17.792 134.724 17.136C134.764 16.472 134.776 15.848 134.76 15.264C134.76 15 134.704 14.812 134.592 14.7C134.488 14.58 134.32 14.52 134.088 14.52C133.984 14.52 133.88 14.52 133.776 14.52C133.68 14.512 133.576 14.508 133.464 14.508C133.416 14.508 133.368 14.508 133.32 14.508C133.272 14.508 133.224 14.508 133.176 14.508C133.136 14.508 133.096 14.508 133.056 14.508C133.008 14.508 132.964 14.508 132.924 14.508C132.884 14.508 132.844 14.508 132.804 14.508C132.764 14.508 132.712 14.508 132.648 14.508C132.52 14.508 132.38 14.512 132.228 14.52C132.084 14.52 131.96 14.524 131.856 14.532C131.808 14.532 131.756 14.536 131.7 14.544C131.652 14.544 131.604 14.548 131.556 14.556C131.508 14.556 131.456 14.56 131.4 14.568C131.32 14.576 131.236 14.584 131.148 14.592C131.068 14.592 130.984 14.6 130.896 14.616C130.84 14.624 130.784 14.632 130.728 14.64C130.68 14.64 130.632 14.644 130.584 14.652C130.368 14.676 130.2 14.74 130.08 14.844C129.96 14.94 129.912 15.128 129.936 15.408C129.976 15.944 130.032 16.512 130.104 17.112C130.184 17.712 130.24 18.344 130.272 19.008C130.32 19.784 130.172 20.396 129.828 20.844C129.484 21.284 128.896 21.504 128.064 21.504C127.312 21.504 126.78 21.292 126.468 20.868C126.164 20.436 126 19.928 125.976 19.344ZM129.336 14.448C129.256 14.448 129.192 14.424 129.144 14.376C129.096 14.32 129.072 14.264 129.072 14.208C129.072 14.144 129.096 14.092 129.144 14.052C129.192 14.012 129.256 13.992 129.336 13.992C129.4 13.992 129.448 14.016 129.48 14.064C129.512 14.104 129.528 14.16 129.528 14.232C129.528 14.288 129.512 14.34 129.48 14.388C129.448 14.428 129.4 14.448 129.336 14.448ZM130.512 8.976C130.96 9 131.284 9.072 131.484 9.192C131.684 9.304 131.784 9.48 131.784 9.72C131.784 9.984 131.68 10.18 131.472 10.308C131.264 10.436 130.968 10.512 130.584 10.536C130.024 10.584 129.508 10.616 129.036 10.632C128.564 10.648 128.104 10.664 127.656 10.68C127.12 10.688 126.752 10.604 126.552 10.428C126.36 10.252 126.264 10.056 126.264 9.84C126.264 9.608 126.36 9.404 126.552 9.228C126.752 9.052 127.12 8.96 127.656 8.952C128.088 8.936 128.544 8.932 129.024 8.94C129.512 8.94 130.008 8.952 130.512 8.976ZM135.744 20.76C135.472 20.76 135.252 20.672 135.084 20.496C134.916 20.312 134.832 20.096 134.832 19.848C134.832 19.592 134.904 19.384 135.048 19.224C135.2 19.064 135.384 18.984 135.6 18.984C135.936 18.984 136.188 19.064 136.356 19.224C136.524 19.376 136.608 19.584 136.608 19.848C136.608 20.136 136.52 20.36 136.344 20.52C136.176 20.68 135.976 20.76 135.744 20.76ZM136.944 6.048C137.464 6.08 137.824 6.168 138.024 6.312C138.232 6.456 138.336 6.656 138.336 6.912C138.336 7.2 138.212 7.392 137.964 7.488C137.716 7.584 137.344 7.632 136.848 7.632C136.168 7.632 135.48 7.628 134.784 7.62C134.096 7.604 133.408 7.584 132.72 7.56C132.208 7.536 131.824 7.456 131.568 7.32C131.312 7.176 131.184 6.944 131.184 6.624C131.184 6.272 131.32 6.036 131.592 5.916C131.872 5.788 132.232 5.736 132.672 5.76C133.44 5.792 134.172 5.832 134.868 5.88C135.572 5.928 136.264 5.984 136.944 6.048Z" fill="#3B82F6"/>
</g>
<defs>
<clipPath id="clip0_4_6">
<rect width="144" height="24" fill="white"/>
</clipPath>
</defs>
</svg>
