<svg width="355" height="57" viewBox="0 0 355 57" fill="none" xmlns="http://www.w3.org/2000/svg">
<path d="M21.696 50.24C19.52 50.24 17.6853 49.6853 16.192 48.576C14.72 47.4667 13.376 45.312 12.16 42.112C11.1147 39.424 10.0693 36.672 9.024 33.856C8 31.0187 6.976 28.1813 5.952 25.344C8.55467 24.896 10.3253 24.4053 11.264 23.872C12.2027 23.3173 12.672 22.6773 12.672 21.952C12.672 20.928 12.0107 20.32 10.688 20.128C9.36533 19.9147 7.33867 20.3733 4.608 21.504C4.33067 20.8213 4.064 20.1173 3.808 19.392C3.552 18.6667 3.33867 17.984 3.168 17.344C6.02667 16.832 7.92533 16.32 8.864 15.808C9.824 15.2747 10.304 14.6133 10.304 13.824C10.304 13.056 9.97333 12.5333 9.312 12.256C8.672 11.9573 7.72267 11.9147 6.464 12.128C5.22667 12.3413 3.69067 12.8213 1.856 13.568C1.83467 13.5253 1.81333 13.4827 1.792 13.44C1.77067 13.376 1.73867 13.312 1.696 13.248C1.67467 13.184 1.65333 13.12 1.632 13.056C1.61067 12.992 1.58933 12.928 1.568 12.864C0.522667 9.792 0.650667 7.34933 1.952 5.536C3.25333 3.72267 5.44 2.816 8.512 2.816C10.176 2.816 11.5413 3.30666 12.608 4.288C13.696 5.26933 14.4 6.784 14.72 8.832C15.6587 15.168 16.416 20.9493 16.992 26.176C17.568 31.3813 18.2187 36.5013 18.944 41.536C19.136 42.88 19.488 43.8187 20 44.352C20.512 44.864 21.184 45.12 22.016 45.12C22.976 45.12 23.6907 44.704 24.16 43.872C24.6507 43.04 25.024 41.92 25.28 40.512C26.304 35.1573 27.264 29.76 28.16 24.32C29.056 18.8587 29.9947 13.4613 30.976 8.128C31.2107 6.912 31.5947 5.97333 32.128 5.312C32.6613 4.62933 33.3867 4.288 34.304 4.288C35.648 4.288 36.4907 4.768 36.832 5.728C37.1947 6.688 37.2267 7.89333 36.928 9.344C36.2027 13.0133 35.4453 16.736 34.656 20.512C33.888 24.2667 33.088 28.032 32.256 31.808C32.2133 31.9787 32.1707 32.16 32.128 32.352C32.0853 32.5227 32.0427 32.704 32 32.896C31.9573 33.0667 31.9147 33.2373 31.872 33.408C31.7867 33.792 31.6907 34.176 31.584 34.56C31.4987 34.944 31.4027 35.3493 31.296 35.776C31.2107 36.1813 31.1147 36.5973 31.008 37.024C30.9227 37.4293 30.8267 37.8453 30.72 38.272C30.6773 38.4427 30.6347 38.6133 30.592 38.784C30.5493 38.9333 30.5067 39.0933 30.464 39.264C30.4213 39.4133 30.3787 39.5733 30.336 39.744C30.272 40.064 30.1973 40.384 30.112 40.704C30.0267 41.024 29.952 41.344 29.888 41.664C29.824 41.92 29.76 42.176 29.696 42.432C29.632 42.688 29.568 42.944 29.504 43.2C29.1413 44.672 28.64 45.9307 28 46.976C27.3813 48.0213 26.56 48.8213 25.536 49.376C24.512 49.952 23.232 50.24 21.696 50.24ZM22.592 16.704C21.6107 16.704 20.7573 16.32 20.032 15.552C19.3067 14.784 18.944 13.824 18.944 12.672C18.944 11.4133 19.328 10.3893 20.096 9.6C20.8853 8.78933 21.76 8.384 22.72 8.384C24.192 8.384 25.312 8.77866 26.08 9.568C26.8693 10.3573 27.264 11.392 27.264 12.672C27.264 14.016 26.9013 15.0293 26.176 15.712C25.4507 16.3733 24.256 16.704 22.592 16.704ZM34.752 24.512C36.224 24.448 37.3013 24.5333 37.984 24.768C38.688 25.0027 39.04 25.5573 39.04 26.432C39.04 27.072 38.8907 27.552 38.592 27.872C38.2933 28.1707 37.8027 28.3947 37.12 28.544C36.4373 28.6933 35.52 28.8427 34.368 28.992C33.0667 29.1413 31.7547 29.2693 30.432 29.376C29.1307 29.4827 27.8187 29.568 26.496 29.632C24.64 29.7173 23.2853 29.6213 22.432 29.344C21.6 29.0453 21.184 28.4373 21.184 27.52C21.184 26.6453 21.5893 26.048 22.4 25.728C23.2107 25.408 24.4907 25.1733 26.24 25.024C27.648 24.896 29.0667 24.8 30.496 24.736C31.9253 24.6507 33.344 24.576 34.752 24.512ZM9.856 5.248C10.3467 5.16267 10.784 5.14133 11.168 5.184C11.5733 5.20533 11.8933 5.33333 12.128 5.568C12.3627 5.80266 12.48 6.16533 12.48 6.656C12.48 7.38133 12.384 7.904 12.192 8.224C12 8.52266 11.584 8.768 10.944 8.96C10.304 9.152 9.696 9.32266 9.12 9.472C8.544 9.62133 7.97867 9.74933 7.424 9.856C6.89067 9.94133 6.37867 9.792 5.888 9.408C5.41867 9.00267 5.184 8.46933 5.184 7.808C5.184 7.232 5.28 6.83733 5.472 6.624C5.68533 6.41066 6.12267 6.208 6.784 6.016C7.296 5.84533 7.808 5.696 8.32 5.568C8.832 5.44 9.344 5.33333 9.856 5.248ZM8.064 3.584C8.448 3.584 8.736 3.744 8.928 4.064C9.12 4.384 9.216 4.736 9.216 5.12C9.216 5.568 9.13067 5.952 8.96 6.272C8.81067 6.57066 8.512 6.74133 8.064 6.784C7.936 6.784 7.79733 6.784 7.648 6.784C7.49867 6.784 7.36 6.784 7.232 6.784C6.784 6.784 6.47467 6.67733 6.304 6.464C6.15467 6.22933 6.08 5.78133 6.08 5.12C6.08 4.608 6.15467 4.23466 6.304 4C6.47467 3.744 6.784 3.60533 7.232 3.584C7.36 3.584 7.49867 3.584 7.648 3.584C7.79733 3.584 7.936 3.584 8.064 3.584ZM60.1735 29.888C57.9335 29.888 55.7042 29.8347 53.4855 29.728C51.2882 29.6 49.1015 29.44 46.9255 29.248C45.8375 29.1413 44.9522 28.928 44.2695 28.608C43.6082 28.2667 43.2775 27.648 43.2775 26.752C43.2775 25.6213 43.6828 24.9387 44.4935 24.704C45.3042 24.4693 46.3282 24.384 47.5655 24.448C49.6135 24.5333 51.8428 24.6827 54.2535 24.896C56.6855 25.1093 58.7442 25.3013 60.4295 25.472C61.6882 25.6 62.6162 25.824 63.2135 26.144C63.8322 26.4427 64.1415 27.008 64.1415 27.84C64.1415 28.6933 63.8108 29.248 63.1495 29.504C62.4882 29.76 61.4962 29.888 60.1735 29.888ZM58.6375 19.392C57.0375 19.712 55.4482 20 53.8695 20.256C52.2908 20.512 50.7015 20.736 49.1015 20.928C48.0562 21.056 47.1708 20.992 46.4455 20.736C45.7415 20.48 45.3895 19.8613 45.3895 18.88C45.3895 18.176 45.6668 17.6427 46.2215 17.28C46.7762 16.896 47.5015 16.5973 48.3975 16.384C49.9122 16 51.4268 15.6587 52.9415 15.36C54.4775 15.0613 55.9922 14.784 57.4855 14.528C59.0855 14.272 60.3015 14.2613 61.1335 14.496C61.9868 14.7307 62.4135 15.424 62.4135 16.576C62.4135 17.4293 62.0828 18.0587 61.4215 18.464C60.7815 18.848 59.8535 19.1573 58.6375 19.392ZM47.8215 17.28C48.3122 17.28 48.6748 17.4187 48.9095 17.696C49.1655 17.952 49.2935 18.2613 49.2935 18.624C49.2935 19.2853 49.1442 19.7653 48.8455 20.064C48.5682 20.3413 48.2055 20.48 47.7575 20.48C47.1815 20.48 46.7548 20.3307 46.4775 20.032C46.2215 19.7333 46.0935 19.3493 46.0935 18.88C46.0935 18.368 46.2322 17.9733 46.5095 17.696C46.8082 17.4187 47.2455 17.28 47.8215 17.28ZM41.0375 42.496C41.0375 40.576 41.5602 39.1467 42.6055 38.208C43.6722 37.248 44.9842 36.7573 46.5415 36.736C47.1175 36.736 47.6188 36.736 48.0455 36.736C48.4722 36.7147 48.8882 36.6933 49.2935 36.672C49.8482 36.6293 50.2215 36.4267 50.4135 36.064C50.6268 35.68 50.7442 35.0933 50.7655 34.304C50.7868 33.984 50.7975 33.632 50.7975 33.248C50.8188 32.864 50.8295 32.4587 50.8295 32.032C50.8508 31.7547 50.8615 31.4773 50.8615 31.2C50.8615 30.9013 50.8615 30.6133 50.8615 30.336C50.8828 30.0587 50.8935 29.7813 50.8935 29.504C50.8935 29.2267 50.8935 28.9493 50.8935 28.672C50.8935 28.3947 50.8935 27.7867 50.8935 26.848C50.8935 25.9093 50.8935 24.8107 50.8935 23.552C50.8935 23.4027 50.8935 23.264 50.8935 23.136C50.8935 22.9867 50.8935 22.8373 50.8935 22.688C50.8935 22.5387 50.8935 22.3893 50.8935 22.24C50.8935 22.0267 50.8935 21.824 50.8935 21.632C50.8935 21.4187 50.8935 21.2053 50.8935 20.992C50.8935 19.1573 50.8828 17.376 50.8615 15.648C50.8615 13.8987 50.8508 12.6293 50.8295 11.84C50.8082 11.1573 50.6588 10.688 50.3815 10.432C50.1255 10.176 49.6775 10.048 49.0375 10.048C48.5042 10.048 47.8748 10.08 47.1495 10.144C46.4242 10.208 45.6882 10.24 44.9415 10.24C43.6402 10.24 42.6055 9.97333 41.8375 9.44C41.0908 8.88533 40.7175 8.02133 40.7175 6.848C40.7602 5.65333 41.1335 4.82133 41.8375 4.352C42.5628 3.86133 43.5762 3.584 44.8775 3.52C47.8002 3.392 50.7122 3.328 53.6135 3.328C56.5362 3.30666 59.3202 3.34933 61.9655 3.456C63.5015 3.52 64.6002 3.712 65.2615 4.032C65.9228 4.352 66.2535 4.94933 66.2535 5.824C66.2535 6.656 65.9442 7.25333 65.3255 7.616C64.7282 7.97867 63.8855 8.256 62.7975 8.448C61.7095 8.66133 60.7068 8.82133 59.7895 8.928C58.8722 9.01333 57.9762 9.152 57.1015 9.344C56.5255 9.472 56.0988 9.664 55.8215 9.92C55.5655 10.1547 55.4375 10.5813 55.4375 11.2C55.5442 14.9973 55.6828 18.816 55.8535 22.656C56.0242 26.4747 56.2482 30.2933 56.5255 34.112C56.5895 35.072 56.8135 35.7867 57.1975 36.256C57.6028 36.704 58.2535 36.9493 59.1495 36.992C59.5975 37.0133 60.0562 37.0347 60.5255 37.056C60.9948 37.056 61.4535 37.0773 61.9015 37.12C64.2482 37.248 66.0295 37.888 67.2455 39.04C68.4615 40.192 69.0482 41.728 69.0055 43.648C69.0055 45.2693 68.6748 46.592 68.0135 47.616C67.3735 48.6187 66.4562 49.3333 65.2615 49.76C64.0668 50.1867 62.6695 50.3253 61.0695 50.176C60.9842 50.176 60.8988 50.1653 60.8135 50.144C60.7495 50.1227 60.6642 50.112 60.5575 50.112C61.0268 47.68 61.3042 45.8347 61.3895 44.576C61.4962 43.3173 61.3788 42.464 61.0375 42.016C60.7175 41.568 60.1522 41.344 59.3415 41.344C58.8508 41.344 58.4668 41.5573 58.1895 41.984C57.9122 42.3893 57.6882 43.2 57.5175 44.416C57.3468 45.6107 57.1868 47.3813 57.0375 49.728C56.4615 49.664 55.8855 49.5893 55.3095 49.504C54.7335 49.44 54.1362 49.3653 53.5175 49.28C53.5175 47.424 53.4215 46.0373 53.2295 45.12C53.0375 44.1813 52.7708 43.5627 52.4295 43.264C52.0882 42.9653 51.6828 42.816 51.2135 42.816C50.7442 42.816 50.3495 42.9653 50.0295 43.264C49.7095 43.5627 49.4962 44.1387 49.3895 44.992C49.3042 45.824 49.3575 47.0613 49.5495 48.704C49.0375 48.64 48.5255 48.5653 48.0135 48.48C47.5015 48.3733 46.9895 48.2773 46.4775 48.192C44.8562 47.8933 43.5442 47.3067 42.5415 46.432C41.5388 45.5573 41.0375 44.2453 41.0375 42.496ZM84.982 48.768C82.9127 48.768 81.0673 48.448 79.446 47.808C77.8247 47.168 76.4487 46.336 75.318 45.312C74.1873 44.2667 73.3233 43.1573 72.726 41.984C72.15 40.7893 71.862 39.6587 71.862 38.592C71.862 37.8453 72.0433 37.3013 72.406 36.96C72.7687 36.5973 73.206 36.416 73.718 36.416C74.294 36.416 74.742 36.5653 75.062 36.864C75.382 37.1413 75.6807 37.632 75.958 38.336C76.2353 38.9973 76.6513 39.7973 77.206 40.736C77.782 41.6533 78.582 42.464 79.606 43.168C80.63 43.872 81.9527 44.224 83.574 44.224C84.9607 44.224 86.07 43.808 86.902 42.976C87.7553 42.1227 88.182 40.96 88.182 39.488C88.182 38.208 87.9153 37.1093 87.382 36.192C86.8487 35.2747 86.134 34.464 85.238 33.76C84.3633 33.0347 83.3927 32.3307 82.326 31.648C81.2807 30.9653 80.2247 30.2293 79.158 29.44C78.1127 28.6293 77.142 27.68 76.246 26.592C75.3713 25.504 74.6673 24.192 74.134 22.656C73.6007 21.12 73.334 19.264 73.334 17.088C73.334 14.528 73.8673 12.2133 74.934 10.144C76.022 8.07466 77.622 6.432 79.734 5.216C81.8673 4 84.4913 3.392 87.606 3.392C89.2487 3.392 90.71 3.552 91.99 3.872C93.27 4.192 94.358 4.61867 95.254 5.152C96.1713 5.68533 96.8647 6.272 97.334 6.912C97.8033 7.552 98.038 8.192 98.038 8.832C98.038 9.536 97.878 10.1013 97.558 10.528C97.238 10.9333 96.7367 11.136 96.054 11.136C95.4567 11.136 94.902 10.976 94.39 10.656C93.878 10.336 93.3127 9.96267 92.694 9.536C92.0753 9.10933 91.3073 8.736 90.39 8.416C89.494 8.096 88.3313 7.936 86.902 7.936C84.3847 7.936 82.4647 8.576 81.142 9.856C79.8193 11.1147 79.158 12.6933 79.158 14.592C79.158 16.1707 79.542 17.44 80.31 18.4C81.078 19.36 82.102 20.1387 83.382 20.736C84.662 21.312 86.0593 21.8347 87.574 22.304C89.0887 22.752 90.6033 23.264 92.118 23.84C93.6327 24.416 95.03 25.1627 96.31 26.08C97.59 26.9973 98.614 28.2133 99.382 29.728C100.15 31.2213 100.534 33.152 100.534 35.52C100.534 37.8667 100.107 39.8827 99.254 41.568C98.422 43.232 97.2807 44.5973 95.83 45.664C94.3793 46.7307 92.7153 47.52 90.838 48.032C88.982 48.5227 87.03 48.768 84.982 48.768ZM93.622 42.048C95.0727 42.048 95.798 41.344 95.798 39.936C95.798 39.3813 95.6273 38.944 95.286 38.624C94.9447 38.304 94.454 38.144 93.814 38.144C93.1527 38.144 92.662 38.2933 92.342 38.592C92.0433 38.8907 91.894 39.3813 91.894 40.064C91.894 40.7253 92.0647 41.2267 92.406 41.568C92.7687 41.888 93.174 42.048 93.622 42.048ZM93.814 35.328C94.4327 35.328 94.9447 35.1253 95.35 34.72C95.7767 34.3147 95.99 33.792 95.99 33.152C95.99 32.256 95.7767 31.5947 95.35 31.168C94.9447 30.7413 94.454 30.528 93.878 30.528C92.9607 30.528 92.278 30.72 91.83 31.104C91.4033 31.4667 91.19 32.128 91.19 33.088C91.19 33.7493 91.414 34.2933 91.862 34.72C92.31 35.1253 92.9607 35.328 93.814 35.328ZM87.99 30.464C88.694 30.464 89.1953 30.2827 89.494 29.92C89.814 29.536 89.974 29.0133 89.974 28.352C89.974 27.904 89.8033 27.52 89.462 27.2C89.1207 26.8587 88.6727 26.688 88.118 26.688C87.542 26.688 87.0727 26.8373 86.71 27.136C86.3687 27.4347 86.198 27.8613 86.198 28.416C86.198 29.056 86.3473 29.5573 86.646 29.92C86.966 30.2827 87.414 30.464 87.99 30.464ZM89.91 18.432C88.8007 18.432 87.958 18.1547 87.382 17.6C86.806 17.0453 86.518 16.384 86.518 15.616C86.518 14.592 86.774 13.7813 87.286 13.184C87.8193 12.5867 88.502 12.288 89.334 12.288C90.486 12.288 91.3287 12.5547 91.862 13.088C92.3953 13.6213 92.662 14.2293 92.662 14.912C92.662 16.128 92.4167 17.024 91.926 17.6C91.4567 18.1547 90.7847 18.432 89.91 18.432ZM91.062 45.632L93.75 43.776C95.222 45.7173 96.3207 47.2533 97.046 48.384C97.7927 49.4933 98.1767 50.3467 98.198 50.944C98.2193 51.5627 97.91 52.0747 97.27 52.48C96.6513 52.864 96.0753 52.896 95.542 52.576C95.0087 52.2773 94.39 51.5627 93.686 50.432C93.0033 49.3013 92.1287 47.7013 91.062 45.632ZM85.878 47.552L89.206 46.976C89.654 49.4293 89.942 51.2853 90.07 52.544C90.198 53.8027 90.1447 54.6667 89.91 55.136C89.6753 55.6053 89.2487 55.8933 88.63 56C87.8833 56.128 87.3393 55.968 86.998 55.52C86.6567 55.072 86.4113 54.208 86.262 52.928C86.134 51.6693 86.006 49.8773 85.878 47.552ZM79.862 46.528L83.062 47.744C82.5073 49.6853 82.0273 51.1893 81.622 52.256C81.2167 53.3227 80.7793 54.016 80.31 54.336C79.862 54.656 79.286 54.6773 78.582 54.4C77.9633 54.1653 77.6113 53.7493 77.526 53.152C77.462 52.576 77.6327 51.7547 78.038 50.688C78.4433 49.6213 79.0513 48.2347 79.862 46.528ZM77.814 43.776C77.8567 43.7333 77.8887 43.6907 77.91 43.648C77.9527 43.584 77.9847 43.5413 78.006 43.52C78.198 43.264 78.486 43.1573 78.87 43.2C79.2753 43.2213 79.6487 43.3493 79.99 43.584C80.3527 43.776 80.6193 44.032 80.79 44.352C80.982 44.6507 80.9927 44.9493 80.822 45.248C80.8007 45.312 80.758 45.3867 80.694 45.472C80.63 45.5573 80.566 45.632 80.502 45.696C80.2673 46.016 79.99 46.2187 79.67 46.304C79.3713 46.3893 79.0727 46.3787 78.774 46.272C78.4753 46.1653 78.2193 45.9947 78.006 45.76C77.8353 45.5893 77.6967 45.3973 77.59 45.184C77.5047 44.9493 77.4727 44.7147 77.494 44.48C77.5153 44.2453 77.622 44.0107 77.814 43.776ZM75.446 41.408L77.558 44.672C76.086 46.08 74.902 47.1467 74.006 47.872C73.1313 48.5973 72.4273 48.992 71.894 49.056C71.3607 49.1413 70.8807 48.9173 70.454 48.384C70.0487 47.8933 69.942 47.36 70.134 46.784C70.3473 46.208 70.8807 45.504 71.734 44.672C72.6087 43.8187 73.846 42.7307 75.446 41.408ZM105.846 44.672C106.017 40.0853 106.198 35.52 106.39 30.976C106.603 26.432 106.849 21.9733 107.126 17.6C107.147 17.28 107.158 16.96 107.158 16.64C107.179 16.32 107.201 16 107.222 15.68C107.243 15.488 107.254 15.296 107.254 15.104C107.275 14.8907 107.286 14.6773 107.286 14.464C107.307 14.2507 107.318 14.0373 107.318 13.824C107.339 13.3973 107.361 12.9707 107.382 12.544C107.425 12.096 107.457 11.6693 107.478 11.264C107.521 10.88 107.553 10.5067 107.574 10.144C107.595 9.78133 107.617 9.408 107.638 9.024C107.659 8.768 107.67 8.544 107.67 8.352C107.691 8.13866 107.713 7.936 107.734 7.744C107.755 7.53067 107.777 7.31733 107.798 7.104C107.819 6.86933 107.841 6.656 107.862 6.464C107.883 6.25066 107.905 6.03733 107.926 5.824C108.075 4.8 108.353 3.98933 108.758 3.392C109.185 2.79467 109.878 2.496 110.838 2.496C111.905 2.496 112.651 2.88 113.078 3.648C113.526 4.39466 113.718 5.33333 113.654 6.464C113.505 9.23733 113.291 11.9147 113.014 14.496C112.758 17.056 112.566 19.6693 112.438 22.336C112.417 22.848 112.545 23.2853 112.822 23.648C113.099 23.9893 113.569 24.128 114.23 24.064C116.385 23.872 118.625 23.6053 120.95 23.264C123.275 22.9227 125.494 22.5493 127.606 22.144C128.353 21.9733 128.865 21.7493 129.142 21.472C129.419 21.1947 129.569 20.8 129.59 20.288C129.718 18.816 129.803 17.3227 129.846 15.808C129.889 14.272 129.953 12.6933 130.038 11.072C130.145 9.856 130.475 8.864 131.03 8.096C131.606 7.30667 132.47 6.912 133.622 6.912C134.817 6.912 135.691 7.34933 136.246 8.224C136.822 9.07733 137.078 10.24 137.014 11.712C136.822 17.8133 136.587 24.0107 136.31 30.304C136.033 36.5973 135.713 42.56 135.35 48.192C135.286 49.408 134.998 50.3787 134.486 51.104C133.974 51.8507 133.089 52.224 131.83 52.224C130.486 52.224 129.569 51.776 129.078 50.88C128.609 49.984 128.502 48.8533 128.758 47.488C129.057 45.9733 129.409 44.48 129.814 43.008C130.219 41.5147 130.55 40.0213 130.806 38.528C130.934 37.8453 130.913 37.3547 130.742 37.056C130.571 36.7573 130.209 36.5653 129.654 36.48C129.334 36.416 129.014 36.3627 128.694 36.32C128.374 36.2773 128.054 36.2453 127.734 36.224C127.947 34.8373 128.097 33.536 128.182 32.32C128.289 31.104 128.225 30.112 127.99 29.344C127.755 28.576 127.243 28.1813 126.454 28.16C125.942 28.1387 125.483 28.2987 125.078 28.64C124.694 28.9813 124.353 29.696 124.054 30.784C123.777 31.8507 123.553 33.472 123.382 35.648C122.721 35.5413 122.038 35.456 121.334 35.392C120.63 35.3067 119.926 35.2213 119.222 35.136C119.094 33.2373 118.923 31.7653 118.71 30.72C118.518 29.6533 118.241 28.9067 117.878 28.48C117.537 28.0533 117.089 27.84 116.534 27.84C115.574 27.84 114.966 28.3733 114.71 29.44C114.475 30.5067 114.614 32.2773 115.126 34.752C114.806 34.7093 114.486 34.688 114.166 34.688C113.846 34.6667 113.526 34.6453 113.206 34.624C112.673 34.5813 112.289 34.688 112.054 34.944C111.841 35.2 111.734 35.6053 111.734 36.16C111.777 37.568 111.862 38.976 111.99 40.384C112.118 41.792 112.182 43.2213 112.182 44.672C112.182 45.5253 111.926 46.304 111.414 47.008C110.902 47.712 110.049 48.064 108.854 48.064C107.681 48.064 106.881 47.7227 106.454 47.04C106.027 46.3573 105.825 45.568 105.846 44.672ZM120.694 18.368C119.649 18.368 118.827 18.0053 118.23 17.28C117.654 16.5547 117.366 15.5733 117.366 14.336C117.366 13.376 117.697 12.6187 118.358 12.064C119.041 11.488 119.99 11.2 121.206 11.2C122.337 11.2 123.169 11.5307 123.702 12.192C124.257 12.8533 124.534 13.7813 124.534 14.976C124.534 15.9573 124.225 16.768 123.606 17.408C122.987 18.048 122.017 18.368 120.694 18.368ZM133.494 13.568C134.006 13.568 134.39 13.7813 134.646 14.208C134.902 14.6133 135.03 15.232 135.03 16.064C135.03 16.832 134.881 17.4293 134.582 17.856C134.305 18.2827 133.878 18.496 133.302 18.496C133.089 18.496 132.875 18.496 132.662 18.496C132.449 18.496 132.214 18.496 131.958 18.496C131.446 18.496 131.083 18.272 130.87 17.824C130.657 17.3547 130.55 16.7893 130.55 16.128C130.55 15.2533 130.699 14.6133 130.998 14.208C131.297 13.7813 131.766 13.568 132.406 13.568C132.598 13.568 132.779 13.568 132.95 13.568C133.121 13.568 133.302 13.568 133.494 13.568ZM109.558 47.296C108.406 47.296 107.595 47.0507 107.126 46.56C106.657 46.0693 106.422 45.504 106.422 44.864C106.422 43.9253 106.646 43.1893 107.094 42.656C107.542 42.1227 108.193 41.856 109.046 41.856C109.921 41.856 110.603 42.1333 111.094 42.688C111.606 43.2213 111.862 43.9893 111.862 44.992C111.862 45.696 111.649 46.2613 111.222 46.688C110.795 47.0933 110.241 47.296 109.558 47.296ZM110.646 6.848C111.073 6.848 111.382 7.04 111.574 7.424C111.766 7.78667 111.862 8.192 111.862 8.64C111.862 9.10933 111.755 9.54667 111.542 9.952C111.35 10.3573 111.03 10.5813 110.582 10.624C110.433 10.624 110.273 10.6347 110.102 10.656C109.953 10.6773 109.793 10.688 109.622 10.688C109.217 10.7093 108.907 10.5387 108.694 10.176C108.502 9.792 108.406 9.36533 108.406 8.896C108.406 8.40533 108.523 7.94667 108.758 7.52C108.993 7.072 109.345 6.848 109.814 6.848C109.942 6.848 110.081 6.848 110.23 6.848C110.379 6.848 110.518 6.848 110.646 6.848ZM145.008 43.968C144.986 43.5627 144.965 43.1147 144.944 42.624C144.944 42.112 144.944 41.5893 144.944 41.056C144.965 40.5227 144.986 40.0213 145.008 39.552C148.464 39.8293 150.789 39.776 151.984 39.392C153.178 38.9867 153.776 38.336 153.776 37.44C153.776 36.288 153.189 35.584 152.016 35.328C150.842 35.0507 148.57 35.0293 145.2 35.264C145.242 34.5173 145.274 33.7813 145.296 33.056C145.338 32.3093 145.392 31.5733 145.456 30.848C146.949 30.9973 148.176 31.0507 149.136 31.008C150.096 30.944 150.81 30.7413 151.28 30.4C151.749 30.0373 151.984 29.4827 151.984 28.736C151.984 27.7973 151.514 27.168 150.576 26.848C149.637 26.5067 147.994 26.304 145.648 26.24C145.754 23.872 145.904 21.344 146.096 18.656C146.309 15.968 146.544 13.4613 146.8 11.136C147.12 8.256 147.941 6.18666 149.264 4.928C150.586 3.648 152.304 3.008 154.416 3.008C156.336 3.008 157.829 3.50933 158.896 4.512C159.984 5.51466 160.922 7.12533 161.712 9.344C162.416 11.2853 163.152 13.4293 163.92 15.776C164.688 18.1013 165.466 20.5227 166.256 23.04C167.066 25.5573 167.866 28.0533 168.656 30.528C169.466 32.9813 170.266 35.3067 171.056 37.504C171.333 38.2933 171.738 38.7733 172.272 38.944C172.805 39.1147 173.285 39.0187 173.712 38.656C174.138 38.272 174.341 37.6533 174.32 36.8C174.277 33.7493 174.213 30.3893 174.128 26.72C174.042 23.0293 173.968 19.2747 173.904 15.456C173.861 11.616 173.85 7.936 173.872 4.416C173.872 3.072 174.128 2.06933 174.64 1.408C175.173 0.725332 175.984 0.383999 177.072 0.383999C178.096 0.383999 178.853 0.746666 179.344 1.472C179.834 2.19733 180.08 3.28533 180.08 4.736C180.058 8.256 179.984 11.9147 179.856 15.712C179.749 19.5093 179.589 23.3707 179.376 27.296C179.184 31.2 178.949 35.0933 178.672 38.976C178.522 41.216 177.904 42.784 176.816 43.68C175.749 44.5547 174.426 44.992 172.848 44.992C171.29 44.992 170.021 44.5653 169.04 43.712C168.08 42.8373 167.28 41.6 166.64 40C165.445 37.056 164.282 34.0373 163.152 30.944C162.042 27.8507 160.933 24.7893 159.824 21.76C158.736 18.7307 157.637 15.8293 156.528 13.056C156.378 12.672 156.197 12.3947 155.984 12.224C155.792 12.0533 155.546 11.968 155.248 11.968C154.8 11.968 154.437 12.16 154.16 12.544C153.904 12.9067 153.84 13.44 153.968 14.144C154.437 17.0667 154.97 20.0427 155.568 23.072C156.165 26.1013 156.762 29.152 157.36 32.224C157.978 35.296 158.533 38.3573 159.024 41.408C159.472 44.288 159.066 46.5173 157.808 48.096C156.57 49.6533 154.608 50.432 151.92 50.432C149.53 50.432 147.792 49.8453 146.704 48.672C145.637 47.4773 145.072 45.9093 145.008 43.968ZM174.32 8.192C175.13 8.21333 175.941 8.256 176.752 8.32C177.584 8.36267 178.394 8.40533 179.184 8.448C180.933 8.53333 182.202 8.66133 182.992 8.832C183.802 9.00267 184.314 9.23733 184.528 9.536C184.762 9.83466 184.88 10.2187 184.88 10.688C184.88 11.1573 184.752 11.552 184.496 11.872C184.261 12.1707 183.728 12.4053 182.896 12.576C182.064 12.7253 180.784 12.8 179.056 12.8C178.224 12.8 177.402 12.8 176.592 12.8C175.781 12.8 174.96 12.8 174.128 12.8C172.464 12.8 171.194 12.704 170.32 12.512C169.445 12.2987 168.848 12 168.528 11.616C168.208 11.232 168.048 10.7733 168.048 10.24C168.048 9.728 168.208 9.312 168.528 8.992C168.869 8.65067 169.488 8.416 170.384 8.288C171.301 8.13867 172.613 8.10667 174.32 8.192ZM174.064 16.896C174.896 16.896 175.738 16.8853 176.592 16.864C177.445 16.8427 178.288 16.832 179.12 16.832C181.104 16.7893 182.362 16.9387 182.896 17.28C183.45 17.6 183.728 18.1333 183.728 18.88C183.728 19.776 183.461 20.416 182.928 20.8C182.394 21.184 181.168 21.376 179.248 21.376C178.48 21.376 177.701 21.376 176.912 21.376C176.122 21.376 175.344 21.376 174.576 21.376C172.25 21.376 170.682 21.2267 169.872 20.928C169.082 20.6293 168.688 20.032 168.688 19.136C168.688 18.432 169.029 17.888 169.712 17.504C170.416 17.12 171.866 16.9173 174.064 16.896ZM176.368 22.912C176.432 22.912 176.496 22.912 176.56 22.912C176.624 22.912 176.688 22.912 176.752 22.912C177.093 22.912 177.37 23.0187 177.584 23.232C177.797 23.4453 177.957 23.7227 178.064 24.064C178.17 24.384 178.224 24.7253 178.224 25.088C178.224 25.4507 178.16 25.8027 178.032 26.144C177.904 26.4853 177.722 26.7733 177.488 27.008C177.253 27.2213 176.965 27.328 176.624 27.328C176.538 27.328 176.453 27.328 176.368 27.328C176.304 27.328 176.218 27.328 176.112 27.328C175.642 27.328 175.29 27.1147 175.056 26.688C174.821 26.2613 174.704 25.792 174.704 25.28C174.704 24.704 174.842 24.1707 175.12 23.68C175.418 23.168 175.834 22.912 176.368 22.912ZM150.896 41.024C151.152 41.024 151.418 41.024 151.696 41.024C151.973 41.024 152.24 41.024 152.496 41.024C153.072 41.024 153.498 41.248 153.776 41.696C154.074 42.144 154.224 42.6453 154.224 43.2C154.224 43.84 154.053 44.4053 153.712 44.896C153.37 45.3867 152.858 45.6533 152.176 45.696C151.898 45.696 151.621 45.696 151.344 45.696C151.088 45.696 150.81 45.696 150.512 45.696C149.872 45.696 149.392 45.4507 149.072 44.96C148.752 44.448 148.592 43.904 148.592 43.328C148.592 42.6453 148.762 42.0907 149.104 41.664C149.466 41.2373 150.064 41.024 150.896 41.024ZM153.136 45.056C152.474 45.056 151.962 44.8747 151.6 44.512C151.258 44.1493 151.088 43.6053 151.088 42.88C151.088 42.3253 151.28 41.8773 151.664 41.536C152.069 41.1947 152.602 41.024 153.264 41.024C153.818 41.024 154.266 41.1947 154.608 41.536C154.949 41.856 155.12 42.3253 155.12 42.944C155.12 43.648 154.928 44.1813 154.544 44.544C154.181 44.8853 153.712 45.056 153.136 45.056ZM204.381 47.808C201.778 47.808 199.485 47.4773 197.501 46.816C195.517 46.1547 193.842 45.1733 192.477 43.872C191.133 42.5493 190.12 40.896 189.437 38.912C188.754 36.928 188.413 34.6133 188.413 31.968C188.413 30.9013 188.488 29.4933 188.637 27.744C188.786 25.9733 188.978 24.0213 189.213 21.888C189.469 19.7547 189.746 17.568 190.045 15.328C190.344 13.088 190.632 10.9547 190.909 8.928C191.208 6.88 191.474 5.09867 191.709 3.584C191.901 2.368 192.168 1.472 192.509 0.896C192.872 0.298667 193.416 0 194.141 0C194.866 0 195.389 0.309333 195.709 0.927998C196.029 1.52533 196.189 2.45333 196.189 3.712C196.189 4.69333 196.146 6.10133 196.061 7.936C195.997 9.74933 195.901 11.7653 195.773 13.984C195.666 16.1813 195.56 18.3893 195.453 20.608C195.346 22.8267 195.25 24.8427 195.165 26.656C195.08 28.4693 195.037 29.8667 195.037 30.848C195.016 33.472 195.357 35.648 196.061 37.376C196.765 39.104 197.8 40.3947 199.165 41.248C200.53 42.08 202.184 42.496 204.125 42.496C205.81 42.496 207.197 42.1227 208.285 41.376C209.373 40.6293 210.173 39.616 210.685 38.336C211.218 37.0347 211.485 35.5733 211.485 33.952C211.485 32.3307 211.197 30.4427 210.621 28.288C210.066 26.112 209.416 23.8933 208.669 21.632C207.922 19.3493 207.261 17.216 206.685 15.232C206.13 13.2267 205.853 11.584 205.853 10.304C205.853 8.02133 206.557 6.144 207.965 4.672C209.394 3.17867 211.474 2.432 214.205 2.432C217.32 2.432 219.432 3.296 220.541 5.024C221.672 6.752 222.237 9.152 222.237 12.224C222.237 13.4187 222.216 14.6027 222.173 15.776C222.152 16.9493 222.109 18.1333 222.045 19.328C221.981 20.5013 221.896 21.6853 221.789 22.88C221.704 24.0747 221.608 25.28 221.501 26.496C221.394 27.712 221.277 28.9493 221.149 30.208C220.808 33.536 220.04 36.5333 218.845 39.2C217.65 41.8453 215.88 43.9467 213.533 45.504C211.208 47.04 208.157 47.808 204.381 47.808ZM203.677 36.864C202.781 36.864 202.034 36.608 201.437 36.096C200.861 35.584 200.573 34.8267 200.573 33.824C200.573 32.7787 200.946 31.9787 201.693 31.424C202.44 30.8693 203.272 30.592 204.189 30.592C205.042 30.592 205.789 30.88 206.429 31.456C207.069 32.032 207.389 32.8107 207.389 33.792C207.389 34.7307 207.016 35.4773 206.269 36.032C205.544 36.5867 204.68 36.864 203.677 36.864ZM198.045 4.608C199.773 4.56533 200.968 4.68267 201.629 4.96C202.312 5.23733 202.653 5.824 202.653 6.72C202.653 7.552 202.365 8.128 201.789 8.448C201.213 8.768 199.965 9.024 198.045 9.216C196.957 9.30133 195.656 9.38667 194.141 9.472C192.626 9.55733 191.325 9.62133 190.237 9.664C188.445 9.68533 187.165 9.54667 186.397 9.248C185.629 8.928 185.245 8.32 185.245 7.424C185.245 6.592 185.618 6.016 186.365 5.696C187.133 5.376 188.36 5.14133 190.045 4.992C191.176 4.88533 192.509 4.8 194.045 4.736C195.602 4.672 196.936 4.62933 198.045 4.608ZM195.485 16.512C197.725 16.576 199.432 16.6933 200.605 16.864C201.8 17.0133 202.621 17.2587 203.069 17.6C203.517 17.9413 203.741 18.4107 203.741 19.008C203.741 19.7333 203.528 20.2773 203.101 20.64C202.674 20.9813 201.842 21.2053 200.605 21.312C199.389 21.4187 197.576 21.4613 195.165 21.44C194.696 21.44 194.194 21.4293 193.661 21.408C193.128 21.3653 192.669 21.312 192.285 21.248C191.432 21.12 190.824 20.896 190.461 20.576C190.098 20.256 189.917 19.7333 189.917 19.008C189.917 18.112 190.12 17.472 190.525 17.088C190.93 16.704 191.56 16.512 192.413 16.512C192.925 16.512 193.448 16.512 193.981 16.512C194.536 16.512 195.037 16.512 195.485 16.512ZM215.133 3.712C215.624 3.66933 215.997 3.85067 216.253 4.256C216.53 4.66133 216.669 5.12 216.669 5.632C216.669 6.10133 216.541 6.53867 216.285 6.944C216.029 7.34933 215.624 7.552 215.069 7.552C215.005 7.552 214.93 7.552 214.845 7.552C214.76 7.552 214.685 7.552 214.621 7.552C213.981 7.552 213.49 7.328 213.149 6.88C212.808 6.432 212.637 5.952 212.637 5.44C212.637 5.01333 212.765 4.62933 213.021 4.288C213.298 3.92533 213.725 3.73333 214.301 3.712C214.429 3.712 214.568 3.712 214.717 3.712C214.866 3.712 215.005 3.712 215.133 3.712ZM215.261 22.208C216.264 22.208 216.989 21.984 217.437 21.536C217.906 21.088 218.141 20.5013 218.141 19.776C218.141 18.7733 217.885 18.016 217.373 17.504C216.882 16.9707 216.285 16.704 215.581 16.704C214.557 16.704 213.81 16.9493 213.341 17.44C212.872 17.9307 212.637 18.496 212.637 19.136C212.637 20.224 212.861 21.0133 213.309 21.504C213.757 21.9733 214.408 22.208 215.261 22.208ZM213.981 14.208C215.069 14.208 215.901 13.9413 216.477 13.408C217.074 12.8747 217.373 12.16 217.373 11.264C217.373 10.24 217.085 9.42933 216.509 8.832C215.954 8.23466 215.176 7.936 214.173 7.936C213.213 7.936 212.456 8.192 211.901 8.704C211.368 9.19467 211.101 9.92 211.101 10.88C211.101 11.84 211.4 12.64 211.997 13.28C212.594 13.8987 213.256 14.208 213.981 14.208ZM216.477 29.952C217.16 29.952 217.693 29.7387 218.077 29.312C218.461 28.864 218.653 28.3733 218.653 27.84C218.653 26.944 218.461 26.3147 218.077 25.952C217.693 25.5893 217.16 25.408 216.477 25.408C215.773 25.408 215.197 25.5893 214.749 25.952C214.322 26.3147 214.109 26.9013 214.109 27.712C214.109 28.416 214.301 28.9707 214.685 29.376C215.09 29.76 215.688 29.952 216.477 29.952ZM238.574 49.92C236.227 49.92 234.137 49.5893 232.302 48.928C230.467 48.2667 229.027 47.264 227.982 45.92C226.937 44.576 226.414 42.88 226.414 40.832C226.414 39.6587 226.617 38.528 227.022 37.44C227.449 36.352 228.089 35.4667 228.942 34.784C229.817 34.08 230.915 33.728 232.238 33.728C232.963 33.728 233.646 33.792 234.286 33.92C234.947 34.048 235.673 34.176 236.462 34.304C237.251 34.432 238.211 34.496 239.342 34.496C242.265 34.496 244.27 33.888 245.358 32.672C246.467 31.456 246.937 29.632 246.766 27.2C246.617 24.512 246.393 21.792 246.094 19.04C245.795 16.2667 245.486 13.696 245.166 11.328C245.017 10.0053 244.707 9.14133 244.238 8.736C243.79 8.33067 242.969 8.128 241.774 8.128C240.366 8.128 238.979 8.18133 237.614 8.288C236.249 8.39466 234.969 8.448 233.774 8.448C232.089 8.448 230.862 8.224 230.094 7.776C229.347 7.30666 228.974 6.54933 228.974 5.504C228.974 4.50133 229.358 3.76533 230.126 3.296C230.915 2.80533 232.089 2.58133 233.646 2.624C235.31 2.64533 237.241 2.74133 239.438 2.912C241.657 3.06133 243.737 3.264 245.678 3.52C247.065 3.66933 248.078 4.21333 248.718 5.152C249.358 6.06933 249.838 7.68 250.158 9.984C250.393 11.6267 250.649 13.6 250.926 15.904C251.203 18.1867 251.459 20.5227 251.694 22.912C251.95 25.28 252.163 27.4453 252.334 29.408C252.505 31.3493 252.59 32.8107 252.59 33.792C252.59 37.2053 252.046 40.1173 250.958 42.528C249.87 44.9387 248.281 46.7733 246.19 48.032C244.099 49.2907 241.561 49.92 238.574 49.92ZM253.294 13.376C250.222 14.0373 246.947 14.6987 243.47 15.36C239.993 16.0213 236.505 16.6613 233.006 17.28C231.406 17.5573 230.115 17.5787 229.134 17.344C228.174 17.088 227.694 16.3413 227.694 15.104C227.694 14.3573 228.046 13.76 228.75 13.312C229.454 12.8427 230.489 12.5013 231.854 12.288C235.31 11.7333 238.809 11.2107 242.35 10.72C245.891 10.208 249.305 9.74933 252.59 9.344C254.105 9.152 255.171 9.184 255.79 9.44C256.43 9.67467 256.75 10.1973 256.75 11.008C256.75 11.6053 256.505 12.0747 256.014 12.416C255.545 12.7573 254.638 13.0773 253.294 13.376ZM250.158 17.152C252.249 16.9813 253.795 16.9493 254.798 17.056C255.801 17.1413 256.451 17.344 256.75 17.664C257.049 17.984 257.198 18.4107 257.198 18.944C257.198 19.584 257.017 20.0747 256.654 20.416C256.291 20.736 255.609 20.96 254.606 21.088C253.625 21.1947 252.185 21.248 250.286 21.248L250.158 17.152ZM238.638 28.8C237.23 28.8 236.174 28.4693 235.47 27.808C234.766 27.1467 234.414 26.1333 234.414 24.768C234.414 23.808 234.734 23.008 235.374 22.368C236.035 21.7067 236.974 21.376 238.19 21.376C239.342 21.376 240.238 21.7493 240.878 22.496C241.518 23.2427 241.838 24.2133 241.838 25.408C241.838 26.4533 241.55 27.2853 240.974 27.904C240.419 28.5013 239.641 28.8 238.638 28.8ZM232.046 43.136C232.814 43.136 233.369 42.9547 233.71 42.592C234.051 42.2293 234.222 41.6853 234.222 40.96C234.222 40.4053 234.03 39.968 233.646 39.648C233.283 39.328 232.75 39.168 232.046 39.168C231.534 39.168 231.107 39.3387 230.766 39.68C230.425 40.0213 230.254 40.4693 230.254 41.024C230.254 41.728 230.435 42.2613 230.798 42.624C231.161 42.9653 231.577 43.136 232.046 43.136ZM238.638 44.864C239.598 44.864 240.281 44.64 240.686 44.192C241.113 43.744 241.326 43.0293 241.326 42.048C241.326 41.4293 241.091 40.928 240.622 40.544C240.174 40.1387 239.598 39.936 238.894 39.936C237.23 39.936 236.398 40.8107 236.398 42.56C236.398 43.264 236.622 43.8293 237.07 44.256C237.518 44.6613 238.041 44.864 238.638 44.864ZM245.742 42.816C246.425 42.816 246.915 42.6133 247.214 42.208C247.513 41.7813 247.662 41.152 247.662 40.32C247.662 39.744 247.47 39.3067 247.086 39.008C246.702 38.688 246.254 38.528 245.742 38.528C244.974 38.528 244.387 38.72 243.982 39.104C243.577 39.4667 243.374 39.9573 243.374 40.576C243.374 41.28 243.587 41.8347 244.014 42.24C244.462 42.624 245.038 42.816 245.742 42.816ZM275.402 20.544C275.316 20.544 275.21 20.544 275.082 20.544C274.975 20.544 274.868 20.544 274.762 20.544C274.356 20.544 274.036 20.416 273.802 20.16C273.588 19.8827 273.482 19.584 273.482 19.264C273.482 18.9013 273.599 18.5813 273.834 18.304C274.09 18.0053 274.442 17.856 274.89 17.856C275.018 17.856 275.135 17.856 275.242 17.856C275.348 17.856 275.466 17.856 275.594 17.856C275.956 17.856 276.212 17.9947 276.362 18.272C276.532 18.528 276.618 18.816 276.618 19.136C276.618 19.4773 276.522 19.7973 276.33 20.096C276.138 20.3947 275.828 20.544 275.402 20.544ZM275.21 11.072C275.146 11.072 275.06 11.072 274.954 11.072C274.868 11.072 274.74 11.072 274.57 11.072C274.25 11.072 273.994 10.9653 273.802 10.752C273.631 10.5173 273.546 10.24 273.546 9.92C273.546 9.62133 273.61 9.36533 273.738 9.152C273.887 8.93867 274.122 8.832 274.442 8.832C274.57 8.832 274.698 8.832 274.826 8.832C274.954 8.832 275.082 8.832 275.21 8.832C275.508 8.832 275.743 8.94933 275.914 9.184C276.084 9.41867 276.17 9.68533 276.17 9.984C276.17 10.24 276.095 10.4853 275.946 10.72C275.818 10.9547 275.572 11.072 275.21 11.072ZM262.346 32.32C263.562 32.32 264.468 32.64 265.066 33.28C265.684 33.8987 265.994 34.752 265.994 35.84C265.994 36.8853 265.716 37.76 265.162 38.464C264.607 39.1467 263.882 39.488 262.986 39.488C261.556 39.488 260.5 39.1893 259.818 38.592C259.156 37.9733 258.826 37.184 258.826 36.224C258.826 35.008 259.114 34.0587 259.69 33.376C260.287 32.672 261.172 32.32 262.346 32.32ZM258.89 46.848C258.89 46.144 259.21 45.5573 259.85 45.088C260.49 44.6187 261.322 44.2453 262.346 43.968C263.114 43.7333 264.095 43.5093 265.29 43.296C266.506 43.0613 267.786 42.752 269.13 42.368C269.706 42.1973 270.09 41.8773 270.282 41.408C270.474 40.9387 270.516 40.384 270.41 39.744C270.09 37.44 269.759 35.1467 269.418 32.864C269.098 30.5813 268.746 28.288 268.362 25.984C270.324 25.792 271.658 25.4827 272.362 25.056C273.066 24.6293 273.418 24.064 273.418 23.36C273.418 22.5493 273.012 22.048 272.202 21.856C271.391 21.664 269.898 21.7173 267.722 22.016C267.636 21.44 267.53 20.8427 267.402 20.224C267.295 19.6053 267.188 19.008 267.082 18.432C268.852 18.3467 270.175 18.208 271.05 18.016C271.946 17.8027 272.543 17.536 272.842 17.216C273.14 16.896 273.29 16.512 273.29 16.064C273.29 15.2533 272.842 14.72 271.946 14.464C271.071 14.208 269.194 14.208 266.314 14.464C266.25 14.08 266.175 13.696 266.09 13.312C266.004 12.928 265.93 12.544 265.866 12.16C265.738 11.4773 265.535 10.9333 265.258 10.528C265.002 10.1227 264.65 9.87733 264.202 9.792C263.732 9.68533 263.284 9.61067 262.858 9.568C262.452 9.504 262.026 9.42933 261.578 9.344C260.81 9.152 260.159 8.896 259.626 8.576C259.092 8.23467 258.826 7.70133 258.826 6.976C258.826 6.03733 259.167 5.42933 259.85 5.152C260.554 4.87467 261.428 4.736 262.474 4.736C265.844 4.75733 269.162 4.84266 272.426 4.992C275.711 5.14133 279.018 5.33333 282.346 5.568C283.626 5.65333 284.586 5.93067 285.226 6.4C285.866 6.86933 286.186 7.63733 286.186 8.704C286.186 9.984 285.876 10.8053 285.258 11.168C284.66 11.5307 284.02 11.712 283.338 11.712C282.762 11.712 282.228 11.6907 281.738 11.648C281.268 11.584 280.714 11.5413 280.074 11.52C279.434 11.4987 278.975 11.6267 278.698 11.904C278.442 12.1813 278.26 12.6933 278.154 13.44C277.578 17.8773 277.066 22.304 276.618 26.72C276.191 31.1147 275.828 35.4133 275.53 39.616C275.466 40.32 275.604 40.8533 275.946 41.216C276.287 41.5573 276.724 41.8133 277.258 41.984C277.962 42.1973 278.783 42.4 279.722 42.592C280.682 42.784 281.588 43.008 282.442 43.264C283.466 43.5413 284.266 43.8933 284.842 44.32C285.418 44.7467 285.706 45.2693 285.706 45.888C285.706 46.3787 285.556 46.7733 285.258 47.072C284.98 47.3707 284.543 47.6053 283.946 47.776C283.37 47.9253 282.634 48.0427 281.738 48.128C281.311 48.1493 280.671 48.192 279.818 48.256C278.986 48.2987 278.026 48.352 276.938 48.416C276.703 48.416 276.447 48.4267 276.17 48.448C275.914 48.4693 275.647 48.4907 275.37 48.512C275.114 48.512 274.847 48.5227 274.57 48.544C274.314 48.544 274.047 48.5547 273.77 48.576C273.514 48.576 273.258 48.5867 273.002 48.608C272.746 48.608 272.479 48.6187 272.202 48.64C271.668 48.6613 271.135 48.6827 270.602 48.704C270.068 48.7253 269.546 48.7467 269.034 48.768C268.842 48.768 268.639 48.7787 268.426 48.8C268.234 48.8 268.031 48.8107 267.818 48.832C267.626 48.832 267.434 48.8427 267.242 48.864C267.007 48.864 266.772 48.864 266.538 48.864C266.324 48.8853 266.111 48.896 265.898 48.896C265.684 48.896 265.471 48.9067 265.258 48.928C264.66 48.9493 264.116 48.96 263.626 48.96C263.156 48.9813 262.751 49.0027 262.41 49.024C261.194 49.0453 260.298 48.8853 259.722 48.544C259.167 48.2027 258.89 47.6373 258.89 46.848ZM302.622 48.32C301.534 48.32 300.51 48.1813 299.55 47.904C298.59 47.6053 297.822 47.168 297.246 46.592C296.905 46.2507 296.617 45.8773 296.382 45.472C296.169 45.0453 295.998 44.5973 295.87 44.128C295.763 43.6373 295.678 43.136 295.614 42.624C295.571 42.112 295.561 41.6 295.582 41.088C298.782 41.8773 301.139 42.208 302.654 42.08C304.169 41.9307 304.926 41.28 304.926 40.128C304.926 39.1893 304.286 38.5493 303.006 38.208C301.726 37.8667 299.358 37.5893 295.902 37.376C295.945 36.864 295.987 36.2667 296.03 35.584C296.094 34.9013 296.158 34.304 296.222 33.792C298.227 33.856 299.817 33.8453 300.99 33.76C302.163 33.6533 302.995 33.4187 303.486 33.056C303.998 32.672 304.243 32.1067 304.222 31.36C304.201 30.7413 303.923 30.2933 303.39 30.016C302.857 29.7173 302.035 29.5467 300.926 29.504C299.838 29.4613 298.441 29.504 296.734 29.632C297.161 26.624 297.555 23.8293 297.918 21.248C298.281 18.6453 298.654 16.128 299.038 13.696C299.23 12.5867 299.07 11.8613 298.558 11.52C298.046 11.1787 297.331 11.0507 296.414 11.136C295.497 11.2213 294.494 11.3707 293.406 11.584C292.339 11.7973 291.315 11.9147 290.334 11.936C289.374 11.9573 288.574 11.7333 287.934 11.264C287.315 10.7733 287.006 9.87733 287.006 8.576C287.006 7.872 287.177 7.296 287.518 6.848C287.881 6.4 288.403 6.05866 289.086 5.824C289.79 5.568 290.633 5.376 291.614 5.248C291.849 5.20533 292.105 5.17333 292.382 5.152C292.659 5.10933 292.947 5.07733 293.246 5.056C293.673 5.01333 294.046 4.97066 294.366 4.928C294.707 4.864 295.017 4.82133 295.294 4.8C296.083 4.69333 296.83 4.59733 297.534 4.512C298.259 4.42666 299.049 4.33067 299.902 4.224C300.051 4.20266 300.201 4.18133 300.35 4.16C300.521 4.13867 300.691 4.11733 300.862 4.096C301.054 4.07467 301.235 4.05333 301.406 4.032C301.598 4.01067 301.779 3.98933 301.95 3.968C302.142 3.94666 302.313 3.92533 302.462 3.904C302.633 3.88266 302.771 3.872 302.878 3.872C305.225 3.59466 307.283 3.38133 309.054 3.232C310.846 3.06133 312.329 3.008 313.502 3.072C314.697 3.136 315.593 3.34933 316.19 3.712C316.787 4.07467 317.086 4.65067 317.086 5.44C317.086 6.22933 316.745 6.848 316.062 7.296C315.401 7.72266 314.537 8.05333 313.47 8.288C312.425 8.52267 311.326 8.72533 310.174 8.896C309.022 9.06667 307.955 9.29067 306.974 9.568C305.993 9.824 305.235 10.1973 304.702 10.688C304.169 11.1787 304.009 11.8613 304.222 12.736C305.182 16.6613 306.11 20.1707 307.006 23.264C307.902 26.3573 308.681 29.1093 309.342 31.52C310.003 33.9093 310.462 36.0213 310.718 37.856C310.995 39.6693 310.974 41.2693 310.654 42.656C310.355 44.0213 309.683 45.2267 308.638 46.272C307.934 46.976 307.038 47.4987 305.95 47.84C304.883 48.16 303.774 48.32 302.622 48.32ZM301.406 8.896C300.894 8.896 300.489 8.768 300.19 8.512C299.891 8.256 299.742 7.89333 299.742 7.424C299.742 6.93333 299.881 6.54933 300.158 6.272C300.457 5.97333 300.83 5.824 301.278 5.824C301.769 5.824 302.142 5.96266 302.398 6.24C302.675 6.496 302.814 6.80533 302.814 7.168C302.814 7.70133 302.675 8.128 302.398 8.448C302.121 8.74667 301.79 8.896 301.406 8.896ZM304.606 47.104L304.99 42.24C305.694 42.3253 306.27 42.4427 306.718 42.592C307.187 42.7413 307.529 42.9653 307.742 43.264C307.977 43.5413 308.094 43.9467 308.094 44.48C308.094 45.312 307.966 45.92 307.71 46.304C307.454 46.688 307.07 46.9333 306.558 47.04C306.046 47.1253 305.395 47.1467 304.606 47.104ZM305.054 21.056L303.902 25.28C303.283 25.1093 302.782 24.9387 302.398 24.768C302.014 24.5973 301.737 24.384 301.566 24.128C301.395 23.872 301.31 23.5627 301.31 23.2C301.31 22.3253 301.459 21.7173 301.758 21.376C302.057 21.0347 302.483 20.864 303.038 20.864C303.593 20.8427 304.265 20.9067 305.054 21.056ZM321.756 44.416C321.756 44.3093 321.756 44.2133 321.756 44.128C321.756 44.0213 321.756 43.9253 321.756 43.84C324.486 43.968 326.289 43.8293 327.164 43.424C328.038 42.9973 328.476 42.432 328.476 41.728C328.476 41.28 328.305 40.9067 327.964 40.608C327.622 40.3093 326.95 40.1067 325.948 40C324.966 39.872 323.505 39.872 321.564 40C321.542 39.36 321.51 38.7093 321.468 38.048C321.446 37.3867 321.436 36.736 321.436 36.096C323.462 36.0533 324.892 35.904 325.724 35.648C326.556 35.392 326.982 34.9013 327.004 34.176C327.025 33.6427 326.876 33.2053 326.556 32.864C326.257 32.5227 325.681 32.2667 324.828 32.096C323.996 31.904 322.801 31.7867 321.244 31.744C321.116 27.904 321.03 24.0533 320.988 20.192C320.945 16.3307 320.902 12.48 320.86 8.64C320.86 6.74133 321.233 5.39733 321.98 4.608C322.726 3.79733 323.718 3.392 324.956 3.392C326.364 3.392 327.345 3.84 327.9 4.736C328.476 5.632 328.71 6.93333 328.604 8.64C328.454 11.328 328.23 13.9947 327.932 16.64C327.654 19.2853 327.43 21.9733 327.26 24.704C327.196 25.5573 327.281 26.1547 327.516 26.496C327.75 26.8373 328.134 27.008 328.668 27.008C331.1 27.072 333.51 27.0827 335.9 27.04C338.289 26.976 340.636 26.88 342.94 26.752C343.622 26.7093 344.113 26.5173 344.412 26.176C344.732 25.8133 344.86 25.3013 344.796 24.64C344.582 21.952 344.294 19.2107 343.932 16.416C343.59 13.6213 343.302 10.816 343.068 8C342.982 6.86933 343.132 5.94133 343.516 5.216C343.9 4.46933 344.668 4.096 345.82 4.096C346.886 4.096 347.622 4.43733 348.028 5.12C348.433 5.80266 348.678 6.67733 348.764 7.744C349.318 13.888 349.809 20.0213 350.236 26.144C350.662 32.2667 351.046 38.4 351.388 44.544C351.452 45.7813 351.238 46.7413 350.748 47.424C350.257 48.1067 349.404 48.448 348.188 48.448C346.908 48.448 346.065 48.096 345.66 47.392C345.254 46.688 345.03 45.5253 344.988 43.904C344.966 42.0693 344.998 40.2773 345.084 38.528C345.19 36.7573 345.222 35.0933 345.18 33.536C345.18 32.832 345.03 32.3307 344.732 32.032C344.454 31.712 344.006 31.552 343.388 31.552C343.11 31.552 342.833 31.552 342.556 31.552C342.3 31.5307 342.022 31.52 341.724 31.52C341.596 31.52 341.468 31.52 341.34 31.52C341.212 31.52 341.084 31.52 340.956 31.52C340.849 31.52 340.742 31.52 340.636 31.52C340.508 31.52 340.39 31.52 340.284 31.52C340.177 31.52 340.07 31.52 339.964 31.52C339.857 31.52 339.718 31.52 339.548 31.52C339.206 31.52 338.833 31.5307 338.428 31.552C338.044 31.552 337.713 31.5627 337.436 31.584C337.308 31.584 337.169 31.5947 337.02 31.616C336.892 31.616 336.764 31.6267 336.636 31.648C336.508 31.648 336.369 31.6587 336.22 31.68C336.006 31.7013 335.782 31.7227 335.548 31.744C335.334 31.744 335.11 31.7653 334.876 31.808C334.726 31.8293 334.577 31.8507 334.428 31.872C334.3 31.872 334.172 31.8827 334.044 31.904C333.468 31.968 333.02 32.1387 332.7 32.416C332.38 32.672 332.252 33.1733 332.316 33.92C332.422 35.3493 332.572 36.864 332.764 38.464C332.977 40.064 333.126 41.7493 333.212 43.52C333.34 45.5893 332.945 47.2213 332.028 48.416C331.11 49.5893 329.542 50.176 327.324 50.176C325.318 50.176 323.9 49.6107 323.068 48.48C322.257 47.328 321.82 45.9733 321.756 44.416ZM330.716 31.36C330.502 31.36 330.332 31.296 330.204 31.168C330.076 31.0187 330.012 30.8693 330.012 30.72C330.012 30.5493 330.076 30.4107 330.204 30.304C330.332 30.1973 330.502 30.144 330.716 30.144C330.886 30.144 331.014 30.208 331.1 30.336C331.185 30.4427 331.228 30.592 331.228 30.784C331.228 30.9333 331.185 31.072 331.1 31.2C331.014 31.3067 330.886 31.36 330.716 31.36ZM333.852 16.768C335.046 16.832 335.91 17.024 336.444 17.344C336.977 17.6427 337.244 18.112 337.244 18.752C337.244 19.456 336.966 19.9787 336.412 20.32C335.857 20.6613 335.068 20.864 334.044 20.928C332.55 21.056 331.174 21.1413 329.916 21.184C328.657 21.2267 327.43 21.2693 326.236 21.312C324.806 21.3333 323.825 21.1093 323.292 20.64C322.78 20.1707 322.524 19.648 322.524 19.072C322.524 18.4533 322.78 17.9093 323.292 17.44C323.825 16.9707 324.806 16.7253 326.236 16.704C327.388 16.6613 328.604 16.6507 329.884 16.672C331.185 16.672 332.508 16.704 333.852 16.768ZM347.804 48.192C347.078 48.192 346.492 47.9573 346.044 47.488C345.596 46.9973 345.372 46.4213 345.372 45.76C345.372 45.0773 345.564 44.5227 345.948 44.096C346.353 43.6693 346.844 43.456 347.42 43.456C348.316 43.456 348.988 43.6693 349.436 44.096C349.884 44.5013 350.108 45.056 350.108 45.76C350.108 46.528 349.873 47.1253 349.404 47.552C348.956 47.9787 348.422 48.192 347.804 48.192ZM351.004 8.96C352.39 9.04533 353.35 9.28 353.884 9.664C354.438 10.048 354.716 10.5813 354.716 11.264C354.716 12.032 354.385 12.544 353.724 12.8C353.062 13.056 352.07 13.184 350.748 13.184C348.934 13.184 347.1 13.1733 345.244 13.152C343.409 13.1093 341.574 13.056 339.74 12.992C338.374 12.928 337.35 12.7147 336.668 12.352C335.985 11.968 335.644 11.3493 335.644 10.496C335.644 9.55733 336.006 8.928 336.732 8.608C337.478 8.26667 338.438 8.128 339.612 8.192C341.66 8.27733 343.612 8.384 345.468 8.512C347.345 8.64 349.19 8.78933 351.004 8.96Z" fill="#F9DC00"/>
</svg>
