<svg width="576" height="96" viewBox="0 0 576 96" fill="none" xmlns="http://www.w3.org/2000/svg">
<path d="M131.696 73.128C129.776 73.128 128.144 72.6267 126.8 71.624C125.456 70.6213 124.475 69.2453 123.856 67.496C123.664 66.9413 123.461 66.3653 123.248 65.768C123.035 65.1707 122.832 64.5733 122.64 63.976C122.555 63.7413 122.469 63.5067 122.384 63.272C122.32 63.016 122.245 62.7813 122.16 62.568C122.075 62.2693 121.979 61.992 121.872 61.736C121.787 61.4587 121.701 61.2027 121.616 60.968C121.488 60.5627 121.328 60.0933 121.136 59.56C120.944 59.0053 120.763 58.504 120.592 58.056C120.507 57.7573 120.421 57.4907 120.336 57.256C120.251 57.0213 120.176 56.8187 120.112 56.648C120.048 56.4347 119.973 56.2107 119.888 55.976C119.803 55.7413 119.717 55.496 119.632 55.24C119.568 54.984 119.483 54.7173 119.376 54.44C118.928 53.0747 118.395 51.4427 117.776 49.544C117.157 47.624 116.528 45.672 115.888 43.688C115.248 41.6827 114.651 39.8267 114.096 38.12C113.563 36.4133 113.147 35.0693 112.848 34.088C112.336 32.36 112.368 31.048 112.944 30.152C113.52 29.2347 114.384 28.776 115.536 28.776C116.304 28.776 116.955 29.064 117.488 29.64C118.043 30.216 118.48 31.08 118.8 32.232C119.931 36.0293 121.029 39.9547 122.096 44.008C123.184 48.04 124.347 51.9653 125.584 55.784C125.947 56.9573 126.352 57.8 126.8 58.312C127.269 58.824 127.867 59.08 128.592 59.08C129.275 59.08 129.904 58.8453 130.48 58.376C131.056 57.8853 131.579 57.1067 132.048 56.04C133.883 51.7733 135.632 47.5067 137.296 43.24C138.96 38.952 140.667 34.6853 142.416 30.44C142.864 29.3733 143.376 28.6053 143.952 28.136C144.528 27.6667 145.147 27.432 145.808 27.432C147.067 27.432 147.845 27.8907 148.144 28.808C148.464 29.7253 148.475 30.824 148.176 32.104C147.323 36.0293 146.416 39.9653 145.456 43.912C144.496 47.8373 143.504 51.752 142.48 55.656C141.349 55.2293 140.293 54.9093 139.312 54.696C138.331 54.4827 137.541 54.4827 136.944 54.696C136.368 54.9093 136.08 55.4533 136.08 56.328C136.08 56.9253 136.464 57.4373 137.232 57.864C138.021 58.2693 139.493 58.6853 141.648 59.112C141.52 59.688 141.371 60.2427 141.2 60.776C141.051 61.3093 140.88 61.864 140.688 62.44C139.173 61.928 137.808 61.544 136.592 61.288C135.397 61.0107 134.448 60.9787 133.744 61.192C133.061 61.384 132.72 61.9173 132.72 62.792C132.72 63.432 133.2 63.9867 134.16 64.456C135.12 64.9253 136.976 65.4053 139.728 65.896C139.728 65.896 139.717 65.9387 139.696 66.024C139.675 66.088 139.643 66.1733 139.6 66.28C139.109 68.0293 138.491 69.4053 137.744 70.408C137.019 71.4107 136.155 72.1147 135.152 72.52C134.149 72.9253 132.997 73.128 131.696 73.128ZM129.616 38.824C128.464 38.824 127.493 38.4613 126.704 37.736C125.915 36.9893 125.52 35.7733 125.52 34.088C125.52 32.8293 125.936 31.848 126.768 31.144C127.6 30.4187 128.656 30.056 129.936 30.056C131.195 30.056 132.229 30.44 133.04 31.208C133.872 31.976 134.288 33.192 134.288 34.856C134.288 35.8373 133.851 36.744 132.976 37.576C132.123 38.408 131.003 38.824 129.616 38.824ZM142.608 44.2C143.056 44.328 143.376 44.552 143.568 44.872C143.76 45.192 143.856 45.544 143.856 45.928C143.856 46.44 143.76 46.888 143.568 47.272C143.376 47.656 143.099 47.9227 142.736 48.072C142.373 48.2213 141.925 48.232 141.392 48.104C141.2 48.0827 140.997 48.04 140.784 47.976C140.571 47.912 140.368 47.8693 140.176 47.848C139.685 47.72 139.323 47.5067 139.088 47.208C138.853 46.9093 138.736 46.536 138.736 46.088C138.736 45.1493 138.939 44.4773 139.344 44.072C139.749 43.6453 140.389 43.5387 141.264 43.752C141.456 43.816 141.68 43.8907 141.936 43.976C142.192 44.0613 142.416 44.136 142.608 44.2ZM123.088 42.6C124.176 42.3013 125.168 42.088 126.064 41.96C126.96 41.8107 127.664 41.864 128.176 42.12C128.709 42.3547 128.976 42.9093 128.976 43.784C128.976 44.4453 128.603 45 127.856 45.448C127.109 45.8747 125.904 46.3333 124.24 46.824C123.088 47.1653 121.904 47.4853 120.688 47.784C119.493 48.0827 118.288 48.3813 117.072 48.68C115.6 49.0213 114.341 49.192 113.296 49.192C112.251 49.1707 111.728 48.552 111.728 47.336C111.728 46.7813 112.069 46.3227 112.752 45.96C113.435 45.576 114.533 45.1387 116.048 44.648C117.2 44.264 118.352 43.912 119.504 43.592C120.677 43.2507 121.872 42.92 123.088 42.6ZM116.752 33.704C117.435 33.5973 118.021 33.7147 118.512 34.056C119.003 34.376 119.248 34.8773 119.248 35.56C119.248 36.2 119.109 36.6693 118.832 36.968C118.555 37.2453 118.032 37.5013 117.264 37.736C117.072 37.8 116.869 37.8533 116.656 37.896C116.443 37.9173 116.219 37.9493 115.984 37.992C115.408 38.0773 114.949 37.8213 114.608 37.224C114.288 36.6267 114.128 36.072 114.128 35.56C114.128 35.24 114.224 34.9413 114.416 34.664C114.608 34.3653 114.939 34.152 115.408 34.024C115.6 33.96 115.813 33.896 116.048 33.832C116.304 33.768 116.539 33.7253 116.752 33.704ZM167.614 56.808C167.464 56.808 167.315 56.808 167.166 56.808C167.038 56.808 166.888 56.808 166.718 56.808C166.142 56.808 165.704 56.648 165.406 56.328C165.128 56.008 164.99 55.6773 164.99 55.336C164.99 54.9733 165.128 54.6533 165.406 54.376C165.704 54.0773 166.12 53.928 166.654 53.928C166.846 53.928 167.048 53.928 167.262 53.928C167.475 53.928 167.678 53.928 167.87 53.928C168.382 53.928 168.755 54.056 168.99 54.312C169.224 54.5467 169.342 54.8453 169.342 55.208C169.342 55.592 169.192 55.9547 168.894 56.296C168.595 56.6373 168.168 56.808 167.614 56.808ZM165.502 46.44C165.374 46.44 165.246 46.44 165.118 46.44C164.99 46.44 164.862 46.44 164.734 46.44C164.008 46.44 163.528 46.2373 163.294 45.832C163.059 45.4053 162.942 44.9253 162.942 44.392C162.942 43.9653 163.07 43.5813 163.326 43.24C163.582 42.8987 163.944 42.728 164.414 42.728C164.606 42.728 164.808 42.728 165.022 42.728C165.235 42.728 165.438 42.728 165.63 42.728C166.142 42.728 166.558 42.9093 166.878 43.272C167.198 43.6133 167.358 44.0933 167.358 44.712C167.358 45.288 167.251 45.7253 167.038 46.024C166.846 46.3013 166.334 46.44 165.502 46.44ZM155.39 38.504C156.414 38.504 157.182 38.7813 157.694 39.336C158.206 39.8693 158.462 40.7227 158.462 41.896C158.462 42.792 158.216 43.4747 157.726 43.944C157.235 44.4133 156.52 44.648 155.582 44.648C154.494 44.648 153.662 44.3387 153.086 43.72C152.531 43.08 152.254 42.216 152.254 41.128C152.254 40.232 152.542 39.5707 153.118 39.144C153.715 38.7173 154.472 38.504 155.39 38.504ZM150.27 69.48C150.27 68.7333 150.451 68.1893 150.814 67.848C151.198 67.4853 151.784 67.176 152.574 66.92C153.064 66.7493 153.576 66.6107 154.11 66.504C154.664 66.376 155.24 66.216 155.838 66.024C156.798 65.704 157.491 65.3413 157.918 64.936C158.344 64.5307 158.632 63.9333 158.782 63.144C158.824 62.952 158.856 62.7707 158.878 62.6C158.92 62.4293 158.952 62.248 158.974 62.056C161.384 62.5253 163.016 62.6 163.87 62.28C164.723 61.9387 165.15 61.352 165.15 60.52C165.171 59.9013 164.808 59.432 164.062 59.112C163.336 58.792 161.875 58.536 159.678 58.344C159.806 57.704 159.934 57.0747 160.062 56.456C160.211 55.8373 160.318 55.208 160.382 54.568C161.811 54.6533 162.942 54.6533 163.774 54.568C164.606 54.4613 165.192 54.2693 165.534 53.992C165.896 53.7147 166.078 53.32 166.078 52.808C166.078 52.1467 165.715 51.6453 164.99 51.304C164.286 50.9413 162.984 50.664 161.086 50.472C161.491 48.168 161.875 45.8533 162.238 43.528C162.6 41.1813 162.942 38.8453 163.262 36.52C163.39 35.56 163.315 34.952 163.038 34.696C162.76 34.44 162.238 34.344 161.47 34.408C160.339 34.4293 159.411 34.4827 158.686 34.568C157.982 34.6533 157.118 34.728 156.094 34.792C154.92 34.8133 153.96 34.6853 153.214 34.408C152.488 34.1093 152.126 33.448 152.126 32.424C152.126 31.5493 152.478 30.888 153.182 30.44C153.907 29.992 155.048 29.6933 156.606 29.544C158.91 29.3093 161.619 29.0533 164.734 28.776C167.848 28.4773 170.792 28.2427 173.566 28.072C174.952 27.9653 175.955 28.0507 176.574 28.328C177.214 28.584 177.534 29.16 177.534 30.056C177.534 30.824 177.256 31.432 176.702 31.88C176.147 32.328 175.422 32.7227 174.526 33.064C173.822 33.3413 173.064 33.5973 172.254 33.832C171.464 34.0667 170.536 34.3867 169.47 34.792C168.702 35.0693 168.2 35.4 167.966 35.784C167.752 36.1467 167.678 36.648 167.742 37.288C168.126 41.896 168.584 46.504 169.118 51.112C169.651 55.72 170.238 60.328 170.878 64.936C170.984 65.64 171.187 66.1733 171.486 66.536C171.806 66.8773 172.286 67.1333 172.926 67.304C173.48 67.432 173.971 67.528 174.398 67.592C174.824 67.656 175.294 67.752 175.806 67.88C176.424 68.008 176.979 68.2213 177.47 68.52C177.982 68.7973 178.238 69.3093 178.238 70.056C178.238 70.7173 178.067 71.2187 177.726 71.56C177.384 71.88 176.915 72.0933 176.318 72.2C175.72 72.3067 175.038 72.36 174.27 72.36C173.992 72.36 173.544 72.36 172.926 72.36C172.328 72.3387 171.635 72.3173 170.846 72.296C170.611 72.296 170.366 72.2853 170.11 72.264C169.854 72.2427 169.587 72.232 169.31 72.232C169.054 72.232 168.787 72.232 168.51 72.232C168.232 72.232 167.934 72.232 167.614 72.232C167.315 72.2107 167.016 72.2 166.718 72.2C166.419 72.1787 166.11 72.168 165.79 72.168C165.278 72.1467 164.755 72.136 164.222 72.136C163.71 72.136 163.198 72.1253 162.686 72.104C162.344 72.0827 161.992 72.072 161.63 72.072C161.288 72.0507 160.947 72.04 160.606 72.04C160.286 72.0187 159.955 72.008 159.614 72.008C159.379 72.008 159.134 72.008 158.878 72.008C158.643 71.9867 158.408 71.976 158.174 71.976C157.939 71.9547 157.715 71.944 157.502 71.944C156.755 71.9013 156.083 71.8693 155.486 71.848C154.91 71.8267 154.451 71.8053 154.11 71.784C152.958 71.72 152.03 71.5387 151.326 71.24C150.622 70.92 150.27 70.3333 150.27 69.48ZM196.518 71.528C194.321 71.528 192.422 71.176 190.822 70.472C189.243 69.7467 187.942 68.84 186.918 67.752C185.915 66.6427 185.169 65.512 184.678 64.36C184.209 63.208 183.974 62.2053 183.974 61.352C183.974 60.6053 184.134 60.0827 184.454 59.784C184.795 59.464 185.254 59.304 185.83 59.304C186.406 59.304 186.843 59.4747 187.142 59.816C187.462 60.1573 187.729 60.648 187.942 61.288C188.347 62.44 188.913 63.4747 189.638 64.392C190.385 65.3093 191.323 66.0347 192.454 66.568C193.606 67.1013 194.982 67.368 196.582 67.368C198.609 67.368 200.251 66.8667 201.51 65.864C202.79 64.84 203.43 63.4853 203.43 61.8C203.43 60.3707 203.057 59.2293 202.31 58.376C201.563 57.5013 200.571 56.7867 199.334 56.232C198.118 55.656 196.774 55.1333 195.302 54.664C193.851 54.1947 192.39 53.6507 190.918 53.032C189.467 52.4133 188.123 51.6133 186.886 50.632C185.67 49.6507 184.689 48.3707 183.942 46.792C183.195 45.2133 182.822 43.2187 182.822 40.808C182.822 38.0133 183.387 35.656 184.518 33.736C185.649 31.816 187.259 30.3653 189.35 29.384C191.441 28.3813 193.915 27.88 196.774 27.88C199.313 27.88 201.457 28.1893 203.206 28.808C204.955 29.4267 206.353 30.216 207.398 31.176C208.465 32.1147 209.233 33.0853 209.702 34.088C210.171 35.0907 210.406 35.9653 210.406 36.712C210.406 37.6293 210.161 38.3013 209.67 38.728C209.179 39.1333 208.614 39.336 207.974 39.336C207.313 39.336 206.747 39.1013 206.278 38.632C205.809 38.1413 205.318 37.5867 204.806 36.968C204.315 36.3493 203.675 35.8053 202.886 35.336C202.097 34.8453 201.041 34.6 199.718 34.6C198.161 34.6 196.934 35.0373 196.038 35.912C195.163 36.7867 194.726 37.9493 194.726 39.4C194.726 40.68 194.971 41.7893 195.462 42.728C195.974 43.6667 196.646 44.52 197.478 45.288C198.331 46.0347 199.249 46.7493 200.23 47.432C201.233 48.0933 202.225 48.7973 203.206 49.544C204.209 50.2907 205.126 51.144 205.958 52.104C206.811 53.0427 207.483 54.1413 207.974 55.4C208.486 56.6587 208.742 58.152 208.742 59.88C208.742 61.6507 208.465 63.2507 207.91 64.68C207.377 66.1093 206.587 67.336 205.542 68.36C204.497 69.384 203.217 70.1733 201.702 70.728C200.187 71.2613 198.459 71.528 196.518 71.528ZM192.614 50.152C194.193 50.152 194.982 49.4907 194.982 48.168C194.982 47.464 194.811 46.9307 194.47 46.568C194.129 46.184 193.638 45.992 192.998 45.992C192.209 45.992 191.643 46.1733 191.302 46.536C190.982 46.8987 190.822 47.4213 190.822 48.104C190.822 48.7013 190.993 49.192 191.334 49.576C191.675 49.96 192.102 50.152 192.614 50.152ZM189.094 44.968C189.926 44.968 190.545 44.744 190.95 44.296C191.377 43.8267 191.59 43.2613 191.59 42.6C191.59 41.768 191.387 41.16 190.982 40.776C190.577 40.3707 189.947 40.168 189.094 40.168C188.305 40.168 187.718 40.36 187.334 40.744C186.971 41.1067 186.79 41.7253 186.79 42.6C186.79 43.368 187.003 43.9547 187.43 44.36C187.878 44.7653 188.433 44.968 189.094 44.968ZM189.35 38.056C190.161 38.056 190.758 37.8747 191.142 37.512C191.526 37.128 191.718 36.584 191.718 35.88C191.718 35.1333 191.547 34.6 191.206 34.28C190.865 33.9387 190.246 33.768 189.35 33.768C188.838 33.768 188.39 33.9387 188.006 34.28C187.622 34.6 187.43 35.1333 187.43 35.88C187.43 36.52 187.601 37.0427 187.942 37.448C188.305 37.8533 188.774 38.056 189.35 38.056ZM208.102 38.824C207.59 38.824 207.185 38.6853 206.886 38.408C206.587 38.1093 206.438 37.672 206.438 37.096C206.438 36.5413 206.609 36.1253 206.95 35.848C207.313 35.5707 207.761 35.432 208.294 35.432C208.785 35.432 209.158 35.6027 209.414 35.944C209.691 36.264 209.83 36.6693 209.83 37.16C209.83 37.672 209.681 38.0773 209.382 38.376C209.083 38.6747 208.657 38.824 208.102 38.824ZM204.07 66.856L206.31 64.488C208.294 65.9387 209.745 67.0907 210.662 67.944C211.579 68.776 212.113 69.4373 212.262 69.928C212.433 70.3973 212.369 70.824 212.07 71.208C211.707 71.6773 211.249 71.88 210.694 71.816C210.161 71.7307 209.371 71.304 208.326 70.536C207.302 69.7467 205.883 68.52 204.07 66.856ZM199.142 69.48L202.854 67.816C204.177 70.632 205.115 72.7867 205.67 74.28C206.225 75.7947 206.459 76.872 206.374 77.512C206.31 78.152 205.99 78.5893 205.414 78.824C204.795 79.08 204.219 78.984 203.686 78.536C203.174 78.1093 202.566 77.1813 201.862 75.752C201.179 74.3227 200.273 72.232 199.142 69.48ZM193.382 70.184L197.094 70.312C197.307 73.32 197.414 75.6027 197.414 77.16C197.435 78.7173 197.297 79.7733 196.998 80.328C196.699 80.904 196.177 81.2133 195.43 81.256C194.811 81.2773 194.321 81.0107 193.958 80.456C193.595 79.9227 193.361 78.856 193.254 77.256C193.169 75.6773 193.211 73.32 193.382 70.184ZM188.518 68.968C188.625 68.84 188.731 68.712 188.838 68.584C188.966 68.456 189.073 68.3493 189.158 68.264C189.521 67.9013 189.894 67.7307 190.278 67.752C190.662 67.7733 190.993 67.9013 191.27 68.136C191.633 68.3493 191.878 68.6693 192.006 69.096C192.155 69.5013 192.102 69.864 191.846 70.184C191.782 70.2693 191.707 70.376 191.622 70.504C191.537 70.6107 191.462 70.7173 191.398 70.824C190.033 72.616 188.945 73.864 188.134 74.568C187.323 75.2933 186.683 75.6773 186.214 75.72C185.766 75.7627 185.403 75.6667 185.126 75.432C184.87 75.1973 184.721 74.8667 184.678 74.44C184.657 74.0133 184.913 73.3733 185.446 72.52C186.001 71.6667 187.025 70.4827 188.518 68.968ZM187.366 63.016L188.326 66.024C186.555 66.8773 185.158 67.5067 184.134 67.912C183.131 68.296 182.374 68.456 181.862 68.392C181.371 68.328 181.009 68.0293 180.774 67.496C180.518 66.856 180.561 66.312 180.902 65.864C181.265 65.3947 181.969 64.9467 183.014 64.52C184.081 64.0933 185.531 63.592 187.366 63.016ZM216.422 69.352C216.337 65.768 216.273 62.12 216.23 58.408C216.187 54.6747 216.145 50.984 216.102 47.336C217.958 47.464 219.27 47.368 220.038 47.048C220.827 46.728 221.222 46.184 221.222 45.416C221.222 44.904 221.062 44.4987 220.742 44.2C220.422 43.88 219.878 43.6667 219.11 43.56C218.363 43.432 217.339 43.3893 216.038 43.432C216.038 42.92 216.038 42.3973 216.038 41.864C216.038 41.3307 216.038 40.808 216.038 40.296C218.897 40.36 220.785 40.1893 221.702 39.784C222.619 39.3787 223.078 38.7813 223.078 37.992C223.078 37.4373 222.865 37.0107 222.438 36.712C222.033 36.4133 221.318 36.232 220.294 36.168C219.27 36.0827 217.862 36.0933 216.07 36.2C216.049 36.0507 216.038 35.9227 216.038 35.816C216.038 35.688 216.038 35.56 216.038 35.432C216.038 33.0853 216.507 31.3467 217.446 30.216C218.385 29.064 220.006 28.4987 222.31 28.52C224.273 28.52 225.723 29.16 226.662 30.44C227.601 31.72 227.985 33.576 227.814 36.008C227.686 38.12 227.505 40.2213 227.27 42.312C227.035 44.4027 226.854 46.5253 226.726 48.68C226.705 49.2773 226.779 49.7147 226.95 49.992C227.121 50.248 227.494 50.4293 228.07 50.536C229.67 50.792 231.27 50.984 232.87 51.112C234.491 51.24 236.134 51.3467 237.798 51.432C238.353 51.4533 238.726 51.3893 238.918 51.24C239.131 51.0907 239.249 50.6853 239.27 50.024C239.441 46.7813 239.579 43.592 239.686 40.456C239.814 37.32 239.953 34.3013 240.102 31.4C240.166 30.2693 240.401 29.384 240.806 28.744C241.211 28.0827 241.873 27.752 242.79 27.752C243.75 27.752 244.411 28.0827 244.774 28.744C245.158 29.4053 245.35 30.3973 245.35 31.72C245.393 38.184 245.382 44.7653 245.318 51.464C245.254 58.1627 245.137 64.872 244.966 71.592C244.945 72.872 244.678 73.8747 244.166 74.6C243.675 75.3253 242.833 75.688 241.638 75.688C240.422 75.688 239.547 75.2827 239.014 74.472C238.481 73.6827 238.225 72.6373 238.246 71.336C238.31 69.096 238.417 66.888 238.566 64.712C238.715 62.536 238.822 60.3493 238.886 58.152C238.907 57.704 238.833 57.3733 238.662 57.16C238.513 56.9253 238.246 56.776 237.862 56.712C237.606 56.6693 237.361 56.6373 237.126 56.616C236.891 56.5733 236.646 56.5413 236.39 56.52C236.177 56.4987 235.953 56.4773 235.718 56.456C235.505 56.4347 235.281 56.4133 235.046 56.392C234.811 56.3707 234.577 56.3493 234.342 56.328C234.15 56.3067 233.958 56.2853 233.766 56.264C233.595 56.2427 233.414 56.2213 233.222 56.2C233.051 56.1787 232.87 56.168 232.678 56.168C232.273 56.1253 231.867 56.0933 231.462 56.072C231.078 56.0293 230.673 55.9973 230.246 55.976C229.99 55.9547 229.734 55.9333 229.478 55.912C229.222 55.8693 228.977 55.848 228.742 55.848C228.529 55.8267 228.305 55.8053 228.07 55.784C227.814 55.7627 227.558 55.7413 227.302 55.72C227.046 55.6987 226.79 55.6773 226.534 55.656C226.321 55.6347 226.086 55.624 225.83 55.624C225.595 55.624 225.361 55.6133 225.126 55.592C224.593 55.5493 224.134 55.656 223.75 55.912C223.366 56.168 223.142 56.5733 223.078 57.128C222.886 59.24 222.715 61.3947 222.566 63.592C222.417 65.768 222.225 67.8373 221.99 69.8C221.905 70.6533 221.627 71.4 221.158 72.04C220.689 72.68 220.006 73 219.11 73C218.15 73 217.467 72.6693 217.062 72.008C216.678 71.3253 216.465 70.44 216.422 69.352ZM223.91 53.864C223.441 53.864 223.078 53.7253 222.822 53.448C222.566 53.1707 222.438 52.712 222.438 52.072C222.438 51.7093 222.587 51.3893 222.886 51.112C223.206 50.8133 223.633 50.664 224.166 50.664C224.593 50.664 224.945 50.824 225.222 51.144C225.499 51.464 225.638 51.8373 225.638 52.264C225.638 52.7333 225.467 53.1173 225.126 53.416C224.806 53.7147 224.401 53.864 223.91 53.864ZM246.694 41.768C247.761 41.832 248.593 42.0347 249.19 42.376C249.787 42.696 250.086 43.24 250.086 44.008C250.086 44.712 249.766 45.192 249.126 45.448C248.486 45.704 247.633 45.8853 246.566 45.992C245.393 46.056 243.985 46.12 242.342 46.184C240.721 46.2267 239.078 46.248 237.414 46.248C235.985 46.248 234.971 46.056 234.374 45.672C233.798 45.2667 233.51 44.6693 233.51 43.88C233.51 43.0693 233.851 42.4933 234.534 42.152C235.238 41.8107 236.219 41.64 237.478 41.64C239.078 41.64 240.625 41.6507 242.118 41.672C243.633 41.672 245.158 41.704 246.694 41.768ZM231.206 69.864C230.033 69.864 229.073 69.5013 228.326 68.776C227.601 68.0293 227.238 67.0053 227.238 65.704C227.238 64.8293 227.537 64.072 228.134 63.432C228.731 62.7707 229.734 62.44 231.142 62.44C232.209 62.44 233.062 62.7493 233.702 63.368C234.342 63.9653 234.662 64.9573 234.662 66.344C234.662 67.3253 234.31 68.1573 233.606 68.84C232.902 69.5227 232.102 69.864 231.206 69.864ZM246.054 32.424C247.441 32.5093 248.465 32.7333 249.126 33.096C249.809 33.4587 250.15 34.024 250.15 34.792C250.15 35.6453 249.755 36.2107 248.966 36.488C248.198 36.744 247.142 36.84 245.798 36.776C244.369 36.712 242.929 36.6267 241.478 36.52C240.049 36.392 238.609 36.264 237.158 36.136C235.857 36.008 234.907 35.7733 234.31 35.432C233.734 35.0693 233.446 34.5573 233.446 33.896C233.446 33.192 233.766 32.7013 234.406 32.424C235.046 32.1253 236.07 31.9973 237.478 32.04C238.929 32.0613 240.358 32.104 241.766 32.168C243.195 32.232 244.625 32.3173 246.054 32.424ZM254.016 68.456C254.037 66.92 254.08 65.1067 254.144 63.016C254.229 60.904 254.325 58.6747 254.432 56.328C254.538 53.96 254.656 51.624 254.784 49.32C254.784 48.9573 254.794 48.616 254.816 48.296C254.858 47.9547 254.88 47.6133 254.88 47.272C254.922 46.9093 254.944 46.568 254.944 46.248C254.944 45.9067 254.954 45.5653 254.976 45.224C255.018 44.584 255.05 43.976 255.072 43.4C255.114 42.8027 255.146 42.216 255.168 41.64C257.663 41.576 259.552 41.4373 260.832 41.224C262.133 41.0107 263.008 40.7013 263.456 40.296C263.904 39.8907 264.106 39.3573 264.064 38.696C264 37.8213 263.37 37.288 262.176 37.096C261.002 36.904 258.752 36.9893 255.424 37.352C255.466 36.8613 255.498 36.392 255.52 35.944C255.562 35.4747 255.594 35.0053 255.616 34.536C255.85 31.8693 256.512 29.9813 257.6 28.872C258.709 27.7413 260.213 27.176 262.112 27.176C263.904 27.176 265.354 27.6453 266.464 28.584C267.594 29.5013 268.736 31.08 269.888 33.32C270.72 34.92 271.626 36.9253 272.608 39.336C273.589 41.7467 274.602 44.3387 275.648 47.112C276.714 49.864 277.77 52.5947 278.816 55.304C279.861 57.992 280.853 60.4133 281.792 62.568C282.026 63.1227 282.346 63.464 282.752 63.592C283.178 63.6987 283.552 63.6133 283.872 63.336C284.213 63.0587 284.373 62.6107 284.352 61.992C284.266 58.728 284.17 55.2293 284.064 51.496C283.957 47.7413 283.861 44.0613 283.776 40.456C283.712 36.8293 283.648 33.576 283.583 30.696C283.541 29.3093 283.712 28.2533 284.096 27.528C284.48 26.7813 285.248 26.408 286.4 26.408C287.594 26.408 288.362 26.7813 288.704 27.528C289.045 28.2533 289.216 29.2667 289.216 30.568C289.216 33.7467 289.216 37.2773 289.216 41.16C289.216 45.0213 289.194 48.968 289.152 53C289.13 57.032 289.066 60.8827 288.96 64.552C288.896 66.6853 288.298 68.1893 287.168 69.064C286.058 69.9387 284.842 70.376 283.52 70.376C282.624 70.376 281.706 70.1947 280.768 69.832C279.829 69.4693 278.869 68.776 277.888 67.752C276.074 65.768 274.314 63.6453 272.608 61.384C270.901 59.1013 269.248 56.8613 267.648 54.664C266.069 52.4453 264.522 50.4507 263.008 48.68C262.645 48.2533 262.368 47.976 262.176 47.848C262.005 47.72 261.802 47.656 261.568 47.656C261.034 47.656 260.629 47.848 260.352 48.232C260.096 48.616 259.968 49.128 259.968 49.768C259.968 51.816 260.021 53.8747 260.128 55.944C260.256 58.0133 260.362 60.0933 260.448 62.184C260.554 64.2747 260.608 66.3653 260.608 68.456C260.608 69.9707 260.362 71.144 259.872 71.976C259.381 72.7867 258.496 73.192 257.216 73.192C255.914 73.192 255.05 72.7333 254.624 71.816C254.197 70.8773 253.994 69.7573 254.016 68.456ZM284.032 32.296C284.33 32.3173 284.608 32.3493 284.864 32.392C285.141 32.4133 285.418 32.4453 285.696 32.488C286.08 32.552 286.4 32.68 286.656 32.872C286.933 33.064 287.136 33.32 287.264 33.64C287.413 33.9387 287.488 34.28 287.488 34.664C287.488 35.0267 287.424 35.3573 287.296 35.656C287.168 35.9333 286.954 36.168 286.656 36.36C286.378 36.5307 285.994 36.6267 285.504 36.648C285.248 36.648 284.992 36.648 284.736 36.648C284.48 36.648 284.224 36.648 283.968 36.648C281.92 36.5627 280.373 36.424 279.328 36.232C278.282 36.04 277.578 35.7733 277.216 35.432C276.853 35.0907 276.672 34.6427 276.672 34.088C276.672 33.4693 276.853 33 277.216 32.68C277.6 32.3387 278.314 32.136 279.36 32.072C280.426 31.9867 281.984 32.0613 284.032 32.296ZM286.144 37.16C286.272 37.16 286.4 37.16 286.528 37.16C286.656 37.16 286.784 37.16 286.912 37.16C287.21 37.16 287.562 37.3627 287.968 37.768C288.373 38.152 288.576 38.6747 288.576 39.336C288.576 39.976 288.394 40.4773 288.032 40.84C287.69 41.2027 287.37 41.384 287.072 41.384C286.88 41.384 286.72 41.384 286.592 41.384C286.485 41.384 286.325 41.384 286.111 41.384C285.6 41.384 285.216 41.2027 284.96 40.84C284.725 40.456 284.608 39.912 284.608 39.208C284.608 38.4613 284.746 37.9387 285.024 37.64C285.301 37.32 285.674 37.16 286.144 37.16ZM287.552 41.32C287.85 41.2773 288.096 41.2453 288.288 41.224C288.501 41.2027 288.704 41.192 288.896 41.192C290.538 41.064 291.754 41.064 292.544 41.192C293.333 41.32 293.845 41.5547 294.08 41.896C294.314 42.2373 294.432 42.664 294.432 43.176C294.432 43.752 294.314 44.232 294.08 44.616C293.866 45 293.365 45.2773 292.576 45.448C291.808 45.6187 290.624 45.672 289.024 45.608C288.768 45.608 288.49 45.608 288.192 45.608C287.914 45.5867 287.658 45.544 287.424 45.48C286.826 45.352 286.4 45.0853 286.144 44.68C285.888 44.2533 285.76 43.7733 285.76 43.24C285.76 42.7067 285.92 42.2693 286.24 41.928C286.581 41.5867 287.018 41.384 287.552 41.32ZM258.784 61.48C259.85 61.48 260.96 61.5013 262.112 61.544C263.264 61.5653 264.448 61.608 265.664 61.672C266.624 61.7147 267.381 61.928 267.936 62.312C268.512 62.696 268.8 63.2933 268.8 64.104C268.8 65.0213 268.501 65.6613 267.904 66.024C267.328 66.3867 266.474 66.536 265.344 66.472C264.042 66.408 262.762 66.3333 261.504 66.248C260.245 66.1413 259.146 66.0453 258.208 65.96C257.034 65.832 256.298 65.5653 256 65.16C255.701 64.7547 255.552 64.2533 255.552 63.656C255.552 62.952 255.765 62.4187 256.192 62.056C256.618 61.672 257.482 61.48 258.784 61.48ZM265.472 65.96C265.024 65.96 264.629 65.7893 264.288 65.448C263.968 65.0853 263.808 64.616 263.808 64.04C263.808 63.464 263.989 63.016 264.352 62.696C264.714 62.3547 265.258 62.184 265.984 62.184C266.368 62.184 266.73 62.344 267.072 62.664C267.413 62.9627 267.583 63.4 267.583 63.976C267.583 64.5733 267.402 65.0533 267.04 65.416C266.698 65.7787 266.176 65.96 265.472 65.96ZM269.12 48.744C270.016 48.744 270.698 48.4453 271.168 47.848C271.637 47.2507 271.872 46.4613 271.872 45.48C271.872 44.776 271.594 44.1467 271.04 43.592C270.506 43.016 269.738 42.728 268.736 42.728C267.882 42.728 267.189 43.0267 266.656 43.624C266.122 44.2 265.856 45.032 265.856 46.12C265.856 46.9093 266.122 47.5493 266.656 48.04C267.21 48.5093 268.032 48.744 269.12 48.744ZM314.925 71.528C312.856 71.528 310.989 71.2507 309.325 70.696C307.661 70.1413 306.221 69.288 305.005 68.136C303.789 66.9627 302.808 65.512 302.061 63.784C301.314 62.0347 300.824 60.008 300.589 57.704C300.44 56.3173 300.269 54.6747 300.077 52.776C299.906 50.856 299.736 48.8507 299.565 46.76C299.394 44.648 299.234 42.6 299.085 40.616C298.936 38.6107 298.808 36.8293 298.701 35.272C298.616 33.6933 298.573 32.5093 298.573 31.72C298.573 30.2693 298.882 29.224 299.501 28.584C300.12 27.944 301.016 27.624 302.189 27.624C303.405 27.624 304.269 28.008 304.781 28.776C305.314 29.5227 305.581 30.76 305.581 32.488C305.581 33.576 305.57 34.6853 305.549 35.816C305.528 36.9467 305.496 38.0987 305.453 39.272C305.432 40.424 305.41 41.5973 305.389 42.792C305.368 43.9867 305.346 45.1813 305.325 46.376C305.304 47.5707 305.293 48.7653 305.293 49.96C305.293 51.7307 305.357 53.2453 305.485 54.504C305.613 55.7413 305.965 56.68 306.541 57.32C307.138 57.96 308.141 58.28 309.549 58.28C311.213 58.28 312.76 57.9173 314.189 57.192C315.64 56.4667 316.952 55.3893 318.125 53.96C319.298 52.5307 320.28 50.7493 321.069 48.616C321.581 47.208 322.05 45.8427 322.477 44.52C322.904 43.176 323.309 41.864 323.693 40.584C324.077 39.304 324.461 38.0453 324.845 36.808C325.229 35.5493 325.634 34.3013 326.061 33.064C326.381 32.1253 326.733 31.432 327.117 30.984C327.522 30.536 328.045 30.312 328.685 30.312C329.368 30.312 329.848 30.568 330.125 31.08C330.402 31.5707 330.552 32.2853 330.573 33.224C330.552 34.2267 330.509 35.5067 330.445 37.064C330.381 38.6 330.306 40.2747 330.221 42.088C330.136 43.9013 330.029 45.736 329.901 47.592C329.773 49.448 329.634 51.2187 329.485 52.904C329.357 54.568 329.24 56.0187 329.133 57.256C328.792 60.7973 327.917 63.6133 326.509 65.704C325.101 67.7733 323.384 69.2667 321.357 70.184C319.33 71.08 317.186 71.528 314.925 71.528ZM312.045 55.144C311.064 55.144 310.285 54.824 309.709 54.184C309.133 53.5227 308.845 52.5947 308.845 51.4C308.845 50.632 309.069 49.96 309.517 49.384C309.965 48.7867 310.648 48.488 311.565 48.488C312.845 48.488 313.816 48.744 314.477 49.256C315.16 49.7467 315.501 50.4933 315.501 51.496C315.501 52.6907 315.181 53.5973 314.541 54.216C313.901 54.8347 313.069 55.144 312.045 55.144ZM300.845 36.584C301.848 36.52 302.605 36.616 303.117 36.872C303.629 37.1067 303.885 37.672 303.885 38.568C303.885 39.1013 303.693 39.5173 303.309 39.816C302.925 40.0933 302.264 40.296 301.325 40.424C300.856 40.4667 300.397 40.5413 299.949 40.648C299.501 40.7333 299.053 40.808 298.605 40.872C297.24 41.064 296.141 41.1173 295.309 41.032C294.477 40.9467 294.061 40.36 294.061 39.272C294.061 38.632 294.36 38.152 294.957 37.832C295.554 37.512 296.472 37.2453 297.709 37.032C298.221 36.9253 298.744 36.8293 299.277 36.744C299.81 36.6587 300.333 36.6053 300.845 36.584ZM309.485 41.64C310.36 41.5547 311.096 41.5227 311.693 41.544C312.312 41.544 312.781 41.672 313.101 41.928C313.421 42.1627 313.581 42.5573 313.581 43.112C313.581 43.5173 313.453 43.8693 313.197 44.168C312.962 44.4667 312.568 44.7227 312.013 44.936C311.48 45.1493 310.744 45.3307 309.805 45.48C309.016 45.608 308.141 45.7467 307.181 45.896C306.221 46.0453 305.176 46.184 304.045 46.312C303.17 46.376 302.498 46.312 302.029 46.12C301.581 45.9067 301.357 45.352 301.357 44.456C301.357 43.9653 301.496 43.56 301.773 43.24C302.05 42.8987 302.445 42.6853 302.957 42.6C304.045 42.3653 305.133 42.1733 306.221 42.024C307.309 41.8533 308.397 41.7253 309.485 41.64ZM329.901 48.488C331.949 48.68 333.368 48.968 334.157 49.352C334.946 49.7147 335.341 50.216 335.341 50.856C335.341 52.072 334.765 52.7227 333.613 52.808C332.482 52.872 331.042 52.8613 329.293 52.776C328.717 52.7333 328.12 52.68 327.501 52.616C326.904 52.552 326.296 52.4773 325.677 52.392C325.101 52.2853 324.664 52.0293 324.365 51.624C324.066 51.1973 323.917 50.728 323.917 50.216C323.917 49.6613 324.098 49.1707 324.461 48.744C324.824 48.3173 325.336 48.1253 325.997 48.168C326.616 48.1893 327.256 48.232 327.917 48.296C328.578 48.36 329.24 48.424 329.901 48.488ZM320.269 64.872C320.93 64.872 321.485 64.6267 321.933 64.136C322.381 63.6453 322.605 63.0373 322.605 62.312C322.605 61.352 322.381 60.6267 321.933 60.136C321.485 59.624 320.749 59.368 319.725 59.368C318.936 59.368 318.306 59.5813 317.837 60.008C317.368 60.4347 317.133 61.0533 317.133 61.864C317.133 62.76 317.378 63.4853 317.869 64.04C318.36 64.5947 319.16 64.872 320.269 64.872ZM324.525 58.088C325.08 58.088 325.538 57.8853 325.901 57.48C326.285 57.0533 326.477 56.488 326.477 55.784C326.477 55.08 326.274 54.536 325.869 54.152C325.485 53.7467 325.037 53.544 324.525 53.544C323.565 53.544 322.882 53.7573 322.477 54.184C322.093 54.6107 321.901 55.208 321.901 55.976C321.901 56.552 322.104 57.0533 322.509 57.48C322.936 57.8853 323.608 58.088 324.525 58.088ZM312.621 66.856C313.368 66.856 313.944 66.6533 314.349 66.248C314.776 65.8213 314.989 65.2773 314.989 64.616C314.989 63.8053 314.808 63.2187 314.445 62.856C314.082 62.4933 313.432 62.312 312.493 62.312C311.832 62.312 311.32 62.5147 310.957 62.92C310.616 63.304 310.445 63.784 310.445 64.36C310.445 65.128 310.658 65.736 311.085 66.184C311.512 66.632 312.024 66.856 312.621 66.856ZM348.286 72.68C345.854 72.68 343.763 72.4027 342.014 71.848C340.265 71.272 338.921 70.5573 337.982 69.704C337.065 68.8293 336.606 67.9547 336.606 67.08C336.606 66.696 336.67 66.3653 336.798 66.088C336.947 65.7893 337.15 65.5653 337.406 65.416C337.683 65.2667 338.025 65.192 338.43 65.192C339.177 65.192 339.806 65.3093 340.318 65.544C340.83 65.7573 341.385 65.9813 341.982 66.216C342.579 66.4293 343.369 66.536 344.35 66.536C345.566 66.536 346.633 66.1093 347.55 65.256C348.467 64.4027 349.278 62.7173 349.982 60.2C351.241 55.9333 352.297 52.04 353.15 48.52C354.025 44.9787 354.782 41.512 355.422 38.12C355.593 37.16 355.529 36.4347 355.23 35.944C354.931 35.4533 354.313 35.176 353.374 35.112C351.923 35.0053 350.281 34.952 348.446 34.952C346.633 34.9307 344.329 34.8347 341.534 34.664C339.998 34.6 338.878 34.3653 338.174 33.96C337.47 33.5547 337.118 32.9787 337.118 32.232C337.118 31.4853 337.491 30.92 338.238 30.536C339.006 30.1307 340.19 29.864 341.79 29.736C344.222 29.48 346.643 29.3093 349.054 29.224C351.465 29.1387 353.779 29.096 355.998 29.096C357.598 29.096 358.697 29.3947 359.294 29.992C359.891 30.568 360.35 31.8053 360.67 33.704C360.947 35.432 361.235 37.48 361.534 39.848C361.854 42.216 362.153 44.6373 362.43 47.112C362.707 49.5653 362.931 51.848 363.102 53.96C363.294 56.072 363.39 57.736 363.39 58.952C363.39 62.1307 362.846 64.7333 361.758 66.76C360.67 68.7653 359.006 70.2587 356.766 71.24C354.547 72.2 351.721 72.68 348.286 72.68ZM355.038 42.92C353.31 43.176 351.401 43.4213 349.31 43.656C347.219 43.8693 345.161 44.0507 343.134 44.2C341.79 44.2853 340.745 44.1467 339.998 43.784C339.273 43.4 338.91 42.792 338.91 41.96C338.91 41.1493 339.219 40.552 339.838 40.168C340.457 39.7627 341.513 39.4853 343.006 39.336C344.99 39.1227 347.155 38.92 349.502 38.728C351.849 38.536 354.057 38.44 356.126 38.44C356.425 38.4187 356.659 38.6 356.83 38.984C357.001 39.368 357.086 39.8693 357.086 40.488C357.086 41.0853 356.883 41.6187 356.478 42.088C356.094 42.536 355.614 42.8133 355.038 42.92ZM360.03 47.208C360.521 47.1867 360.905 47.2293 361.182 47.336C361.459 47.4213 361.651 47.6347 361.758 47.976C361.886 48.3173 361.95 48.8293 361.95 49.512C361.95 50.088 361.886 50.504 361.758 50.76C361.651 51.016 361.459 51.1867 361.182 51.272C360.905 51.336 360.542 51.368 360.094 51.368L360.03 47.208ZM344.222 55.976C343.07 55.976 342.153 55.6347 341.47 54.952C340.787 54.248 340.446 53.416 340.446 52.456C340.446 51.176 340.787 50.2053 341.47 49.544C342.174 48.8827 343.198 48.552 344.542 48.552C345.502 48.552 346.291 48.8933 346.91 49.576C347.55 50.2373 347.87 51.1333 347.87 52.264C347.87 53.544 347.518 54.4827 346.814 55.08C346.11 55.6773 345.246 55.976 344.222 55.976ZM355.742 66.344C356.553 66.344 357.203 66.0987 357.694 65.608C358.185 65.1173 358.43 64.36 358.43 63.336C358.43 62.568 358.185 61.992 357.694 61.608C357.225 61.224 356.574 61.032 355.742 61.032C353.993 61.032 353.118 61.8213 353.118 63.4C353.118 64.3173 353.331 65.0427 353.758 65.576C354.185 66.088 354.846 66.344 355.742 66.344ZM356.766 57.448C357.79 57.448 358.537 57.2133 359.006 56.744C359.475 56.2533 359.71 55.6773 359.71 55.016C359.71 54.0773 359.486 53.416 359.038 53.032C358.611 52.648 358.025 52.456 357.278 52.456C356.382 52.456 355.731 52.6587 355.326 53.064C354.921 53.448 354.718 54.12 354.718 55.08C354.718 55.72 354.91 56.2747 355.294 56.744C355.699 57.2133 356.19 57.448 356.766 57.448ZM389.658 50.472C387.482 50.984 385.402 51.4427 383.418 51.848C381.434 52.232 379.46 52.584 377.498 52.904C376.196 53.1173 375.098 53.1067 374.202 52.872C373.327 52.616 372.89 51.88 372.89 50.664C372.89 49.896 373.21 49.32 373.85 48.936C374.49 48.552 375.428 48.232 376.666 47.976C378.628 47.5493 380.719 47.1333 382.938 46.728C385.178 46.3013 387.29 45.9493 389.274 45.672C390.66 45.48 391.674 45.48 392.314 45.672C392.975 45.8427 393.37 46.312 393.498 47.08C393.626 47.9333 393.38 48.6267 392.762 49.16C392.143 49.672 391.108 50.1093 389.658 50.472ZM386.138 41.64C385.114 41.768 384.282 41.8533 383.642 41.896C383.023 41.9387 382.554 41.96 382.234 41.96C381.636 41.96 381.156 41.7893 380.794 41.448C380.431 41.1067 380.25 40.6373 380.25 40.04C380.25 39.4213 380.356 38.9413 380.57 38.6C380.783 38.2373 381.146 38.0133 381.658 37.928C381.85 37.8853 382.212 37.832 382.746 37.768C383.3 37.704 384.388 37.6293 386.01 37.544C387.482 37.4373 388.58 37.512 389.306 37.768C390.052 38.0027 390.426 38.504 390.426 39.272C390.426 40.1253 390.02 40.6907 389.21 40.968C388.42 41.2453 387.396 41.4693 386.138 41.64ZM373.914 37.288C374.874 37.288 375.62 37.5973 376.154 38.216C376.708 38.8347 376.986 39.5493 376.986 40.36C376.986 41.6613 376.676 42.6533 376.058 43.336C375.46 43.9973 374.66 44.328 373.658 44.328C372.42 44.328 371.492 44.008 370.874 43.368C370.255 42.7067 369.946 41.8533 369.946 40.808C369.946 39.656 370.266 38.7813 370.906 38.184C371.567 37.5867 372.57 37.288 373.914 37.288ZM367.578 67.304C367.578 64.872 368.164 63.1547 369.338 62.152C370.511 61.1493 372.239 60.6693 374.522 60.712C375.162 60.712 375.77 60.7227 376.345 60.744C376.943 60.7653 377.54 60.776 378.138 60.776C378.692 60.776 379.076 60.5733 379.29 60.168C379.503 59.7627 379.61 59.2613 379.61 58.664C379.61 58.3653 379.599 57.992 379.578 57.544C379.578 57.0747 379.578 56.584 379.578 56.072C379.578 55.8373 379.567 55.6133 379.546 55.4C379.546 55.1867 379.546 54.9733 379.546 54.76C379.524 54.504 379.514 54.2587 379.514 54.024C379.514 53.7893 379.514 53.5653 379.514 53.352C379.471 51.9013 379.428 50.4187 379.386 48.904C379.343 47.3893 379.3 46.1413 379.258 45.16C379.258 44.968 379.247 44.776 379.226 44.584C379.226 44.3707 379.215 44.168 379.194 43.976C379.194 43.7627 379.194 43.56 379.194 43.368C379.194 43.048 379.183 42.728 379.162 42.408C379.14 42.088 379.119 41.768 379.098 41.448C379.034 40.04 378.97 38.76 378.906 37.608C378.863 36.4347 378.82 35.56 378.778 34.984C378.756 34.4293 378.65 34.0347 378.458 33.8C378.266 33.544 377.86 33.4053 377.242 33.384C376.772 33.3413 376.271 33.3307 375.738 33.352C375.204 33.352 374.596 33.3413 373.914 33.32C372.698 33.256 371.77 33.0213 371.13 32.616C370.511 32.1893 370.202 31.5493 370.202 30.696C370.202 29.8 370.543 29.16 371.226 28.776C371.93 28.3707 372.954 28.136 374.298 28.072C376.666 27.944 379.034 27.848 381.402 27.784C383.791 27.72 385.988 27.688 387.994 27.688C390.084 27.688 391.524 27.8907 392.314 28.296C393.103 28.7013 393.498 29.5013 393.498 30.696C393.498 31.912 393.114 32.7333 392.346 33.16C391.599 33.5653 390.468 33.768 388.954 33.768C388.292 33.768 387.61 33.7467 386.906 33.704C386.223 33.6613 385.54 33.64 384.858 33.64C384.282 33.64 383.919 33.8 383.77 34.12C383.62 34.4187 383.556 34.8773 383.578 35.496C383.812 39.464 384.1 43.4213 384.442 47.368C384.783 51.3147 385.156 55.272 385.562 59.24C385.626 59.88 385.786 60.3493 386.042 60.648C386.319 60.9253 386.842 61.096 387.61 61.16C388.25 61.224 388.868 61.2773 389.466 61.32C390.084 61.3627 390.81 61.4373 391.642 61.544C393.156 61.6933 394.372 62.1413 395.29 62.888C396.228 63.6133 396.698 64.7653 396.698 66.344C396.698 67.56 396.356 68.5307 395.674 69.256C395.012 69.96 394.148 70.4933 393.082 70.856C392.015 71.2187 390.874 71.4853 389.658 71.656C389.252 71.7413 388.836 71.816 388.41 71.88C388.004 71.9227 387.588 71.976 387.162 72.04C387.332 70.6107 387.375 69.512 387.29 68.744C387.204 67.976 387.002 67.4533 386.682 67.176C386.362 66.8773 385.967 66.728 385.498 66.728C384.943 66.728 384.506 66.9093 384.186 67.272C383.887 67.6133 383.674 68.2107 383.546 69.064C383.418 69.896 383.364 71.0587 383.385 72.552C382.746 72.616 382.095 72.68 381.434 72.744C380.772 72.808 380.1 72.872 379.418 72.936C379.183 70.6747 378.927 68.9787 378.65 67.848C378.394 66.696 378.084 65.9387 377.722 65.576C377.38 65.192 376.964 65 376.474 65C375.876 65 375.407 65.2027 375.066 65.608C374.724 66.0133 374.564 66.8133 374.586 68.008C374.628 69.1813 374.916 70.9307 375.45 73.256C375.3 73.256 375.14 73.2667 374.97 73.288C374.82 73.3093 374.66 73.32 374.49 73.32C372.506 73.448 370.852 73.0427 369.53 72.104C368.228 71.1653 367.578 69.5653 367.578 67.304ZM411.47 71.592C411.193 71.592 410.926 71.5387 410.67 71.432C410.414 71.3253 410.169 71.1653 409.934 70.952C409.763 70.7813 409.614 70.568 409.486 70.312C409.358 70.056 409.241 69.704 409.134 69.256C409.049 68.7867 408.974 68.1467 408.91 67.336C408.846 66.5253 408.782 65.4693 408.718 64.168C408.697 63.6347 408.675 63.1227 408.654 62.632C408.633 62.1413 408.611 61.6613 408.59 61.192C408.569 60.7867 408.547 60.392 408.526 60.008C408.526 59.6027 408.515 59.208 408.494 58.824C408.473 58.2693 408.451 57.736 408.43 57.224C408.43 56.712 408.409 56.2107 408.366 55.72C408.366 55.528 408.355 55.336 408.334 55.144C408.334 54.952 408.334 54.76 408.334 54.568C408.334 54.3547 408.323 54.1627 408.302 53.992C408.302 53.7787 408.291 53.576 408.27 53.384C408.27 53.1707 408.259 52.968 408.238 52.776C408.238 52.5627 408.227 52.36 408.206 52.168C408.163 51.1013 408.11 50.0133 408.046 48.904C408.003 47.7733 407.95 46.5893 407.886 45.352C407.822 44.0507 407.513 43.0267 406.958 42.28C406.425 41.5333 405.753 40.9467 404.942 40.52C404.131 40.072 403.267 39.6773 402.35 39.336C401.454 38.9947 400.611 38.5893 399.822 38.12C399.033 37.6507 398.382 37.0107 397.87 36.2C397.379 35.368 397.134 34.2587 397.134 32.872C397.134 31.6987 397.315 30.7387 397.678 29.992C398.041 29.224 398.617 28.6587 399.406 28.296C400.217 27.9333 401.294 27.752 402.638 27.752C402.446 29.992 402.51 31.5173 402.83 32.328C403.171 33.1173 403.662 33.512 404.302 33.512C405.006 33.512 405.539 33.1493 405.902 32.424C406.265 31.6773 406.457 30.1413 406.478 27.816C407.054 27.816 407.651 27.816 408.27 27.816C408.889 27.816 409.486 27.816 410.062 27.816C409.998 29.7147 409.998 31.176 410.062 32.2C410.147 33.2027 410.329 33.896 410.606 34.28C410.883 34.664 411.278 34.856 411.79 34.856C412.238 34.856 412.622 34.6747 412.942 34.312C413.283 33.928 413.539 33.2347 413.71 32.232C413.881 31.2293 413.966 29.7787 413.966 27.88C416.825 27.88 419.129 27.912 420.878 27.976C422.627 28.0187 423.95 28.1253 424.846 28.296C425.763 28.4453 426.371 28.7013 426.67 29.064C426.99 29.4053 427.15 29.8853 427.15 30.504C427.15 31.1653 426.873 31.6667 426.318 32.008C425.785 32.328 425.081 32.5733 424.206 32.744C423.353 32.8933 422.435 33.0427 421.454 33.192C420.494 33.32 419.566 33.5227 418.67 33.8C417.795 34.056 417.059 34.4613 416.462 35.016C415.886 35.5707 415.566 36.36 415.502 37.384C415.118 43.08 414.819 47.8693 414.606 51.752C414.393 55.6133 414.211 58.7707 414.062 61.224C413.934 63.656 413.817 65.544 413.71 66.888C413.603 68.232 413.475 69.2133 413.326 69.832C413.177 70.4293 412.985 70.8453 412.75 71.08C412.622 71.2293 412.43 71.3573 412.174 71.464C411.939 71.5493 411.705 71.592 411.47 71.592ZM421.07 43.496C420.153 43.496 419.331 43.1867 418.606 42.568C417.902 41.9493 417.55 41.064 417.55 39.912C417.55 38.7173 417.87 37.7573 418.51 37.032C419.15 36.3067 420.153 35.944 421.518 35.944C422.585 35.944 423.449 36.296 424.11 37C424.771 37.6827 425.102 38.504 425.102 39.464C425.102 40.872 424.771 41.896 424.11 42.536C423.47 43.176 422.457 43.496 421.07 43.496ZM412.622 64.36L412.43 59.752C414.969 59.6453 416.921 59.6027 418.286 59.624C419.651 59.6453 420.59 59.8053 421.102 60.104C421.635 60.4027 421.902 60.904 421.902 61.608C421.902 62.4613 421.646 63.0693 421.134 63.432C420.643 63.7733 419.726 63.9973 418.382 64.104C417.059 64.1893 415.139 64.2747 412.622 64.36ZM410.062 46.952L409.998 51.816C407.246 51.7947 405.123 51.7413 403.63 51.656C402.137 51.5707 401.091 51.3467 400.494 50.984C399.918 50.6 399.63 49.9813 399.63 49.128C399.63 48.2533 399.961 47.656 400.622 47.336C401.305 46.9947 402.414 46.824 403.95 46.824C405.486 46.8027 407.523 46.8453 410.062 46.952ZM431.116 70.44C431.03 66.0453 430.956 61.6613 430.891 57.288C430.828 52.8933 430.796 48.552 430.796 44.264C430.796 43.944 430.796 43.6133 430.796 43.272C430.796 42.9093 430.796 42.5573 430.796 42.216C430.796 42.0027 430.796 41.7893 430.796 41.576C430.796 41.3413 430.796 41.1067 430.796 40.872C430.796 40.6373 430.796 40.4027 430.796 40.168C430.796 39.72 430.796 39.2613 430.796 38.792C430.796 38.3013 430.796 37.8213 430.796 37.352C430.796 36.9893 430.796 36.648 430.796 36.328C430.796 36.008 430.796 35.688 430.796 35.368C430.796 35.1547 430.796 34.9413 430.796 34.728C430.817 34.5147 430.817 34.3013 430.796 34.088C430.796 33.8747 430.796 33.6613 430.796 33.448C430.796 33.1493 430.796 32.8613 430.796 32.584C430.796 32.2853 430.796 31.9973 430.796 31.72C430.796 30.5893 431.009 29.7147 431.436 29.096C431.862 28.4773 432.524 28.1573 433.42 28.136C434.252 28.136 434.881 28.4027 435.308 28.936C435.734 29.448 436.022 30.2053 436.172 31.208C436.406 32.4453 436.609 33.8533 436.78 35.432C436.95 36.9893 437.174 38.6533 437.452 40.424C437.558 41.0853 437.708 41.576 437.9 41.896C438.113 42.216 438.582 42.4933 439.308 42.728C441.484 43.3893 443.649 44.0187 445.804 44.616C447.98 45.192 450.188 45.736 452.428 46.248C453.132 46.4187 453.622 46.3333 453.9 45.992C454.198 45.6507 454.326 45.16 454.284 44.52C454.134 42.0453 453.932 39.592 453.676 37.16C453.441 34.728 453.238 32.4453 453.068 30.312C452.982 29.288 453.164 28.392 453.612 27.624C454.06 26.856 454.796 26.472 455.82 26.472C456.886 26.472 457.644 26.824 458.092 27.528C458.561 28.2107 458.828 29.032 458.892 29.992C459.19 36.0293 459.457 42.2907 459.692 48.776C459.948 55.24 460.172 61.736 460.364 68.264C460.406 69.1813 460.193 69.9493 459.724 70.568C459.254 71.1653 458.486 71.464 457.42 71.464C456.374 71.464 455.606 71.1547 455.116 70.536C454.646 69.896 454.412 69.1173 454.412 68.2C454.412 66.4933 454.465 64.8613 454.572 63.304C454.678 61.7253 454.71 60.0933 454.668 58.408C454.668 57.8533 454.55 57.4587 454.316 57.224C454.081 56.9893 453.622 56.8613 452.94 56.84C452.726 56.84 452.502 56.84 452.268 56.84C452.054 56.8187 451.83 56.808 451.596 56.808C451.638 55.464 451.596 54.376 451.468 53.544C451.361 52.712 451.158 52.1147 450.86 51.752C450.582 51.368 450.188 51.176 449.676 51.176C449.185 51.176 448.78 51.336 448.46 51.656C448.14 51.976 447.884 52.5307 447.692 53.32C447.521 54.088 447.414 55.1653 447.372 56.552C446.668 56.488 445.974 56.4453 445.292 56.424C444.609 56.4027 443.916 56.3813 443.212 56.36C443.382 54.184 443.446 52.52 443.404 51.368C443.361 50.1947 443.19 49.3947 442.892 48.968C442.593 48.52 442.145 48.296 441.548 48.296C440.694 48.296 440.086 48.8187 439.724 49.864C439.361 50.9093 439.158 53.032 439.116 56.232C438.86 56.232 438.593 56.232 438.316 56.232C438.06 56.232 437.793 56.2213 437.516 56.2C436.982 56.2213 436.598 56.3493 436.364 56.584C436.129 56.8187 436.022 57.2133 436.044 57.768C436.172 59.9013 436.332 61.9493 436.524 63.912C436.737 65.8533 436.918 68.008 437.068 70.376C437.132 71.2293 436.94 71.9653 436.492 72.584C436.065 73.2027 435.276 73.512 434.124 73.512C433.078 73.512 432.321 73.2453 431.852 72.712C431.404 72.1573 431.158 71.4 431.116 70.44ZM434.828 47.016C433.932 47.016 433.249 46.792 432.78 46.344C432.31 45.896 432.076 45.288 432.076 44.52C432.076 43.6453 432.321 42.984 432.812 42.536C433.302 42.0667 433.974 41.832 434.828 41.832C435.468 41.832 436.033 42.088 436.524 42.6C437.014 43.112 437.26 43.816 437.26 44.712C437.26 45.288 437.004 45.8213 436.492 46.312C436.001 46.7813 435.446 47.016 434.828 47.016ZM460.172 32.872C461.942 33.0213 463.126 33.2453 463.724 33.544C464.342 33.8427 464.652 34.3653 464.652 35.112C464.652 35.7733 464.3 36.264 463.596 36.584C462.913 36.8827 461.772 37.0533 460.172 37.096C458.572 37.16 456.94 37.192 455.276 37.192C453.633 37.192 451.788 37.16 449.74 37.096C448.14 37.032 446.977 36.8293 446.252 36.488C445.548 36.1467 445.196 35.5813 445.196 34.792C445.196 33.832 445.59 33.2133 446.38 32.936C447.19 32.6373 448.332 32.488 449.804 32.488C451.852 32.488 453.697 32.52 455.34 32.584C456.982 32.648 458.593 32.744 460.172 32.872ZM444.94 68.008C443.958 68.008 443.158 67.6987 442.54 67.08C441.921 66.44 441.612 65.512 441.612 64.296C441.612 63.016 441.942 62.0773 442.604 61.48C443.265 60.8827 444.108 60.584 445.132 60.584C446.454 60.584 447.436 60.904 448.076 61.544C448.716 62.184 449.036 63.016 449.036 64.04C449.036 65.448 448.684 66.4613 447.98 67.08C447.276 67.6987 446.262 68.008 444.94 68.008ZM433.996 30.44C434.7 30.44 435.19 30.6107 435.468 30.952C435.766 31.272 435.916 31.848 435.916 32.68C435.916 33.5973 435.734 34.216 435.372 34.536C435.009 34.8347 434.508 34.984 433.868 34.984C433.74 34.984 433.612 34.984 433.484 34.984C433.356 34.984 433.228 34.984 433.1 34.984C432.46 34.984 431.958 34.792 431.596 34.408C431.233 34.024 431.052 33.4053 431.052 32.552C431.052 31.6773 431.265 31.112 431.692 30.856C432.118 30.5787 432.63 30.44 433.228 30.44C433.356 30.44 433.484 30.4507 433.612 30.472C433.74 30.472 433.868 30.4613 433.996 30.44Z" fill="#F9DC00"/>
</svg>
