<svg width="144" height="24" viewBox="0 0 144 24" fill="none" xmlns="http://www.w3.org/2000/svg">
<g clip-path="url(#clip0_13_9)">
<path d="M27.6152 3.99609V4.03516C27.6022 4.06771 27.5924 4.11654 27.5859 4.18164C27.5794 4.24674 27.5762 4.30534 27.5762 4.35742C27.5762 4.55924 27.6022 4.78385 27.6543 5.03125C27.7129 5.27214 27.8203 5.57487 27.9766 5.93945L32.3027 15.6953L36.4824 6.01758C36.5801 5.77669 36.6842 5.51302 36.7949 5.22656C36.9056 4.9401 36.9609 4.65039 36.9609 4.35742C36.9609 4.2793 36.9544 4.21419 36.9414 4.16211C36.9284 4.10352 36.9154 4.0612 36.9023 4.03516V3.99609H38.9043V4.03516C38.7806 4.15885 38.6309 4.38021 38.4551 4.69922C38.2793 5.01823 38.0872 5.41211 37.8789 5.88086L32.2832 18.3027H31.502L26.1992 6.35938C26.0755 6.07943 25.9453 5.80924 25.8086 5.54883C25.6784 5.28841 25.5547 5.05404 25.4375 4.8457C25.3203 4.63086 25.2161 4.45182 25.125 4.30859C25.0339 4.16536 24.972 4.07422 24.9395 4.03516V3.99609H27.6152ZM39.8906 11.5156C39.8906 10.9297 39.8841 10.4219 39.8711 9.99219C39.8581 9.55599 39.8385 9.18164 39.8125 8.86914C39.793 8.55013 39.7637 8.2832 39.7246 8.06836C39.6921 7.85352 39.653 7.67773 39.6074 7.54102V7.50195H41.873V7.54102C41.8275 7.67773 41.7852 7.85352 41.7461 8.06836C41.7135 8.2832 41.6842 8.55013 41.6582 8.86914C41.6387 9.18164 41.6224 9.55599 41.6094 9.99219C41.5964 10.4219 41.5898 10.9297 41.5898 11.5156V13.9766C41.5898 14.5625 41.5964 15.0736 41.6094 15.5098C41.6224 15.946 41.6387 16.3236 41.6582 16.6426C41.6842 16.9551 41.7135 17.2188 41.7461 17.4336C41.7852 17.6484 41.8275 17.8242 41.873 17.9609V18H39.6074V17.9609C39.653 17.8242 39.6921 17.6484 39.7246 17.4336C39.7637 17.2188 39.793 16.9551 39.8125 16.6426C39.8385 16.3236 39.8581 15.946 39.8711 15.5098C39.8841 15.0736 39.8906 14.5625 39.8906 13.9766V11.5156ZM49.3438 9.54297H49.1484C49.1094 9.43229 49.0443 9.29232 48.9531 9.12305C48.8685 8.95378 48.7513 8.78776 48.6016 8.625C48.4583 8.46224 48.2793 8.32552 48.0645 8.21484C47.8496 8.09766 47.5924 8.03906 47.293 8.03906C47.0651 8.03906 46.86 8.07812 46.6777 8.15625C46.502 8.22786 46.3522 8.32878 46.2285 8.45898C46.1048 8.58919 46.0104 8.74544 45.9453 8.92773C45.8802 9.10352 45.8477 9.29557 45.8477 9.50391C45.8477 9.84245 45.9486 10.1647 46.1504 10.4707C46.3587 10.7767 46.6159 11.0827 46.9219 11.3887C47.2279 11.6882 47.5599 11.9909 47.918 12.2969C48.276 12.6029 48.6081 12.9219 48.9141 13.2539C49.2201 13.5859 49.474 13.9375 49.6758 14.3086C49.8841 14.6797 49.9883 15.0768 49.9883 15.5C49.9883 15.8125 49.9297 16.1348 49.8125 16.4668C49.7018 16.7988 49.5195 17.0983 49.2656 17.3652C49.0117 17.6322 48.6862 17.8503 48.2891 18.0195C47.8919 18.1953 47.4102 18.2832 46.8438 18.2832C46.5312 18.2832 46.2318 18.2572 45.9453 18.2051C45.6654 18.153 45.4049 18.0879 45.1641 18.0098C44.9297 17.9382 44.7181 17.86 44.5293 17.7754C44.347 17.6842 44.194 17.5996 44.0703 17.5215L44.2461 15.6758H44.4512C44.5163 15.9036 44.6107 16.1315 44.7344 16.3594C44.8646 16.5872 45.0208 16.7956 45.2031 16.9844C45.3919 17.1667 45.61 17.3164 45.8574 17.4336C46.1113 17.5443 46.401 17.5996 46.7266 17.5996C46.9544 17.5996 47.1693 17.5638 47.3711 17.4922C47.5729 17.4141 47.7454 17.3066 47.8887 17.1699C48.0384 17.0332 48.1556 16.8672 48.2402 16.6719C48.3249 16.4701 48.3672 16.2454 48.3672 15.998C48.3672 15.7051 48.3086 15.4349 48.1914 15.1875C48.0742 14.9336 47.918 14.6927 47.7227 14.4648C47.5273 14.2305 47.306 14.0059 47.0586 13.791C46.8177 13.5762 46.5671 13.3581 46.3066 13.1367C46.0462 12.9154 45.7923 12.6908 45.5449 12.4629C45.304 12.2285 45.0859 11.9779 44.8906 11.7109C44.6953 11.444 44.5391 11.1608 44.4219 10.8613C44.3047 10.5553 44.2461 10.2201 44.2461 9.85547C44.2461 9.47135 44.3275 9.1263 44.4902 8.82031C44.653 8.51432 44.8678 8.25716 45.1348 8.04883C45.4017 7.83398 45.7077 7.67122 46.0527 7.56055C46.3978 7.44336 46.7559 7.38477 47.127 7.38477C47.4004 7.38477 47.6543 7.4043 47.8887 7.44336C48.1296 7.48242 48.3444 7.53125 48.5332 7.58984C48.7285 7.64193 48.8978 7.69727 49.041 7.75586C49.1842 7.80794 49.3014 7.85026 49.3926 7.88281L49.3438 9.54297ZM59.6074 12.9805C59.4056 12.9805 59.1549 12.9805 58.8555 12.9805C58.556 12.974 58.2305 12.9674 57.8789 12.9609C57.5273 12.9544 57.1628 12.9512 56.7852 12.9512C56.4076 12.9447 56.043 12.9414 55.6914 12.9414C55.3594 12.9414 55.0469 12.9447 54.7539 12.9512C54.4674 12.9577 54.2201 12.9674 54.0117 12.9805V13.9766C54.0117 14.5625 54.0182 15.0736 54.0312 15.5098C54.0443 15.946 54.0605 16.3236 54.0801 16.6426C54.1061 16.9551 54.1354 17.2188 54.168 17.4336C54.2005 17.6484 54.2396 17.8242 54.2852 17.9609V18H52.0293V17.9609C52.0749 17.8242 52.1139 17.6484 52.1465 17.4336C52.1855 17.2188 52.2148 16.9551 52.2344 16.6426C52.2604 16.3236 52.2799 15.946 52.293 15.5098C52.306 15.0736 52.3125 14.5625 52.3125 13.9766V11.5156C52.3125 10.9297 52.306 10.4219 52.293 9.99219C52.2799 9.55599 52.2604 9.18164 52.2344 8.86914C52.2148 8.55013 52.1855 8.2832 52.1465 8.06836C52.1139 7.85352 52.0749 7.67773 52.0293 7.54102V7.50195H54.2852V7.54102C54.2396 7.67773 54.2005 7.85352 54.168 8.06836C54.1354 8.2832 54.1061 8.55013 54.0801 8.86914C54.0605 9.18164 54.0443 9.55599 54.0312 9.99219C54.0182 10.4219 54.0117 10.9297 54.0117 11.5156V12.1797H55.4473C55.8053 12.1797 56.1829 12.1797 56.5801 12.1797C56.9772 12.1732 57.3613 12.1699 57.7324 12.1699C58.1035 12.1634 58.4518 12.1569 58.7773 12.1504C59.1029 12.1439 59.3796 12.1341 59.6074 12.1211V11.5156C59.6074 10.9297 59.6009 10.4219 59.5879 9.99219C59.5749 9.55599 59.5553 9.18164 59.5293 8.86914C59.5098 8.55013 59.4837 8.2832 59.4512 8.06836C59.4186 7.85352 59.3796 7.67773 59.334 7.54102V7.50195H61.5898V7.54102C61.5443 7.67773 61.502 7.85352 61.4629 8.06836C61.4303 8.2832 61.401 8.55013 61.375 8.86914C61.3555 9.18164 61.3392 9.55599 61.3262 9.99219C61.3132 10.4219 61.3066 10.9297 61.3066 11.5156V13.9766C61.3066 14.5625 61.3132 15.0736 61.3262 15.5098C61.3392 15.946 61.3555 16.3236 61.375 16.6426C61.401 16.9551 61.4303 17.2188 61.4629 17.4336C61.502 17.6484 61.5443 17.8242 61.5898 17.9609V18H59.334V17.9609C59.3796 17.8242 59.4186 17.6484 59.4512 17.4336C59.4837 17.2188 59.5098 16.9551 59.5293 16.6426C59.5553 16.3236 59.5749 15.946 59.5879 15.5098C59.6009 15.0736 59.6074 14.5625 59.6074 13.9766V12.9805ZM73.543 18.1367H73.1621L65.3984 10.5V13.9766C65.3984 14.5625 65.4017 15.0736 65.4082 15.5098C65.4147 15.946 65.4245 16.3236 65.4375 16.6426C65.457 16.9551 65.4798 17.2188 65.5059 17.4336C65.5384 17.6484 65.5775 17.8242 65.623 17.9609V18H64.1582V17.9609C64.2038 17.8242 64.2428 17.6484 64.2754 17.4336C64.3079 17.2188 64.334 16.9551 64.3535 16.6426C64.373 16.3236 64.3861 15.946 64.3926 15.5098C64.3991 15.0736 64.4023 14.5625 64.4023 13.9766V11.5156C64.4023 10.9297 64.3991 10.4219 64.3926 9.99219C64.3861 9.55599 64.373 9.18164 64.3535 8.86914C64.334 8.55013 64.3079 8.2832 64.2754 8.06836C64.2428 7.85352 64.2038 7.67773 64.1582 7.54102V7.50195H64.7637L72.5371 15.1777V11.5156C72.5371 10.9297 72.5339 10.4219 72.5273 9.99219C72.5208 9.55599 72.5078 9.18164 72.4883 8.86914C72.4753 8.55013 72.4557 8.2832 72.4297 8.06836C72.4036 7.85352 72.3678 7.67773 72.3223 7.54102V7.50195H73.7773V7.54102C73.7318 7.67773 73.6927 7.85352 73.6602 8.06836C73.6341 8.2832 73.6113 8.55013 73.5918 8.86914C73.5723 9.18164 73.5592 9.55599 73.5527 9.99219C73.5462 10.4219 73.543 10.9297 73.543 11.5156V18.1367ZM84.3828 11.4766C84.3828 10.8971 84.3796 10.3926 84.373 9.96289C84.3665 9.5332 84.3535 9.16211 84.334 8.84961C84.3145 8.53711 84.2917 8.27669 84.2656 8.06836C84.2396 7.85352 84.207 7.67773 84.168 7.54102V7.50195H85.6035V7.54102C85.5645 7.67773 85.5319 7.85352 85.5059 8.06836C85.4798 8.2832 85.457 8.55013 85.4375 8.86914C85.418 9.18164 85.4049 9.55599 85.3984 9.99219C85.3919 10.4219 85.3887 10.9297 85.3887 11.5156V14.3184C85.3887 15.0215 85.278 15.6204 85.0566 16.1152C84.8418 16.61 84.5423 17.0169 84.1582 17.3359C83.7741 17.6484 83.3151 17.8763 82.7812 18.0195C82.2539 18.1693 81.6745 18.2441 81.043 18.2441C80.4049 18.2441 79.8125 18.1725 79.2656 18.0293C78.7188 17.8926 78.2435 17.6712 77.8398 17.3652C77.4427 17.0592 77.127 16.6621 76.8926 16.1738C76.6647 15.6855 76.5508 15.0931 76.5508 14.3965V11.5156C76.5508 10.9297 76.5443 10.4219 76.5312 9.99219C76.5182 9.55599 76.4987 9.18164 76.4727 8.86914C76.4466 8.55013 76.4173 8.2832 76.3848 8.06836C76.3522 7.85352 76.3132 7.67773 76.2676 7.54102V7.50195H78.5234V7.54102C78.4779 7.67773 78.4388 7.85352 78.4062 8.06836C78.3737 8.27669 78.3444 8.53711 78.3184 8.84961C78.2988 9.16211 78.2826 9.5332 78.2695 9.96289C78.2565 10.3926 78.25 10.8971 78.25 11.4766V14.3965C78.25 14.9759 78.3379 15.4544 78.5137 15.832C78.6895 16.2031 78.9206 16.4993 79.207 16.7207C79.4935 16.9421 79.819 17.0983 80.1836 17.1895C80.5482 17.2741 80.9225 17.3164 81.3066 17.3164C81.6973 17.3164 82.0749 17.2741 82.4395 17.1895C82.8105 17.0983 83.1393 16.9421 83.4258 16.7207C83.7188 16.4993 83.9499 16.2031 84.1191 15.832C84.2949 15.4544 84.3828 14.9759 84.3828 14.3965V11.4766ZM88.543 11.5156C88.543 10.9297 88.5365 10.4219 88.5234 9.99219C88.5104 9.55599 88.4909 9.18164 88.4648 8.86914C88.4453 8.55013 88.416 8.2832 88.377 8.06836C88.3444 7.85352 88.3053 7.67773 88.2598 7.54102V7.50195H90.5254V7.54102C90.4798 7.67773 90.4375 7.85352 90.3984 8.06836C90.3659 8.2832 90.3366 8.55013 90.3105 8.86914C90.291 9.18164 90.2747 9.55599 90.2617 9.99219C90.2487 10.4219 90.2422 10.9297 90.2422 11.5156V16.0371C90.2422 16.9616 90.1608 17.7428 89.998 18.3809C89.8418 19.0189 89.6107 19.5723 89.3047 20.041C89.0052 20.5163 88.6406 20.9395 88.2109 21.3105C87.7812 21.6816 87.293 22.0658 86.7461 22.4629L86.5605 22.2383C87.0358 21.8086 87.4069 21.3789 87.6738 20.9492C87.9408 20.526 88.1361 20.0703 88.2598 19.582C88.39 19.0938 88.4681 18.5632 88.4941 17.9902C88.5267 17.4108 88.543 16.7598 88.543 16.0371V11.5156ZM93.4844 11.5156C93.4844 10.9297 93.4779 10.4219 93.4648 9.99219C93.4518 9.55599 93.4323 9.18164 93.4062 8.86914C93.3867 8.55013 93.3574 8.2832 93.3184 8.06836C93.2858 7.85352 93.2467 7.67773 93.2012 7.54102V7.50195H95.4668V7.54102C95.4212 7.67773 95.3789 7.85352 95.3398 8.06836C95.3073 8.2832 95.278 8.55013 95.252 8.86914C95.2324 9.18164 95.2161 9.55599 95.2031 9.99219C95.1901 10.4219 95.1836 10.9297 95.1836 11.5156V13.9766C95.1836 14.5625 95.1901 15.0736 95.2031 15.5098C95.2161 15.946 95.2324 16.3236 95.252 16.6426C95.278 16.9551 95.3073 17.2188 95.3398 17.4336C95.3789 17.6484 95.4212 17.8242 95.4668 17.9609V18H93.2012V17.9609C93.2467 17.8242 93.2858 17.6484 93.3184 17.4336C93.3574 17.2188 93.3867 16.9551 93.4062 16.6426C93.4323 16.3236 93.4518 15.946 93.4648 15.5098C93.4779 15.0736 93.4844 14.5625 93.4844 13.9766V11.5156ZM100.867 8.22461C100.275 8.22461 99.7344 8.25065 99.2461 8.30273C98.7643 8.35482 98.3477 8.41016 97.9961 8.46875C97.5924 8.54036 97.2279 8.61849 96.9023 8.70312L97.0977 7.44336C97.1953 7.45638 97.3548 7.46615 97.5762 7.47266C97.7975 7.47917 98.0286 7.48568 98.2695 7.49219C98.5169 7.49219 98.748 7.49544 98.9629 7.50195C99.1842 7.50195 99.3372 7.50195 99.4219 7.50195H104.041C104.119 7.50195 104.262 7.50195 104.471 7.50195C104.686 7.49544 104.913 7.49219 105.154 7.49219C105.395 7.48568 105.626 7.47917 105.848 7.47266C106.069 7.46615 106.229 7.45638 106.326 7.44336L106.521 8.70312C106.209 8.61849 105.851 8.54036 105.447 8.46875C105.102 8.41016 104.686 8.35482 104.197 8.30273C103.715 8.25065 103.172 8.22461 102.566 8.22461V13.9766C102.566 14.5625 102.573 15.0736 102.586 15.5098C102.599 15.946 102.615 16.3236 102.635 16.6426C102.661 16.9551 102.69 17.2188 102.723 17.4336C102.755 17.6484 102.794 17.8242 102.84 17.9609V18H100.584V17.9609C100.63 17.8242 100.669 17.6484 100.701 17.4336C100.734 17.2188 100.763 16.9551 100.789 16.6426C100.815 16.3236 100.835 15.946 100.848 15.5098C100.861 15.0736 100.867 14.5625 100.867 13.9766V8.22461ZM115.389 12.9805C115.187 12.9805 114.936 12.9805 114.637 12.9805C114.337 12.974 114.012 12.9674 113.66 12.9609C113.309 12.9544 112.944 12.9512 112.566 12.9512C112.189 12.9447 111.824 12.9414 111.473 12.9414C111.141 12.9414 110.828 12.9447 110.535 12.9512C110.249 12.9577 110.001 12.9674 109.793 12.9805V13.9766C109.793 14.5625 109.799 15.0736 109.812 15.5098C109.826 15.946 109.842 16.3236 109.861 16.6426C109.887 16.9551 109.917 17.2188 109.949 17.4336C109.982 17.6484 110.021 17.8242 110.066 17.9609V18H107.811V17.9609C107.856 17.8242 107.895 17.6484 107.928 17.4336C107.967 17.2188 107.996 16.9551 108.016 16.6426C108.042 16.3236 108.061 15.946 108.074 15.5098C108.087 15.0736 108.094 14.5625 108.094 13.9766V11.5156C108.094 10.9297 108.087 10.4219 108.074 9.99219C108.061 9.55599 108.042 9.18164 108.016 8.86914C107.996 8.55013 107.967 8.2832 107.928 8.06836C107.895 7.85352 107.856 7.67773 107.811 7.54102V7.50195H110.066V7.54102C110.021 7.67773 109.982 7.85352 109.949 8.06836C109.917 8.2832 109.887 8.55013 109.861 8.86914C109.842 9.18164 109.826 9.55599 109.812 9.99219C109.799 10.4219 109.793 10.9297 109.793 11.5156V12.1797H111.229C111.587 12.1797 111.964 12.1797 112.361 12.1797C112.758 12.1732 113.143 12.1699 113.514 12.1699C113.885 12.1634 114.233 12.1569 114.559 12.1504C114.884 12.1439 115.161 12.1341 115.389 12.1211V11.5156C115.389 10.9297 115.382 10.4219 115.369 9.99219C115.356 9.55599 115.337 9.18164 115.311 8.86914C115.291 8.55013 115.265 8.2832 115.232 8.06836C115.2 7.85352 115.161 7.67773 115.115 7.54102V7.50195H117.371V7.54102C117.326 7.67773 117.283 7.85352 117.244 8.06836C117.212 8.2832 117.182 8.55013 117.156 8.86914C117.137 9.18164 117.12 9.55599 117.107 9.99219C117.094 10.4219 117.088 10.9297 117.088 11.5156V13.9766C117.088 14.5625 117.094 15.0736 117.107 15.5098C117.12 15.946 117.137 16.3236 117.156 16.6426C117.182 16.9551 117.212 17.2188 117.244 17.4336C117.283 17.6484 117.326 17.8242 117.371 17.9609V18H115.115V17.9609C115.161 17.8242 115.2 17.6484 115.232 17.4336C115.265 17.2188 115.291 16.9551 115.311 16.6426C115.337 16.3236 115.356 15.946 115.369 15.5098C115.382 15.0736 115.389 14.5625 115.389 13.9766V12.9805Z" fill="#0053E2"/>
</g>
<defs>
<clipPath id="clip0_13_9">
<rect width="144" height="24" fill="white"/>
</clipPath>
</defs>
</svg>
